<?xml version="1.0" encoding="utf-8"?>
<!-- Generator: Adobe Illustrator 23.0.4, SVG Export Plug-In . SVG Version: 6.00 Build 0)  -->
<svg version="1.1" id="illu_layer" xmlns="http://www.w3.org/2000/svg" xmlns:xlink="http://www.w3.org/1999/xlink" x="0px" y="0px"
	 viewBox="0 0 87 86" style="enable-background:new 0 0 87 86;" xml:space="preserve">
<style type="text/css">
	.st0{fill-rule:evenodd;clip-rule:evenodd;fill:#ECA200;}
</style>
<path id="apricot" class="st0" d="M49.647,21.212c-1.197,0.09-2.011,0.151-2.939,0.222C47.825,20.631,47.825,20.631,49.647,21.212z
	 M64.357,14.719c-1.015,0.097-1.549,0.111-2.068,0.203c-3.501,0.622-6.612,1.765-7.587,5.743c-0.067,0.275-0.209,0.6-0.422,0.761
	c-1.229,0.934-2.45,1.889-3.75,2.716c-2.721,1.732-4.78,1.464-7.135-0.773c-0.23-0.218-0.609-0.351-0.934-0.389
	c-1.411-0.171-2.854-0.172-4.24-0.455c-4.327-0.882-8.085,0.581-11.554,2.869c-2.911,1.92-5.211,4.516-6.966,7.559
	c-0.37,0.64-0.859,1.232-1.108,1.914c-1.014,2.776-1.929,5.571-2.485,8.5c-0.658,3.472-1.406,6.924-1.136,10.473
	c0.193,2.525,0.637,5.032,0.905,7.553c0.333,3.144,0.756,6.28,1.974,9.209c1.333,3.202,2.916,6.237,6.031,8.201
	c2.302,1.45,4.689,2.656,7.198,3.702c4.351,1.814,8.835,2.252,13.461,1.747c1.17-0.127,2.342-0.24,3.505-0.421
	c0.969-0.151,1.978-0.26,2.877-0.619c2.993-1.192,6.114-1.917,9.208-2.758c2.256-0.612,4.521-1.245,6.69-2.104
	c1.587-0.629,3.194-1.433,4.496-2.515c4.258-3.539,7.5-7.844,9.2-13.205c0.561-1.768,1.173-3.525,1.833-5.259
	c2.025-5.314,3.253-10.693,2.6-16.484c-0.431-3.817-0.765-7.601-1.901-11.306c-1.577-5.147-3.702-9.987-7.313-14.029
	c-1.508-1.686-3.059-3.405-5.311-4.222c-1.601-0.581-3.226-1.088-4.494-2.388c-0.622-0.638-1.522-1.168-2.385-1.374
	c-1.929-0.462-3.757-1.121-5.558-1.939c-1.115-0.506-2.4-0.621-3.541-1.082c-4.341-1.757-8.863-2.578-13.517-2.759
	c-0.679-0.027-1.383-0.052-2.04,0.088c-2.531,0.535-5.057,1.096-7.563,1.735c-1.127,0.287-2.2,0.789-3.3,1.184
	c-4.687,1.686-9.043,3.972-12.671,7.425c-1.964,1.868-3.722,3.957-5.545,5.97C7.17,21.1,5.594,24.689,4.629,28.342
	c-1.338,5.067-1.92,10.332-2.869,15.506c-0.758,4.139,0.348,8.028,1.815,11.763c1.004,2.558,2.501,4.957,4.03,7.261
	c1.004,1.515,2.349,2.861,3.745,4.042c1.078,0.912,2.372,1.667,3.92,1.979c-0.031-0.557-0.022-0.991-0.086-1.414
	c-0.513-3.42-1.077-6.835-1.551-10.261c-0.583-4.209-0.438-8.402,0.484-12.56c0.413-1.867,0.702-3.769,1.246-5.597
	c1.171-3.939,2.784-7.68,5.656-10.727c0.965-1.025,2.066-1.923,3.022-2.954c1.455-1.568,3.11-2.782,5.146-3.491
	c1.394-0.486,2.739-1.107,4.126-1.613c0.389-0.14,0.858-0.158,1.275-0.109c2.819,0.33,5.639,0.669,8.451,1.053
	c1.593,0.217,3.202-0.912,3.451-2.504c0.417-2.67-1.082-5.872-3.4-7.248c-0.337-0.2-0.688-0.377-1.074-0.588
	c1.088-0.889,1.92-0.122,2.573,0.357c2.671,1.965,3.584,4.812,3.516,8.256c1.888-1.243,3.611-0.772,5.249-0.158
	c0.159-0.215,0.251-0.302,0.299-0.409c1.535-3.402,4.557-4.705,7.883-5.536c0.515-0.128,1.139-0.083,1.643,0.089
	C63.533,13.599,63.767,14.071,64.357,14.719z M87,43.559c0.021,4.585-1.263,8.827-2.849,13.021c-0.83,2.198-1.488,4.462-2.326,6.659
	c-1.687,4.419-4.172,8.277-7.437,11.779c-3.491,3.747-7.905,5.532-12.562,6.716c-3.948,1.004-7.806,2.26-11.723,3.334
	c-3.115,0.853-6.351,1.071-9.594,0.855c-0.433-0.029-0.864-0.122-1.295-0.123c-5.904-0.02-11.05-2.383-15.934-5.352
	c-2.971-1.806-5.074-4.501-6.313-7.78c-0.408-1.081-1.122-1.744-2.138-2.112c-4.547-1.644-7.663-4.824-9.824-9.055
	c-1.092-2.139-2.415-4.184-3.273-6.41c-0.927-2.401-1.797-4.884-1.727-7.542c0.033-1.298-0.033-2.615,0.172-3.887
	c0.491-3.047,1.123-6.072,1.685-9.107c0.36-1.943,0.611-3.91,1.074-5.826c0.389-1.609,0.883-3.22,1.559-4.726
	c1.572-3.495,3.649-6.642,6.238-9.532c2.464-2.748,5.315-4.993,8.219-7.159c1.747-1.302,3.892-2.108,5.929-2.969
	c2.603-1.101,5.247-2.127,7.929-3.016c4.422-1.466,9.006-1.668,13.544-0.855c3.145,0.564,6.196,1.665,9.278,2.565
	c2.013,0.586,3.993,1.293,6.015,1.851c2.608,0.717,4.75,2.327,7.088,3.56c1.631,0.861,3.211,1.82,4.797,2.76
	c1.842,1.091,3.186,2.683,4.497,4.352c4.195,5.337,6.437,11.52,7.753,18.054C86.438,36.879,86.609,40.241,87,43.559z M37.378,8.462
	C38,8,39.5,8,39.666,8.736C40.5,10,37,10,37.378,8.462z"/>
</svg>
