<?xml version="1.0" encoding="utf-8"?>
<!-- Generator: Adobe Illustrator 23.0.4, SVG Export Plug-In . SVG Version: 6.00 Build 0)  -->
<svg version="1.1" id="icon_layer" xmlns="http://www.w3.org/2000/svg" xmlns:xlink="http://www.w3.org/1999/xlink" x="0px" y="0px"
	 viewBox="0 0 68 44" style="enable-background:new 0 0 68 44;" xml:space="preserve">
<style type="text/css">
	.st0{fill-rule:evenodd;clip-rule:evenodd;fill:#ECA200;}
</style>
<path id="riegel" class="st0" d="M8.128,38.17c0.35,0.071,0.568,0.177,0.762,0.144c0.733-0.122,1.141,0.353,1.576,0.792
	c0.385,0.389,0.17,0.811,0.058,1.226c-0.006,0.021,0.037,0.056,0.098,0.142c0.86-0.272,1.758-0.495,2.548-0.923
	c0.012-0.147,0.039-0.224,0.02-0.287c-0.49-1.617-1.433-3.016-2.178-4.51c-0.389-0.779-0.831-1.532-1.258-2.292
	c-0.249-0.442-0.465-0.917-0.785-1.303c-0.894-1.079-1.604-2.239-1.894-3.631c-0.047-0.226-0.196-0.43-0.319-0.69
	c-1.007,0.521-1.932,1.015-2.773,1.652c-0.102,0.078-0.169,0.202-0.305,0.371c0.245,0.093,0.404,0.198,0.568,0.207
	c0.726,0.043,1.288,0.476,1.895,0.788c0.726,0.373,0.926,0.988,0.588,1.722c-0.332,0.722-0.578,1.47-0.834,2.217
	c0.138,0.098,0.217,0.181,0.313,0.215c0.512,0.181,1.016,0.343,1.576,0.392c0.859,0.075,1.516,0.677,1.016,1.79
	c-0.045,0.1-0.1,0.196-0.134,0.299C8.498,37.006,8.335,37.523,8.128,38.17z M52.333,4.968c0.08,0.19,0.09,0.276,0.138,0.32
	c0.765,0.7,1.289,1.577,1.784,2.468c0.901,1.622,1.795,3.249,2.642,4.899c0.53,1.034,0.988,2.107,1.443,3.178
	c0.454,1.069,0.863,2.156,1.295,3.234c0.011,0.027,0.057,0.039,0.162,0.107c0.686-0.123,1.424-0.286,2.076-0.7
	c0.575-0.366,1.128-0.767,1.69-1.153c-0.042-0.069-0.064-0.154-0.118-0.186c-0.217-0.131-0.443-0.249-0.669-0.365
	c-0.498-0.255-0.675-0.532-0.527-1.028c0.112-0.377,0.301-0.741,0.511-1.076c0.289-0.463,0.573-0.916,0.632-1.461
	c-0.963-0.519-1.884-1.017-2.806-1.512c-0.559-0.3-0.614-0.386-0.494-1.04c0.131-0.716,0.293-1.426,0.437-2.139
	c0.042-0.206,0.067-0.416,0.103-0.649c-1.146-0.561-2.202-1.208-3.405-1.518c-0.572-0.148-0.869-0.49-0.963-1.053
	c0.176-0.472,0.358-0.946,0.531-1.424c0.165-0.458,0.555-0.85,0.473-1.382c-0.123-0.036-0.2-0.088-0.254-0.071
	c-1.352,0.45-2.561,1.199-3.818,1.847C52.885,4.425,52.639,4.713,52.333,4.968z M15.631,38.54c0.35-0.164,0.734-0.226,0.918-0.451
	c0.718-0.882,1.854-0.933,2.745-1.462c0.465-0.275,1.058-0.346,1.498-0.647c0.767-0.525,1.638-0.783,2.466-1.152
	c0.299-0.133,0.605-0.249,0.905-0.379c1.201-0.519,2.399-1.047,3.604-1.559c0.77-0.327,1.543-0.652,2.328-0.941
	c1.023-0.376,2.063-0.708,3.09-1.073c0.445-0.158,0.879-0.347,1.313-0.532c0.904-0.386,1.798-0.799,2.711-1.163
	c0.708-0.282,1.448-0.482,2.157-0.761c0.982-0.386,1.955-0.797,2.919-1.226c1.726-0.768,3.439-1.567,5.164-2.337
	c1.096-0.489,2.218-0.923,3.306-1.428c1.123-0.521,2.222-1.094,3.326-1.654c0.747-0.378,1.498-0.751,2.222-1.17
	c0.307-0.178,0.582-0.441,0.811-0.717c0.241-0.29,0.314-0.644,0.121-1.019c-1.036-2.004-1.725-4.167-2.824-6.146
	c-0.883-1.59-1.688-3.224-2.561-4.82c-0.26-0.475-0.626-0.893-0.955-1.328c-0.362-0.478-0.886-0.619-1.45-0.62
	c-0.252,0-0.514,0.041-0.754,0.117c-1.46,0.462-2.894,0.981-4.188,1.828c-0.971,0.635-1.915,1.346-3.158,1.355
	c-0.034,0-0.067,0.028-0.101,0.039c-1.662,0.544-3.3,1.154-4.885,1.896c-0.492,0.231-0.949,0.537-1.422,0.81
	c-0.724,0.417-1.438,0.851-2.174,1.246c-0.759,0.408-1.618,0.61-2.339,1.103c-0.822,0.06-1.479,0.56-2.205,0.863
	c-1.375,0.573-2.71,1.241-4.052,1.89c-0.621,0.3-1.203,0.682-1.831,0.963c-1.096,0.491-2.091,1.187-3.249,1.552
	c-0.587,0.185-1.164,0.414-1.722,0.672c-0.558,0.258-1.086,0.581-1.63,0.87c-1.667,0.886-3.341,1.759-4.998,2.665
	c-0.345,0.188-0.664,0.461-0.924,0.757c-1.089,1.235-1.253,2.636-0.235,3.85c0.187,0.223,0.335,0.477,0.514,0.707
	c0.695,0.895,1.299,1.843,1.783,2.871c0.232,0.492,0.534,0.952,0.816,1.42c0.3,0.499,0.638,0.976,0.915,1.487
	c0.538,0.992,1.039,2.003,1.569,2.999C15.288,38.128,15.459,38.308,15.631,38.54z M65.961,12.776
	c-0.567,0.759-0.94,1.578-1.255,2.384c0.129,0.376,0.402,0.482,0.689,0.546c0.212,0.047,0.436,0.033,0.65,0.071
	c0.505,0.088,0.979,0.242,1.419,0.532c0.679,0.448,0.553,1.109-0.052,1.344c-0.236,0.092-0.44,0.273-0.679,0.35
	c-2.026,0.65-3.755,1.922-5.716,2.709c-0.602,0.241-1.075,0.753-1.748,0.866c-0.322,0.054-0.64,0.198-0.957,0.192
	c-0.582-0.011-1.041,0.205-1.506,0.531c-0.595,0.417-1.23,0.781-1.872,1.123c-1.092,0.582-2.19,1.158-3.31,1.683
	c-1.319,0.618-2.665,1.175-3.997,1.765c-1.73,0.765-3.455,1.541-5.186,2.303c-0.466,0.205-0.945,0.381-1.419,0.568
	c-1.183,0.468-2.371,0.924-3.548,1.409c-0.539,0.222-1.051,0.507-1.649,0.552c-0.105,0.008-0.223,0.04-0.307,0.099
	c-0.975,0.694-2.14,0.883-3.242,1.238c-0.173,0.056-0.34,0.131-0.508,0.2c-1.516,0.615-3.038,1.213-4.544,1.849
	c-1.373,0.581-2.751,1.156-4.083,1.824c-0.844,0.423-1.657,0.907-2.548,1.235c-0.647,0.239-1.28,0.516-1.925,0.76
	c-0.645,0.245-1.267,0.493-1.821,0.949c-0.465,0.383-1.054,0.638-1.621,0.873c-1.14,0.473-2.306,0.882-3.452,1.34
	c-0.676,0.27-1.333,0.587-2.001,0.876c-0.233,0.101-0.47,0.202-0.716,0.265c-0.392,0.101-0.738-0.123-0.816-0.51
	c-0.095-0.474-0.094-0.939,0.123-1.389c0.156-0.323,0.391-0.621,0.344-1.083c-0.165-0.063-0.353-0.169-0.552-0.205
	c-0.429-0.077-0.872-0.085-1.295-0.182c-0.59-0.136-0.779-0.419-0.68-1.037c0.08-0.499,0.223-0.99,0.358-1.479
	c0.105-0.381,0.242-0.753,0.364-1.126c-0.48-0.452-1.028-0.485-1.559-0.558C5.058,35.606,4.76,35.61,4.48,35.54
	c-0.456-0.114-0.651-0.38-0.681-0.857c-0.036-0.588,0.082-1.145,0.331-1.68c0.273-0.586,0.648-1.135,0.705-1.863
	c-0.257-0.11-0.509-0.286-0.78-0.321c-0.66-0.086-1.272-0.299-1.883-0.542c-0.232-0.092-0.5-0.087-0.744-0.154
	c-0.709-0.197-0.918-1.046-0.378-1.552c0.292-0.274,0.592-0.544,0.917-0.775c1.007-0.717,2.027-1.416,3.044-2.118
	c0.15-0.103,0.301-0.226,0.47-0.275c0.976-0.282,1.666-0.939,2.373-1.63c0.535-0.523,1.102-1.061,1.857-1.319
	c0.339-0.116,0.66-0.311,0.959-0.514c1.684-1.148,3.478-2.086,5.343-2.909c1.627-0.719,3.214-1.528,4.819-2.296
	c0.426-0.204,0.841-0.447,1.288-0.587c0.5-0.156,0.897-0.461,1.338-0.708c0.824-0.462,1.675-0.892,2.556-1.23
	c2.655-1.02,5.225-2.231,7.648-3.702c1.576-0.957,3.277-1.569,4.947-2.281c1.071-0.456,2.163-0.861,3.248-1.284
	c0.168-0.066,0.353-0.175,0.516-0.155C43.045,6.87,43.51,6.511,44.059,6.2c1.04-0.589,2.157-1.054,3.274-1.491
	c0.809-0.316,1.675-0.486,2.504-0.758c0.339-0.111,0.679-0.276,0.96-0.492c0.906-0.698,1.918-1.183,2.97-1.604
	c0.741-0.298,1.467-0.641,2.223-0.894c0.756-0.253,1.534-0.462,2.317-0.611c0.601-0.115,1.135,0.301,1.33,0.887
	c0.159,0.475,0.13,0.938-0.075,1.384c-0.227,0.497-0.489,0.978-0.714,1.476c-0.201,0.443-0.133,0.68,0.297,0.89
	c0.779,0.38,1.491,0.915,2.416,0.961c0.497,0.025,0.853,0.412,1.151,0.756c0.154,0.178,0.152,0.556,0.107,0.826
	c-0.07,0.427-0.24,0.837-0.357,1.258c-0.116,0.419-0.234,0.84-0.322,1.266c-0.085,0.41,0.02,0.598,0.44,0.749
	c0.48,0.171,0.974,0.302,1.462,0.449c0.208,0.062,0.423,0.105,0.626,0.181C65.467,11.733,65.485,11.756,65.961,12.776z
	 M48.163,10.194c0.7-0.038,1.128,0.216,1.503,0.476c0.715,0.496,1.38,1.067,2.042,1.635c0.184,0.158,0.317,0.401,0.414,0.63
	c0.384,0.903,0.752,1.813,1.108,2.727c0.104,0.268,0.192,0.553,0.219,0.837c0.051,0.548-0.466,0.879-0.954,0.624
	c-0.158-0.083-0.305-0.203-0.428-0.334c-0.673-0.718-1.309-1.471-1.7-2.384c-0.325-0.759-0.786-1.359-1.497-1.816
	c-0.401-0.257-0.778-0.439-1.214-0.304c-1.008,0.313-2.068,0.349-3.08,0.681c-1.792,0.587-3.548,1.292-5.403,1.689
	c-0.593,0.127-1.147,0.441-1.717,0.673c-0.337,0.137-0.67,0.283-1.006,0.422c-0.94,0.389-1.895,0.749-2.817,1.177
	c-0.523,0.243-0.99,0.606-1.493,0.896c-0.251,0.144-0.52,0.264-0.793,0.36c-0.354,0.125-0.658-0.02-0.81-0.347
	c-0.225-0.484-0.161-0.959,0.273-1.27c0.53-0.38,1.109-0.69,1.67-1.026c0.186-0.112,0.421-0.173,0.563-0.324
	c0.503-0.536,1.166-0.707,1.833-0.898c0.451-0.129,0.909-0.269,1.326-0.479c1.502-0.757,3.054-1.341,4.703-1.718
	c1.163-0.266,2.27-0.771,3.413-1.131c0.655-0.207,1.328-0.386,2.006-0.488c0.502-0.076,1.008-0.098,1.496-0.263
	C47.985,10.183,48.176,10.193,48.163,10.194z M53.527,20.097c-0.491-0.006-0.843-0.327-0.858-0.783
	c-0.016-0.486,0.418-0.928,0.885-0.901c0.452,0.026,0.842,0.407,0.844,0.826C54.401,19.809,54.101,20.104,53.527,20.097z"/>
</svg>
