<?xml version="1.0" encoding="utf-8"?>
<!-- Generator: Adobe Illustrator 23.0.4, SVG Export Plug-In . SVG Version: 6.00 Build 0)  -->
<svg version="1.1" id="illu_layer" xmlns="http://www.w3.org/2000/svg" xmlns:xlink="http://www.w3.org/1999/xlink" x="0px" y="0px"
	 viewBox="0 0 166 81" style="enable-background:new 0 0 166 81;" xml:space="preserve">
<style type="text/css">
	.st0{fill-rule:evenodd;clip-rule:evenodd;fill:#ECA200;}
</style>
<path id="date-1" class="st0" d="M65.268,4.719c-0.093-0.42-0.339-0.568-0.663-0.681c-1.32-0.462-2.622-0.983-3.951-1.414
	c-1.552-0.502-3.146-0.882-4.768-0.977c-1.799-0.105-3.607-0.069-5.411-0.069c-1.851,0.001-3.698,0.098-5.537,0.356
	c-2.5,0.352-5.012,0.605-7.505,1.026c-1.401,0.237-5.024,1.619-6.551,2.534c-0.19,0.114-0.35,0.286-0.516,0.439
	c-1.039,0.954-2.133,1.841-3.183,2.785c-2.911,2.618-6.248,4.565-9.78,6.156c-1.571,0.707-3.169,1.35-4.727,2.085
	c-2.548,1.203-4.973,2.621-7.124,4.502c-1.468,1.284-2.666,2.767-3.422,4.61c-0.493,1.201-0.594,2.45-0.233,3.679
	c0.512,1.74,1.242,3.392,2.302,4.864c0.713,0.991,1.626,1.714,2.718,2.143c0.715-0.502,0.714-0.527,1.38-0.572
	c1.408-0.094,2.758-0.423,4.059-0.983c0.755-0.325,1.471-0.685,1.922-1.458c0.154-0.265,0.427-0.479,0.685-0.652
	c0.802-0.538,1.665-0.917,2.624-1.075c0.756-0.125,1.498-0.336,2.249-0.495c0.37-0.078,0.7-0.184,0.825-0.609
	c0.107-0.363,0.392-0.48,0.722-0.537c0.507-0.087,0.991-0.054,1.436,0.241c0.662,0.44,1.411,0.672,2.171,0.736
	c1.167,0.098,2.344,0.087,3.517,0.098c1.22,0.01,2.44-0.038,3.659-0.001c0.533,0.016,1.073,0.135,1.59,0.281
	c1.444,0.407,2.907,0.601,4.403,0.608c0.672,0.004,1.228-0.111,1.643-0.732c0.316-0.475,0.771-0.781,1.381-0.732
	c0.468,0.037,0.879-0.146,1.291-0.353c0.446-0.224,0.904-0.423,1.366-0.611c0.726-0.295,1.342-0.697,1.795-1.399
	c0.727-1.124,1.843-1.434,3.085-1.31c0.808,0.081,1.61,0.222,2.412,0.349c1.478,0.233,2.948,0.356,4.443,0.073
	c0.562-0.107,1.167-0.005,1.749,0.043c0.448,0.036,0.896,0.115,1.336,0.213c0.674,0.151,1.323,0.252,1.949-0.194
	c0.17-0.121,0.434-0.104,0.654-0.149c1.005-0.207,2.051-0.247,2.944-0.882c0.203-0.144,0.515-0.152,0.78-0.169
	c0.414-0.027,0.645,0.368,0.452,0.767c-0.098,0.203-0.227,0.4-0.378,0.563c-0.323,0.347-0.735,0.52-1.193,0.606
	c-1.196,0.226-2.396,0.435-3.582,0.712c-0.856,0.2-1.681,0.241-2.537-0.001c-0.428-0.121-0.893-0.146-1.34-0.145
	c-1.127,0.002-2.254,0.063-3.38,0.063c-0.72,0-1.474,0.059-2.152-0.136c-0.812-0.233-1.607-0.164-2.413-0.205
	c-0.442-0.024-0.792,0.165-1.121,0.404c-0.255,0.185-0.448,0.459-0.697,0.654c-0.644,0.505-1.253,1.103-1.972,1.453
	c-0.886,0.431-1.862,0.675-2.813,0.949c-0.447,0.129-0.867,0.276-1.169,0.644c-0.729,0.886-1.655,1.008-2.694,0.815
	c-0.483-0.09-0.986-0.168-1.47-0.129c-0.921,0.075-1.798-0.071-2.658-0.379c-0.688-0.247-1.392-0.317-2.116-0.38
	c-1.309-0.114-2.597,0.106-3.894,0.138c-1.448,0.035-2.886,0.032-4.29-0.382c-0.559-0.165-1.105-0.38-1.617-0.558
	c-0.393,0.23-0.723,0.507-1.1,0.625c-0.944,0.296-1.905,0.541-2.868,0.765c-0.853,0.199-1.672,0.509-2.285,1.136
	c-1.325,1.354-2.91,2.165-4.687,2.641c-0.244,0.065-0.476,0.176-0.779,0.291c0.458,0.378,0.886,0.454,1.332,0.502
	c0.941,0.1,1.881,0.208,2.82,0.333c0.806,0.108,1.541,0.118,2.336-0.301c0.792-0.418,1.656-0.689,2.437-1.18
	c0.688-0.433,1.462-0.622,2.323-0.561c1.391,0.1,2.793,0.03,4.188,0.079c0.392,0.014,0.796,0.15,1.157,0.318
	c0.138,0.064,0.167,0.373,0.247,0.574c-1.474,0.547-1.475,0.55-2.823,0.423c-0.538-0.051-1.073-0.133-1.611-0.175
	c-1.09-0.086-2.134-0.003-3.002,1.013c1.399,0.053,2.693,0.15,3.98-0.177c0.566-0.144,1.151-0.223,1.731-0.303
	c2.772-0.383,5.511-0.959,8.228-1.622c2.325-0.567,4.612-1.297,6.918-1.944c1.651-0.463,3.26-1.058,4.947-1.412
	c2.834-0.594,5.677-1.055,8.566-1.171c1.583-0.064,3.146-0.257,4.7-0.561c1.152-0.225,2.314-0.396,3.469-0.608
	c1.475-0.271,2.902-0.662,4.074-1.715c0.269-0.242,0.593-0.424,0.906-0.609c1.88-1.108,3.463-2.515,4.395-4.587
	c0.019-0.042,0.053-0.076,0.074-0.117c0.801-1.55,1.84-3.017,1.626-4.924c-0.005-0.045,0.006-0.093,0.016-0.138
	c0.37-1.584,0.266-3.108-0.338-4.638c-0.514-1.303-0.972-2.606-2.094-3.51c-0.139-0.112-0.263-0.261-0.353-0.418
	c-0.67-1.164-1.635-1.884-2.863-2.395c-1.238-0.515-2.472-0.741-3.79-0.758c-1.486-0.02-2.971-0.151-4.457-0.236
	c-0.09-0.005-0.181-0.016-0.268-0.043c-0.926-0.287-1.878-0.263-2.824-0.227c-1.256,0.049-2.505,0.275-3.769,0.159
	c-0.13-0.012-0.265,0.053-0.4,0.072c-1.583,0.213-3.049,0.804-4.47,1.517c-0.621,0.312-1.253,0.576-1.942,0.524
	c-1.62-0.123-3.145,0.34-4.635,0.852c-0.874,0.3-1.667,0.886-2.45,1.416c-0.273,0.186-0.414,0.587-0.599,0.901
	c-0.068,0.116-0.09,0.262-0.129,0.395c-0.32,1.097-1.072,1.706-2.126,1.91c-0.704,0.136-1.425,0.197-2.141,0.255
	c-0.718,0.058-1.459-0.01-2.13,0.311c-1.154,0.552-2.375,0.864-3.604,1.165c-0.344,0.085-0.708,0.207-0.99,0.416
	c-1.101,0.817-2.26,1.523-3.514,2.048c-0.155,0.308-0.267,0.623-0.459,0.873c-0.121,0.159-0.36,0.303-0.551,0.308
	c-0.294,0.008-0.486-0.239-0.545-0.533c-0.119-0.59-0.016-1.083,0.529-1.448c1.132-0.759,2.236-1.562,3.36-2.333
	c0.223-0.153,0.478-0.274,0.734-0.35c0.734-0.219,1.488-0.372,2.213-0.619c0.681-0.232,1.376-0.479,1.987-0.852
	c0.58-0.354,1.145-0.464,1.799-0.446c0.808,0.023,1.619-0.061,2.429-0.089c0.712-0.024,1.166-0.443,1.505-1.032
	c0.207-0.36,0.374-0.745,0.585-1.102c0.162-0.274,0.317-0.593,0.56-0.769c0.736-0.535,1.458-1.159,2.284-1.478
	c1.638-0.632,3.306-1.228,5.108-1.197c0.819,0.015,1.582-0.245,2.343-0.596c1.951-0.902,3.991-1.428,6.161-1.381
	c1.074,0.024,2.156,0.133,3.23-0.096c0.348-0.074,0.722-0.067,1.078-0.037c2.151,0.182,4.3,0.381,6.415,0.571
	C64.521,5.338,64.861,5.056,65.268,4.719z M67.429,5.732c0.597,0.254,1.141,0.467,1.669,0.716c0.711,0.335,1.274,0.857,1.776,1.477
	c0.635,0.785,1.318,1.528,1.98,2.289c0.12,0.139,0.271,0.262,0.354,0.421c0.983,1.896,1.842,3.834,1.789,6.054
	c-0.009,0.369-0.07,0.738-0.108,1.106c-0.034,0.324-0.152,0.665-0.091,0.967c0.26,1.271-0.16,2.408-0.664,3.494
	c-0.601,1.296-1.29,2.553-2.004,3.788c-0.559,0.967-1.309,1.77-2.249,2.382c-1.181,0.769-2.308,1.632-3.517,2.349
	c-0.693,0.412-1.48,0.717-2.262,0.896c-2.331,0.533-4.664,1.081-7.044,1.332c-1.835,0.194-3.68,0.284-5.517,0.457
	c-2.291,0.217-4.549,0.64-6.791,1.18c-2.283,0.55-4.479,1.405-6.746,2.004c-1.704,0.45-3.405,0.911-5.12,1.315
	c-1.802,0.425-3.608,0.852-5.43,1.163c-2.135,0.364-4.286,0.802-6.437,0.843c-2.291,0.044-4.601,0.092-6.9-0.208
	c-2.063-0.269-4.116-0.534-6.112-1.167c-0.555-0.176-1.146-0.23-1.717-0.357c-1.751-0.389-2.94-1.588-3.897-3.031
	c-0.503-0.759-0.831-1.646-1.205-2.491c-0.318-0.719-0.592-1.459-0.874-2.195c-0.234-0.611-0.354-1.234-0.305-1.908
	c0.075-1.017,0.031-2.036,0.461-3.008c0.773-1.749,1.636-3.412,3.209-4.562c0.399-0.291,0.749-0.657,1.099-1.012
	c0.976-0.987,2.133-1.69,3.313-2.386c1.965-1.158,4.034-2.067,6.1-3.004c3.136-1.422,6.302-2.817,9.119-4.862
	c1.471-1.068,2.804-2.337,4.208-3.503c0.982-0.816,1.974-1.621,2.976-2.411c0.247-0.195,0.538-0.352,0.831-0.464
	c1.898-0.728,3.724-1.675,5.757-1.989c0.668-0.103,1.33-0.263,2-0.344c2.779-0.337,5.563-0.637,8.341-0.985
	c1.536-0.192,3.063,0.029,4.594,0.016c0.857-0.007,1.716-0.032,2.573,0.001c0.809,0.031,1.614,0.138,2.422,0.194
	c2.129,0.146,4.124,0.921,6.178,1.413c0.698,0.167,1.396,0.401,2.04,0.719c0.646,0.32,1.214,0.794,1.614,1.439
	C67.204,4.438,67.598,5.001,67.429,5.732z M64.998,20.429c0.032,0.728-0.304,1.079-0.83,1.209c-0.719,0.177-1.177,0.599-1.512,1.22
	c-0.198,0.368-0.524,0.597-0.986,0.618c-0.266,0.012-0.526,0.128-0.793,0.148c-1.08,0.082-2.106,0.177-3.069-0.632
	c-0.625-0.525-1.53-0.755-2.338-1.045c-0.68-0.245-1.397-0.392-2.102-0.571c-0.553-0.14-1.102-0.078-1.577,0.221
	c-0.624,0.392-1.332,0.546-2.002,0.81c-0.881,0.347-1.72,0.807-2.542,1.277c-0.897,0.512-1.75,1.097-2.631,1.637
	c-0.345,0.212-0.704,0.41-1.075,0.574c-0.661,0.294-1.399,0.469-1.989,0.86c-0.549,0.364-0.91,0.988-1.422,1.42
	c-1.455,1.226-3.132,1.56-4.947,0.944c-1.241-0.42-2.442-0.952-3.668-1.415c-0.334-0.126-0.694-0.252-1.044-0.259
	c-1.335-0.026-2.587-0.389-3.844-0.774c-0.513-0.157-1.068-0.296-1.596-0.273c-1.45,0.065-2.797-0.306-4.093-0.848
	c-0.685-0.287-1.276-0.268-1.957-0.039c-1.045,0.351-2.029,0.76-2.826,1.544c-0.388,0.382-0.538,0.768-0.458,1.312
	c0.152,1.024-0.04,1.309-1.002,1.744c-0.165,0.075-0.329,0.164-0.504,0.203c-0.97,0.216-1.718,0.782-2.426,1.426
	c-0.228,0.207-0.483,0.461-0.765,0.523c-1.327,0.292-2.538,1.005-3.932,1.038c-0.454,0.011-0.742,0.287-1.055,0.547
	c-0.234,0.195-0.493,0.192-0.751,0.021c-0.27-0.179-0.299-0.45-0.228-0.711c0.154-0.559,0.492-0.991,1.131-0.984
	c1.359,0.014,2.53-0.711,3.837-0.899c0.235-0.034,0.493-0.249,0.645-0.449c0.807-1.065,1.907-1.619,3.207-1.854
	c0.088-0.016,0.174-0.052,0.256-0.087c0.038-0.016,0.066-0.055,0.168-0.142c0.014-0.286,0.032-0.634,0.047-0.982
	c0.03-0.703,0.283-1.292,0.871-1.732c0.325-0.243,0.636-0.509,0.927-0.789c0.405-0.389,0.898-0.591,1.43-0.743
	c0.476-0.136,0.943-0.305,1.41-0.467c0.63-0.219,1.239-0.177,1.862,0.055c0.849,0.316,1.705,0.622,2.576,0.872
	c0.471,0.135,0.998,0.256,1.469,0.185c0.661-0.099,1.269-0.024,1.868,0.191c1.418,0.509,2.874,0.808,4.379,0.95
	c1.14,0.108,2.188,0.571,3.235,1.013c0.539,0.228,1.11,0.385,1.665,0.58c1.28,0.451,2.31-0.071,3.271-0.815
	c0.319-0.247,0.672-0.517,0.853-0.856c0.315-0.591,0.845-0.812,1.42-0.921c0.516-0.097,0.941-0.272,1.302-0.645
	c0.152-0.156,0.365-0.274,0.571-0.36c1.224-0.515,2.242-1.352,3.36-2.032c0.344-0.208,0.715-0.378,1.086-0.535
	c0.832-0.353,1.719-0.609,2.499-1.048c1.505-0.847,3.03-0.808,4.608-0.327c1.218,0.371,2.396,0.801,3.394,1.638
	c0.608,0.511,1.354,0.718,2.17,0.407c0.251-0.096,0.525-0.136,0.818-0.21C62.141,20.819,63.432,20.458,64.998,20.429z
	 M43.666,14.154c-0.233,0.916-1.313,0.866-1.92,1.418c0.23,0.582,0.448,1.13,0.666,1.681c-0.37,0.803-0.706,1.596-1.096,2.363
	c-0.368,0.729-0.823,0.944-1.644,0.793c-1.723-0.315-3.447-0.629-5.158-1c-0.58-0.126-1.143-0.203-1.735-0.19
	c-0.676,0.015-1.353,0.001-2.028-0.033c-0.211-0.01-0.45-0.087-0.612-0.21c-0.11-0.083-0.147-0.303-0.138-0.458
	c0.005-0.098,0.138-0.243,0.242-0.272c0.255-0.07,0.527-0.103,0.794-0.121c1.584-0.102,3.143,0.004,4.693,0.381
	c1.13,0.275,2.294,0.426,3.445,0.622c0.173,0.03,0.357,0.004,0.606,0.004c0.437-0.628,0.88-1.267,1.355-1.951
	c-0.143-0.269-0.279-0.531-0.422-0.79c-0.145-0.264-0.334-0.513-0.438-0.791c-0.177-0.48-0.014-0.828,0.464-1.07
	c0.238-0.121,0.485-0.264,0.743-0.301c0.723-0.104,1.101-0.525,1.24-1.144c0.98-0.2,1.904-0.372,2.82-0.581
	c0.565-0.129,1.116-0.317,1.674-0.477c0.738-0.212,1.464-0.303,2.256-0.19c1.062,0.153,2.107,0.482,3.21,0.38
	c0.235-0.022,0.508,0.129,0.731,0.252c0.189,0.105,0.353,0.271,0.491,0.438c0.776,0.942,1.803,1.055,2.929,0.807
	c0.204-0.045,0.448-0.147,0.563-0.3c0.465-0.613,1.035-0.559,1.684-0.35c0.638,0.206,1.303,0.334,1.939,0.544
	c0.452,0.149,0.875,0.082,1.411,0.045c-0.113-0.347-0.201-0.62-0.29-0.893c-0.284-0.861-0.146-1.266,0.625-1.738
	c0.564-0.345,1.1-0.761,1.847-0.69c0.161,0.015,0.343-0.086,0.504-0.157c0.973-0.431,1.733-0.013,2.47,0.54
	c0.688,0.517,1.068,1.151,0.923,2.013c-0.05,0.296-0.012,0.625-0.135,0.888c-0.334,0.718-0.139,1.341,0.263,1.952
	c0.471,0.716,0.467,1.397,0.073,2.185c-0.38,0.76-0.647,1.605-0.766,2.438c-0.073,0.514,0.205,1.08,0.366,1.612
	c0.072,0.241,0.28,0.445,0.351,0.685c0.037,0.124-0.091,0.293-0.169,0.509c-1.159-0.29-1.664-1.082-1.929-2.004
	c-0.137-0.479-0.137-1.046-0.013-1.53c0.242-0.946,0.398-1.934,0.986-2.774c0.072-0.103,0.103-0.233,0.178-0.409
	c-0.135-0.235-0.291-0.49-0.429-0.753c-0.438-0.833-0.661-1.678-0.277-2.603c0.129-0.309,0.123-0.668,0.191-1.082
	c-0.37-0.229-0.734-0.455-1.093-0.678c-0.981,0.368-1.888,0.707-2.742,1.027c-0.177,0.768,0.446,1.431-0.009,2.098
	c-1.256,0.425-2.235,0.422-4.594-0.033c-0.663,0.608-1.571,0.486-2.455,0.602c-0.827,0.109-1.499-0.033-2.182-0.367
	c-0.235-0.115-0.458-0.279-0.638-0.464c-0.433-0.445-0.969-0.562-1.58-0.599c-0.759-0.046-1.525-0.123-2.264-0.288
	c-0.604-0.135-1.17-0.14-1.709,0.114c-0.827,0.389-1.715,0.494-2.608,0.609C44.794,13.934,44.268,14.048,43.666,14.154z
	 M10.329,22.232c0.192-0.311,0.309-0.489,0.413-0.672c0.164-0.288,0.448-0.422,0.785-0.481c0.707-0.124,1.392-0.119,2.086,0.126
	c0.798,0.281,1.618,0.401,2.493,0.174c0.815-0.212,0.879-0.128,0.894,0.811c-0.239,0.059-0.494,0.146-0.758,0.184
	c-1.121,0.16-2.236,0.201-3.339-0.138c-0.199-0.061-0.469-0.011-0.685,0.047c-1.036,0.279-2.091,0.52-3.086,0.889
	c-0.773,0.287-1.501,0.699-2.181,1.136c-0.595,0.383-1.167,0.808-1.588,1.374c-0.13,0.175-0.468,0.267-0.731,0.313
	c-0.138,0.025-0.409-0.097-0.463-0.211c-0.203-0.433-0.288-0.888,0.124-1.285c0.159-0.153,0.33-0.297,0.504-0.437
	c0.879-0.711,1.935-1.184,2.966-1.685C8.541,21.999,9.383,21.985,10.329,22.232z"/>
<path id="date-2" class="st0" d="M160.977,59.39c0.42-0.514,0.838-0.959,1.178-1.455c0.81-1.183,1.281-2.502,1.433-3.919
	c0.068-0.635-0.468-0.981-1.052-0.709c-0.2,0.093-0.414,0.197-0.56,0.352c-0.691,0.734-1.148,1.588-0.976,2.613
	c0.077,0.456,0.028,0.865-0.058,1.296c-0.094,0.472-0.172,0.949-0.224,1.427C160.707,59.091,160.848,59.202,160.977,59.39z
	 M124.49,75.698c0.287-0.029,0.591-0.096,0.893-0.085c1.85,0.067,3.666-0.296,5.5-0.424c0.266-0.019,0.532-0.097,0.788-0.177
	c1.638-0.511,3.334-0.767,5.031-0.887c1.811-0.129,3.523-0.592,5.288-1.116c0.234,0.145,0.493,0.305,0.818,0.506
	c0.45-0.196,0.951-0.388,1.427-0.627c2.045-1.028,3.97-2.251,5.88-3.505c1.642-1.078,3.335-2.081,5.003-3.12
	c0.304-0.189,0.628-0.363,0.888-0.603c1.443-1.331,2.877-2.672,3.92-4.354c0.267-0.432,0.394-0.833,0.155-1.364
	c-0.443-0.989-0.563-2.026-0.135-3.077c0.078-0.194,0.025-0.437,0.048-0.657c0.063-0.615,0.081-1.24,0.213-1.841
	c0.205-0.937,0.783-1.654,1.579-2.193c0.351-0.237,0.741-0.294,1.159-0.168c0.199,0.06,0.412,0.076,0.68,0.122
	c0.042-0.742,0.067-1.397,0.122-2.049c0.04-0.484,0.041-0.99,0.196-1.44c0.335-0.972,0.039-1.738-0.652-2.406
	c-0.897-0.866-1.866-1.642-2.923-2.32c-0.64-0.411-1.306-0.536-2.035-0.515c-0.629,0.017-1.259,0.045-1.887,0.035
	c-1.392-0.024-2.789-0.012-4.174-0.124c-1.38-0.111-2.767-0.157-4.114-0.617c-1.736-0.592-3.515-1.065-5.288-1.546
	c-1.425-0.387-2.868-0.706-4.301-1.062c-1.175-0.293-2.346-0.601-3.522-0.894c-0.171-0.043-0.356-0.03-0.532-0.056
	c-1.909-0.284-3.841-0.135-5.764-0.36c-1.994-0.233-4.023-0.039-6.02,0.369c-2.144,0.438-4.283,0.896-6.244,1.872
	c-1.457,0.725-2.996,1.123-4.569,1.443c-1.186,0.241-2.384,0.423-3.573,0.655c-0.921,0.18-1.827,0.479-2.756,0.576
	c-1.201,0.126-2.389,0.284-3.564,0.557c-0.784,0.182-1.594,0.275-2.36,0.509c-1.285,0.393-2.637,0.522-3.893,1.04
	c-1.032,0.426-2.119,0.722-3.255,0.729c-1.225,0.008-2.367,0.476-3.57,0.603c-0.475,0.05-0.897,0.238-1.118,0.646
	c-0.311,0.573-0.562,1.181-0.798,1.788c-0.272,0.696-0.444,1.433-0.756,2.109c-0.731,1.579-1.238,3.219-1.546,4.922
	c-0.065,0.361-0.179,0.679-0.471,0.928c-0.196,0.168-0.366,0.368-0.525,0.53c0.06,0.205,0.075,0.343,0.138,0.455
	c0.399,0.712,0.624,1.452,0.543,2.284c-0.068,0.698-0.049,1.404-0.094,2.104c-0.107,1.657,0.48,3.216,0.697,4.827
	c0.033,0.247,0.247,0.468,0.363,0.708c0.309,0.64,0.673,1.263,0.895,1.932c0.223,0.674,0.615,1.172,1.185,1.557
	c1.373,0.924,2.702,1.9,3.888,3.054c0.732,0.713,1.633,1.06,2.636,1.223c0.796,0.129,1.614,0.237,2.366,0.506
	c1.446,0.519,2.941,0.806,4.44,1.093c2.21,0.423,4.437,0.664,6.691,0.725c2.651,0.072,5.31,0.113,7.948,0.355
	c1.978,0.18,3.948,0.181,5.924,0.208c0.627,0.009,1.255-0.084,1.882-0.139c0.626-0.055,1.253-0.115,1.877-0.184
	c1.114-0.123,2.233-0.221,3.34-0.392c1.73-0.267,3.444-0.585,5.134-1.085c1.422-0.421,2.815-0.891,4.179-1.458
	c0.187-0.078,0.435-0.123,0.426-0.469c-0.993,0.065-1.977,0.168-2.961,0.182c-0.778,0.011-1.502,0.177-2.233,0.41
	c-0.637,0.203-1.295,0.385-1.957,0.467c-1.111,0.137-2.233,0.177-3.35,0.279c-0.397,0.037-0.786,0.174-1.183,0.199
	c-0.486,0.032-0.985,0.048-1.463-0.026C124.511,76.783,124.4,76.497,124.49,75.698z M83.715,55.573
	c0.033-0.39,0.081-0.698,0.08-1.006c-0.003-0.638,0.213-1.211,0.456-1.79c0.376-0.898,0.725-1.808,1.057-2.723
	c0.392-1.083,0.821-2.144,1.396-3.152c0.417-0.731,1.009-1.067,1.831-1.168c1.647-0.204,3.288-0.453,4.93-0.689
	c0.266-0.038,0.545-0.063,0.788-0.163c1.915-0.79,3.938-1.226,5.935-1.732c1.476-0.374,2.992-0.6,4.493-0.875
	c1.414-0.259,2.833-0.488,4.247-0.746c1.72-0.314,3.423-0.697,5.081-1.26c0.424-0.145,0.862-0.26,1.268-0.444
	c1.473-0.67,3.008-1.171,4.567-1.585c0.994-0.264,2.02-0.456,3.045-0.561c1.74-0.178,3.49-0.348,5.237-0.359
	c1.474-0.009,2.947,0.237,4.423,0.326c1.524,0.092,3.027,0.336,4.511,0.646c3.337,0.697,6.645,1.509,9.888,2.571
	c1.656,0.542,3.339,1.01,5.139,0.909c0.886-0.049,1.784,0.172,2.679,0.203c1.524,0.053,3.049,0.076,4.574,0.064
	c0.798-0.006,1.558,0.153,2.154,0.632c1.144,0.919,2.24,1.898,3.287,2.929c0.966,0.951,1.071,2.133,0.796,3.333
	c-0.199,0.871-0.388,1.7-0.248,2.609c0.085,0.554-0.099,1.143-0.109,1.716c-0.014,0.795-0.111,1.576-0.194,2.363
	c-0.093,0.886-0.407,1.625-0.868,2.332c-0.583,0.893-1.22,1.75-1.822,2.63c-0.448,0.657-0.864,1.336-1.323,1.985
	c-0.28,0.396-0.612,0.755-0.923,1.129c-0.169,0.203-0.375,0.383-0.512,0.604c-0.974,1.564-2.428,2.606-4.005,3.467
	c-1.417,0.772-2.773,1.624-4.077,2.558c-2.071,1.485-4.182,2.906-6.535,3.922c-2.303,0.993-4.546,2.111-6.84,3.117
	c-1.306,0.572-2.693,0.974-4.057,1.412c-3.055,0.981-6.235,1.252-9.404,1.609c-1.295,0.146-2.581,0.295-3.886,0.318
	c-1.532,0.027-3.054-0.015-4.568-0.264c-0.569-0.093-1.146-0.142-1.721-0.192c-1.877-0.162-3.755-0.321-5.634-0.466
	c-0.357-0.028-0.718,0.021-1.077,0.02c-2.744-0.005-5.467-0.185-8.138-0.877c-0.6-0.155-1.229-0.198-1.845-0.292
	c-1.377-0.212-2.66-0.769-4.044-1c-1.472-0.245-2.8-0.904-3.864-2.028c-0.514-0.544-1.169-0.958-1.764-1.427
	c-0.735-0.579-1.491-1.133-2.203-1.738c-0.443-0.377-0.793-0.84-0.913-1.44c-0.15-0.745-0.462-1.43-0.898-2.054
	c-0.447-0.641-0.627-1.363-0.728-2.117c-0.094-0.701-0.224-1.399-0.287-2.103c-0.051-0.569-0.051-1.145-0.029-1.716
	c0.025-0.62,0.123-1.236,0.153-1.856c0.039-0.811-0.095-1.568-0.581-2.273c-0.791-1.145-0.625-2.01,0.465-2.869
	C83.268,55.87,83.457,55.753,83.715,55.573z M100.694,55.503c0.207-0.514,0.508-0.728,0.863-0.8c0.822-0.167,1.479-0.642,2.18-1.026
	c0.325-0.178,0.626-0.288,0.995-0.339c0.577-0.081,1.168-0.189,1.706-0.396c1.208-0.467,2.443-0.582,3.722-0.448
	c0.853,0.089,1.708,0.209,2.563,0.219c0.717,0.008,1.436-0.119,2.154-0.192c0.803-0.082,1.603-0.092,2.395-0.356
	c1.001-0.333,1.916-0.778,2.721-1.414c0.842-0.666,1.846-0.911,2.869-1.051c0.844-0.117,1.711-0.087,2.568-0.092
	c1.131-0.007,2.262,0.009,3.393,0.03c0.404,0.008,0.826-0.002,1.208,0.102c1.339,0.364,2.691,0.254,4.046,0.187
	c0.538-0.027,1.08-0.092,1.614-0.06c1.531,0.093,3.071,0.028,4.594,0.287c0.619,0.105,1.269,0.135,1.895,0.087
	c1.329-0.102,2.604,0.133,3.88,0.421c0.351,0.079,0.714,0.142,1.073,0.149c1.899,0.04,3.79,0.17,5.672,0.422
	c0.267,0.036,0.542,0.019,0.813,0.02c0.633,0.003,1.31,0.138,1.886-0.035c0.569-0.17,1.104-0.589,1.535-1.011
	c0.686-0.673,1.558-0.835,2.437-0.993c0.423-0.076,0.867-0.11,0.902-0.596c0.029-0.408-0.435-0.502-0.717-0.695
	c-0.107-0.073-0.244-0.118-0.374-0.149c-1.046-0.25-2.087-0.522-3.142-0.73c-1.111-0.218-2.184-0.251-3.312,0.18
	c-1.386,0.529-2.916,0.617-4.4,0.592c-1.865-0.031-3.681-0.364-5.233-1.495c-0.536-0.391-1.1-0.762-1.698-1.056
	c-0.949-0.468-1.914-0.945-3.049-0.761c-0.044,0.007-0.093,0.013-0.135,0.002c-1.408-0.372-2.763,0.05-4.141,0.222
	c-0.8,0.1-1.619,0.09-2.429,0.087c-0.597-0.003-1.169,0.075-1.728,0.271c-0.339,0.119-0.678,0.245-1.024,0.345
	c-0.894,0.26-1.741,0.733-2.731,0.579c-1.898,0.334-3.817,0.55-5.699,0.98c-0.693,0.158-1.437,0.138-2.159,0.147
	c-1.398,0.016-2.798-0.008-4.197-0.012c-0.948-0.003-1.899,0.032-2.846-0.008c-0.626-0.027-1.261-0.102-1.865-0.255
	c-0.758-0.19-1.523-0.199-2.284-0.193c-1.804,0.013-3.604,0.112-5.403-0.183c-0.557-0.091-1.16,0.084-1.812,0.144
	c-0.18,0.19-0.375,0.428-0.603,0.63c-0.668,0.592-1.083,1.267-0.884,2.181c0.016,0.073-0.046,0.163-0.081,0.242
	c-0.017,0.039-0.053,0.07-0.081,0.104c-1.124-0.151-1.615-0.796-1.211-1.772c0.419-1.013,1.073-1.898,2.05-2.519
	c0.468-0.298,0.96-0.418,1.54-0.358c1.347,0.139,2.7,0.24,4.053,0.317c0.584,0.033,1.176-0.003,1.759-0.057
	c1.045-0.096,2.081-0.015,3.097,0.184c0.676,0.132,1.343,0.16,2.021,0.143c2.033-0.049,4.066-0.136,6.1-0.148
	c1.319-0.008,2.608-0.151,3.904-0.374c1.063-0.183,2.151-0.232,3.229-0.336c0.992-0.095,1.988-0.195,2.902-0.604
	c1.548-0.693,3.189-0.937,4.872-0.987c0.451-0.013,0.898,0.032,1.327-0.166c0.157-0.073,0.355-0.105,0.53-0.094
	c1.841,0.113,3.688-0.193,5.532,0.156c0.908,0.172,1.726,0.445,2.493,0.935c0.824,0.526,1.662,1.041,2.537,1.481
	c1.489,0.748,3.097,0.877,4.743,0.669c0.267-0.034,0.53-0.155,0.793-0.15c1.024,0.019,1.979-0.2,2.847-0.715
	c0.56-0.331,1.154-0.282,1.704-0.108c2.057,0.649,4.221,0.982,6.178,1.929c0.316,0.153,0.694,0.186,1.034,0.299
	c0.313,0.104,0.555,0.291,0.605,0.636c0.05,0.338-0.081,0.577-0.386,0.761c-0.302,0.182-0.586,0.394-0.868,0.606
	c-0.748,0.562-1.494,1.05-2.51,1.16c-0.635,0.069-1.271,0.424-1.671,1.005c-0.492,0.713-1.188,0.939-2.08,0.979
	c-1.64,0.074-3.246-0.224-4.872-0.261c-0.271-0.006-0.543-0.058-0.812-0.047c-1.503,0.062-2.974-0.181-4.448-0.409
	c-0.223-0.035-0.448-0.104-0.669-0.092c-1.723,0.094-3.418-0.244-5.131-0.296c-1.217-0.037-2.432-0.163-3.65-0.204
	c-0.945-0.031-1.894,0.037-2.84,0.009c-1.174-0.034-2.346-0.115-3.518-0.186c-0.945-0.057-1.885-0.196-2.833,0.019
	c-0.298,0.067-0.627,0.011-0.942,0.004c-0.764-0.016-1.528-0.064-2.291-0.048c-0.639,0.013-1.239,0.188-1.796,0.518
	c-0.723,0.428-1.486,0.789-2.207,1.229c-0.961,0.587-2.071,0.838-3.204,0.958c-0.224,0.024-0.463-0.032-0.677,0.02
	c-1.877,0.459-3.756,0.291-5.642,0.067c-0.576-0.069-1.151-0.031-1.74,0.129c-1.08,0.294-2.204,0.441-3.286,0.73
	c-0.461,0.123-0.904,0.402-1.283,0.695c-0.668,0.516-1.344,0.674-2.133,0.302C101.271,55.687,101.02,55.62,100.694,55.503z
	 M157.711,58.158c0.187,0.693,0.334,1.312,0.276,1.975c-0.056,0.645-0.314,1.216-0.823,1.528c-1.129,0.693-2.015,1.682-3.031,2.51
	c-0.79,0.645-1.641,1.105-2.608,1.373c-2.599,0.722-5.123,1.67-7.618,2.707c-0.291,0.121-0.609,0.2-0.868,0.372
	c-1.694,1.123-3.646,1.506-5.527,2.094c-0.618,0.194-1.223,0.202-1.862,0.128c-1.113-0.128-2.234-0.181-3.352-0.257
	c-0.222-0.015-0.453-0.022-0.671,0.017c-2.265,0.401-4.562,0.068-6.833,0.32c-0.561,0.062-1.067-0.125-1.562-0.345
	c-0.411-0.183-0.797-0.424-1.203-0.622c-0.198-0.097-0.41-0.194-0.624-0.222c-0.892-0.116-1.249,0.184-1.343,1.104
	c-0.042,0.414-0.059,0.83-0.104,1.243c-0.072,0.674-0.476,1.046-1.053,1.319c-1.218,0.577-2.508,0.587-3.802,0.598
	c-0.269,0.002-0.538-0.03-0.808-0.035c-2.153-0.041-2.149-0.051-4.136-0.881c-0.917-0.382-1.543-0.943-1.461-2.066
	c0.01-0.132-0.045-0.27-0.079-0.402c-0.011-0.041-0.05-0.074-0.13-0.188c-0.149-0.024-0.362-0.078-0.579-0.091
	c-0.725-0.045-1.39-0.232-2.059-0.565c-0.746-0.373-1.549-0.67-2.438-0.425c-0.47,0.13-0.973,0.129-1.528,0.196
	c-0.143,0.587-0.346,1.152-0.405,1.732c-0.062,0.602-0.362,1.039-0.699,1.47c-0.603,0.768-1.267,0.941-2.136,0.439
	c-0.78-0.451-1.651-0.341-2.464-0.567c-0.231-0.065-0.521,0.099-0.785,0.158c-0.395,0.088-0.79,0.173-1.184,0.264
	c-1.105,0.252-2.01-0.306-2.926-0.789c-0.275-0.145-0.356-0.573-0.227-0.866c0.135-0.306,0.405-0.372,0.675-0.328
	c0.258,0.042,0.508,0.158,0.752,0.263c0.727,0.314,1.473,0.477,2.223,0.139c0.887-0.401,1.775-0.209,2.639-0.007
	c0.643,0.15,1.333,0.162,1.915,0.589c0.254,0.186,0.652,0.015,0.797-0.292c0.135-0.287,0.219-0.603,0.299-0.914
	c0.174-0.671,0.321-1.351,0.496-2.022c0.156-0.6,0.546-0.971,1.148-0.998c1.073-0.048,2.155-0.122,3.186,0.305
	c1.123,0.466,2.248,0.907,3.447,1.146c0.652,0.13,1.118,0.572,1.283,1.284c0.072,0.312,0.167,0.619,0.25,0.921
	c0.704,0.563,1.518,0.748,2.371,0.893c1.565,0.266,3.136,0.168,4.706,0.185c0.559,0.005,1.014-0.307,1.524-0.544
	c0.021-0.358,0.029-0.677,0.06-0.994c0.036-0.368,0.031-0.755,0.148-1.096c0.462-1.354,1.425-2.163,2.95-1.465
	c1.526,0.699,3.031,1.077,4.68,0.907c0.443-0.046,0.892-0.039,1.337-0.076c0.712-0.058,1.418-0.236,2.133,0.029
	c0.2,0.074,0.444,0.043,0.665,0.029c1.075-0.07,2.148-0.181,3.224-0.213c0.531-0.016,1.071,0.071,1.595,0.176
	c0.587,0.116,1.144,0.124,1.723-0.072c0.552-0.187,1.131-0.291,1.699-0.43c0.921-0.226,1.824-0.507,2.595-1.1
	c0.922-0.709,2.043-0.946,3.079-1.364c1.754-0.706,3.556-1.283,5.341-1.905c0.296-0.103,0.604-0.201,0.912-0.228
	c1.087-0.098,1.927-0.644,2.699-1.403c0.516-0.507,1.128-0.909,1.695-1.36c0.426-0.338,0.865-0.661,1.263-1.03
	c0.09-0.084,0.101-0.391,0.023-0.494c-0.082-0.109-0.312-0.114-0.481-0.131c-0.079-0.008-0.17,0.053-0.245,0.099
	c-0.076,0.047-0.146,0.109-0.209,0.175c-0.756,0.792-2.001,0.504-2.745,1.361c-0.705,0.811-1.772,0.817-2.688,1.157
	c-1.055,0.392-2.119,0.757-3.172,1.157c-1.301,0.495-2.594,1.011-3.953,1.327c-0.651,0.151-1.308,0.315-1.93,0.56
	c-1.58,0.623-3.262,0.526-4.884,0.821c-1.902,0.346-3.637-0.152-5.391-0.722c-0.513-0.167-1.016-0.368-1.52-0.56
	c-0.927-0.354-1.848-0.666-2.855-0.763c-1.065-0.103-2.081-0.4-2.942-1.208c-0.687-0.644-1.589-0.852-2.499-0.382
	c-0.8,0.412-1.582,0.862-2.378,1.282c-0.108,0.057-0.307,0.101-0.372,0.042c-0.117-0.106-0.21-0.287-0.23-0.448
	c-0.045-0.35,0.146-0.615,0.383-0.848c0.982-0.96,2.213-1.392,3.485-1.708c0.279-0.069,0.631,0.027,0.913,0.142
	c0.413,0.17,0.836,0.373,1.181,0.656c1.176,0.964,2.506,1.418,3.992,1.364c0.437-0.016,0.776,0.168,1.144,0.338
	c0.53,0.245,1.06,0.496,1.61,0.682c0.892,0.301,1.798,0.56,2.703,0.818c0.841,0.24,1.683,0.185,2.526-0.02
	c0.302-0.073,0.621-0.149,0.924-0.122c1.423,0.126,2.761-0.293,4.096-0.675c2.466-0.706,4.859-1.646,7.277-2.504
	c0.297-0.105,0.593-0.215,0.897-0.293c0.967-0.249,1.854-0.676,2.725-1.174c1.216-0.695,2.468-1.326,3.717-1.961
	C156.279,58.064,156.915,57.832,157.711,58.158z M89.909,58.987c-0.481,0.246-0.808,0.508-0.872,1.022
	c0.336,0.732,0.336,0.732,0.883,1.236c0.699-0.538,0.97-1.236,0.664-2.149c-0.183-0.543-0.082-1.094-0.037-1.641
	c0.052-0.641,0.137-1.278,0.189-1.919c0.012-0.142,0.08-0.379-0.267-0.373C90.206,56.39,89.84,57.605,89.909,58.987z M86.169,59.039
	c1.442,1.227,2.285,2.686,2.048,4.584c0.842,1.374,1.977,1.041,2.791,0.379c0.303-0.246,0.557-0.579,0.88-0.779
	c0.969-0.596,1.382-1.563,1.586-2.688c0.164-0.902,0.367-1.794,0.127-2.731c-0.199-0.776,0.257-1.313,0.689-1.82
	c0.686-0.805,0.695-0.821,0.335-1.776c-0.127-0.338-0.265-0.679-0.336-1.034c-0.238-1.195-1-1.758-1.998-1.996
	c-0.657-0.157-1.331-0.17-1.994,0.113c-0.308,0.585-0.391,1.191-0.087,1.859c0.104,0.028,0.229,0.108,0.331,0.081
	c0.245-0.066,0.485-0.184,0.717,0.012c0.279,0.234,0.467,0.54,0.468,0.935c0.002,1.104,0.091,2.215-0.135,3.306
	c-0.124,0.598-0.17,1.195,0.025,1.772c0.34,1.007-0.075,1.783-0.59,2.534c-0.173,0.254-0.435,0.446-0.567,0.718
	c-0.271,0.565-0.676,0.615-1.244,0.486c-0.089-0.203-0.197-0.441-0.299-0.683c-0.209-0.5-0.366-1.036-0.633-1.495
	c-0.473-0.811-0.498-1.521,0.147-2.238c0.405-0.449,0.584-1.004,0.375-1.681c-0.09-0.045-0.194-0.128-0.308-0.151
	c-0.815-0.163-0.918-0.348-0.458-0.984c0.675-0.935,0.633-2.061,0.741-3.146c0.046-0.455-0.003-0.922,0.042-1.377
	c0.049-0.498,0.318-0.811,0.76-0.994c0.924-0.383,3.345-0.317,4.178,0.223c0.61,0.395,1.153,0.856,1.298,1.749
	c0.108,0.661,0.363,1.321,0.668,1.909c0.448,0.862,0.326,1.569-0.252,2.259c-0.112,0.134-0.203,0.295-0.281,0.457
	c-0.237,0.484-0.385,0.969-0.374,1.555c0.017,0.867-0.102,1.739-0.174,2.608c-0.122,1.489-0.935,2.507-1.937,3.39
	c-0.13,0.115-0.303,0.182-0.412,0.315c-0.856,1.048-1.952,1.323-3.179,1.289c-1.523-0.042-1.835-0.543-2.115-1.968
	c-0.07-0.357-0.105-0.731-0.097-1.096c0.023-1.099-0.381-1.966-1.151-2.63c-0.504-0.434-0.76-1.028-0.756-1.679
	c0.005-0.726,0.099-1.474,0.282-2.171c0.184-0.702,1.059-0.877,1.561-0.391c0.291,0.281,0.309,0.649,0.04,0.968
	c-0.194,0.23-0.488,0.415-0.575,0.683C86.185,58.09,86.214,58.525,86.169,59.039z M119,56.671c0.279-0.216,0.418-0.389,0.58-0.439
	c1.194-0.375,2.403-0.586,3.637-0.439c0.359,0.043,0.722,0.048,1.081,0.09c2.761,0.328,5.518-0.117,8.278-0.101
	c1.306,0.007,2.613-0.266,3.921-0.388c2-0.186,3.986-0.053,5.938,0.588c0.942,0.309,1.895,0.254,2.838,0.131
	c0.434-0.056,0.872-0.319,1.264-0.593c0.968-0.675,1.997-1.099,3.063-1.381c0.768-0.204,1.54-0.268,2.207,0.414
	c0.116,0.12,0.228,0.447,0.183,0.592c-0.074,0.236-0.269,0.546-0.434,0.568c-0.393,0.052-0.803-0.113-1.198-0.07
	c-0.862,0.093-1.694,0.374-2.488,0.842c-0.618,0.364-1.249,0.694-1.879,1.021c-1.082,0.561-2.203,0.585-3.336,0.362
	c-0.984-0.195-1.967-0.401-2.95-0.6c-1.674-0.34-3.341,0.021-5.01,0.088c-1.082,0.044-2.161,0.242-3.243,0.272
	c-2.217,0.06-4.435,0.056-6.653,0.069c-0.316,0.002-0.653,0.038-0.946-0.082c-1.197-0.49-2.416-0.361-3.636-0.315
	C119.726,57.319,119.726,57.316,119,56.671z M96.44,67c-0.472-0.184-0.466-0.494-0.42-0.762c0.171-0.984,0.657-1.85,1.458-2.556
	c0.402-0.354,0.929-0.544,1.517-0.462c0.761,0.108,1.47,0.016,2.138-0.323c0.463-0.235,0.977-0.225,1.486-0.206
	c1.071,0.041,2.108-0.054,3.137-0.363c1.763-0.528,3.551-0.332,5.333-0.023c1.291,0.223,2.435,0.707,3.492,1.383
	c0.594,0.379,1.237,0.699,1.85,1.058c0.187,0.11,0.357,0.247,0.509,0.393c0.151,0.144,0,0.438-0.225,0.466
	c-0.091,0.011-0.191,0.044-0.272,0.022c-1.085-0.294-2.282-0.358-3.105-1.187c-0.373-0.376-0.85-0.583-1.421-0.692
	c-0.716-0.136-1.405-0.376-2.113-0.545c-1.406-0.336-2.781-0.13-4.05,0.398c-0.796,0.331-1.575,0.449-2.408,0.372
	c-0.796-0.072-1.544-0.01-2.316,0.199c-0.653,0.177-1.36,0.234-2.048,0.274c-0.574,0.033-0.962,0.258-1.222,0.67
	c-0.267,0.423-0.476,0.874-0.752,1.291C96.858,66.634,96.621,66.816,96.44,67z"/>
</svg>
