<?xml version="1.0" encoding="utf-8"?>
<!-- Generator: Adobe Illustrator 23.0.4, SVG Export Plug-In . SVG Version: 6.00 Build 0)  -->
<svg version="1.1" id="illu_layer" xmlns="http://www.w3.org/2000/svg" xmlns:xlink="http://www.w3.org/1999/xlink" x="0px" y="0px"
	 viewBox="0 0 78 47" style="enable-background:new 0 0 78 47;" xml:space="preserve">
<style type="text/css">
	.st0{fill-rule:evenodd;clip-rule:evenodd;fill:#ECA200;}
</style>
<path id="date" class="st0" d="M75.842,18.994c-0.665,0.296-0.91,0.711-0.74,1.318c0.118,0.418,0.273,0.825,0.423,1.269
	C76.21,20.779,76.258,20.411,75.842,18.994z M54.001,34.442c0.518-0.587,1.093-0.916,1.736-1.142
	c1.457-0.512,2.923-1.002,4.373-1.534c0.465-0.17,0.948-0.376,1.323-0.684c0.945-0.776,1.887-1.57,2.725-2.453
	c0.704-0.742,1.523-1.111,2.499-1.243c0.541-0.073,1.09-0.112,1.62-0.233c0.562-0.129,1.08-0.062,1.6,0.132
	c0.716,0.267,1.434,0.529,2.133,0.786c1.342-0.891,2.003-2.242,2.758-3.52c0.252-0.425,0.343-0.893,0.354-1.509
	c-0.468,0.253-0.841,0.458-1.01,0.814c-0.227,0.477-0.645,0.728-0.985,1.08c-0.688,0.713-1.45,0.91-2.421,0.887
	c-0.703-0.017-1.209-0.286-1.723-0.644c-0.088-0.061-0.163-0.25-0.131-0.343c0.052-0.152,0.172-0.322,0.311-0.393
	c0.147-0.075,0.351-0.057,0.528-0.053c0.407,0.011,0.82,0.085,1.221,0.045c0.346-0.035,0.742-0.113,1.008-0.312
	c0.766-0.573,1.396-1.288,1.93-2.083c0.272-0.405,0.38-0.827,0.149-1.266c-0.543-1.036-0.022-1.817,0.657-2.531
	c0.27-0.285,0.656-0.462,1.044-0.725L75.4,16.404c-0.193,0.052-0.356,0.048-0.44,0.126c-0.448,0.417-0.977,0.424-1.53,0.355
	c-0.226-0.028-0.451-0.057-0.676-0.085c-1.246-0.158-2.451-0.15-3.445,0.799c-0.128,0.122-0.303,0.2-0.461,0.289
	c-0.236,0.135-0.47,0.279-0.719,0.388c-0.306,0.133-0.664-0.027-0.78-0.333c-0.091-0.237-0.019-0.434,0.196-0.578
	c0.603-0.405,1.202-0.817,1.81-1.215c0.998-0.655,2.077-0.893,3.252-0.607c0.264,0.065,0.531,0.159,0.797,0.161
	c0.212,0.001,0.524-0.052,0.621-0.194c0.553-0.808,1.262-1.592,0.852-2.693c-0.109-0.291-0.214-0.592-0.375-0.855
	c-0.511-0.837-1.043-1.663-1.582-2.483c-0.093-0.141-0.241-0.3-0.394-0.339c-0.772-0.195-1.203-0.78-1.619-1.362
	c-0.215-0.301-0.423-0.591-0.773-0.719c-0.614-0.225-1.078-0.633-1.529-1.081c-0.402-0.4-0.88-0.61-1.481-0.424
	c-0.993,0.307-1.986,0.181-2.951-0.087c-0.376-0.104-0.719-0.097-1.067-0.003c-0.965,0.26-1.923,0.545-2.885,0.82
	c-0.914,0.261-1.736,0.748-2.647,1.043c-1.067,0.345-2.089,0.877-2.867,1.764c-0.818,0.934-1.922,1.503-2.969,2.14
	c-0.039,0.023-0.08,0.044-0.122,0.06c-0.289,0.114-0.72-0.007-0.841-0.25c-0.137-0.277-0.046-0.539,0.157-0.737
	c0.157-0.154,0.363-0.266,0.558-0.377c0.955-0.549,1.795-1.216,2.452-2.111c0.206-0.281,0.507-0.54,0.822-0.688
	c1.148-0.539,2.313-1.042,3.484-1.528c0.922-0.383,1.881-0.684,2.793-1.088c1.401-0.622,2.816-0.979,4.348-0.593
	c0.302,0.076,0.631,0.082,0.945,0.072c0.187-0.005,0.371-0.103,0.557-0.16c-0.894-0.315-1.673-0.767-2.581-0.888
	c-1.435-0.192-2.851-0.535-4.291-0.678c-1.438-0.142-2.901-0.246-4.336,0.131c-1.539,0.405-3.076,0.82-4.609,1.249
	c-0.655,0.184-1.31,0.382-1.941,0.633c-0.967,0.385-1.909,0.832-2.87,1.234c-1.046,0.437-2.1,0.856-3.153,1.277
	c-1.261,0.504-2.507,1.053-3.791,1.489c-1.683,0.572-3.325,1.226-4.921,2.006c-0.691,0.338-1.401,0.646-2.121,0.917
	c-1.319,0.496-2.67,0.914-3.977,1.436c-1.852,0.741-3.676,1.547-5.511,2.328c-0.167,0.071-0.347,0.136-0.486,0.247
	c-0.866,0.691-1.932,0.988-2.922,1.412c-1.431,0.614-2.669,1.548-4.05,2.234c-0.116,0.057-0.232,0.159-0.297,0.269
	c-0.196,0.337-0.532,0.462-0.851,0.641c-1.065,0.596-2.103,1.273-2.952,2.126c-0.768,0.771-1.531,1.531-2.385,2.207
	c-0.283,0.225-0.582,0.449-0.805,0.727c-0.847,1.057-1.668,2.133-2.493,3.208c-0.136,0.178-0.245,0.378-0.355,0.573
	c-0.263,0.467-0.469,0.973-0.786,1.399c-1.147,1.539-1.801,3.258-2.232,5.106C1.887,36.355,1.869,37.5,2.49,38.62
	c0.043,0.078,0.085,0.157,0.089,0.166c0.512,0.333,1.035,0.559,1.403,0.934c1.004,1.023,2.321,1.545,3.525,2.242
	c0.539,0.313,1.122,0.54,1.77,0.651c0.979,0.169,1.943,0.444,2.896,0.728c1.096,0.326,2.21,0.472,3.353,0.473
	c1.085,0,2.173-0.029,3.255,0.027c0.993,0.051,2,0.112,2.963,0.328c1.124,0.252,2.229,0.326,3.374,0.232
	c1.399-0.115,2.804-0.189,4.206-0.21c2.096-0.032,4.171-0.212,6.223-0.655c0.887-0.192,1.821-0.269,2.653-0.599
	c1.66-0.659,3.393-1.025,5.108-1.46c2.291-0.58,4.61-1.052,6.901-1.632c2.471-0.625,4.923-1.325,7.386-1.98
	c0.667-0.178,1.281-0.436,1.852-0.836c0.854-0.599,1.722-1.185,2.625-1.707c1.262-0.731,2.458-1.569,3.551-2.505
	c1.179-1.012,2.413-1.908,3.767-2.659c0.278-0.154,0.568-0.294,0.826-0.477c0.204-0.145,0.483-0.282,0.353-0.673
	c-0.485-0.155-0.986-0.387-1.512-0.463c-0.621-0.09-1.265-0.029-1.898-0.067c-0.835-0.051-1.478,0.268-2.051,0.86
	c-0.815,0.843-1.696,1.623-2.515,2.461c-0.526,0.539-1.16,0.823-1.859,1.066c-1.284,0.447-2.586,0.882-3.8,1.483
	C55.949,34.834,55.062,34.814,54.001,34.442z M53.122,40.747c-1.099,0.294-2.191,0.615-3.297,0.878
	c-2.257,0.536-4.53,1.011-6.782,1.568c-2.383,0.591-4.742,1.283-7.127,1.865c-1.903,0.465-3.857,0.62-5.81,0.679
	c-1.723,0.051-3.441,0.152-5.16,0.294c-0.857,0.071-1.73,0.088-2.584,0.013c-1.263-0.111-2.512-0.357-3.774-0.485
	c-0.9-0.092-1.811-0.111-2.718-0.116c-2.019-0.01-3.966-0.419-5.899-0.927C9.49,44.388,9,44.291,8.522,44.154
	c-0.39-0.112-0.79-0.223-1.148-0.405c-0.961-0.489-1.903-1.014-2.85-1.529c-0.728-0.396-1.252-1.002-1.726-1.658
	c-0.338-0.466-0.618-0.971-1.306-1.055c-0.387-0.047-0.563-0.377-0.665-0.761c-0.36-1.359-0.592-2.714-0.153-4.107
	c0.067-0.212,0.088-0.44,0.106-0.663c0.072-0.867,0.36-1.659,0.816-2.404c0.825-1.348,1.619-2.714,2.456-4.052
	c0.334-0.534,0.744-1.023,1.13-1.523c0.165-0.214,0.39-0.389,0.533-0.615c1.057-1.665,2.642-2.841,4.002-4.223
	c1.635-1.66,3.61-2.876,5.638-3.991c2.026-1.113,4.079-2.182,6.158-3.196c1.428-0.697,2.912-1.282,4.383-1.888
	c1.718-0.709,3.455-1.373,5.174-2.08c1.724-0.709,3.43-1.462,5.156-2.166c0.795-0.324,1.632-0.546,2.43-0.864
	c1.943-0.775,3.923-1.481,5.8-2.393c3.624-1.758,7.382-3.023,11.361-3.691c2.141-0.36,4.239-0.326,6.359,0.029
	c1.787,0.3,3.566,0.639,5.309,1.121c1.271,0.351,2.503,0.847,3.441,1.798c0.718,0.729,1.46,1.44,1.955,2.373
	c0.353,0.666,0.908,1.223,1.324,1.86c1.196,1.832,2.447,3.624,2.726,5.901c0.206,1.687,0.594,3.351,0.929,5.018
	c0.118,0.59,0.088,1.148-0.097,1.719c-0.303,0.941-0.536,1.906-0.882,2.831c-1.133,3.026-2.957,5.556-5.686,7.395
	c-0.977,0.658-1.996,1.255-2.982,1.899c-0.376,0.245-0.738,0.522-1.068,0.825c-1.407,1.294-2.959,2.377-4.632,3.31
	c-1.029,0.575-1.995,1.261-3.004,1.872c-0.345,0.209-0.724,0.39-1.112,0.499c-1.753,0.491-3.515,0.951-5.272,1.422L53.122,40.747z
	 M9.171,37.255c0.741,0.079,1.361-0.033,1.963-0.138c1.745-0.306,3.383-0.142,4.94,0.754c0.784,0.451,1.665,0.572,2.602,0.508
	c1.608-0.111,3.215-0.171,4.835,0.024c1.145,0.137,2.322,0.037,3.471-0.252c1.001-0.252,2.018-0.44,3.032-0.637
	c1.328-0.259,2.616-0.638,3.815-1.271c0.37-0.195,0.733-0.318,1.152-0.317c0.807,0.002,1.614-0.021,2.422-0.03
	c0.988-0.011,1.978,0.021,2.963-0.037c1.885-0.111,3.761-0.314,5.585-0.842c0.475-0.138,0.97-0.256,1.4-0.487
	c0.996-0.534,2.164-0.638,3.121-1.273c0.132-0.088,0.444-0.013,0.614,0.085c0.261,0.151,0.28,0.431,0.174,0.709
	c-0.279,0.728-0.84,1.155-1.566,1.365c-1.426,0.412-2.846,0.87-4.296,1.172c-1.084,0.226-2.153,0.558-3.28,0.601
	c-1.704,0.065-3.391,0.347-5.114,0.217c-1.244-0.094-2.483,0.066-3.687,0.575c-1.231,0.52-2.488,0.998-3.88,1.063
	c-0.839,0.039-1.671,0.35-2.495,0.579c-1.31,0.365-2.612,0.479-3.981,0.327c-1.322-0.146-2.661-0.225-4.017-0.068
	c-1.04,0.12-2.116,0.102-3.113-0.452c-0.656-0.365-1.371-0.639-2.141-0.772c-1.393-0.24-2.758-0.158-4.116,0.199
	c-0.811,0.212-0.939,0.139-1.432-0.56c-0.602-0.855-0.64-1.73-0.211-2.649c0.17-0.363,0.366-0.72,0.601-1.045
	c0.469-0.652,0.981-1.269,1.346-1.995c0.27-0.538,0.741-0.87,1.351-1.026c1.483-0.378,2.958-0.785,4.435-1.181
	c0.087-0.023,0.181-0.032,0.261-0.07c1.465-0.702,3.046-0.733,4.62-0.819c0.77-0.042,1.513-0.17,2.177-0.629
	c0.304-0.21,0.567-0.414,0.734-0.753c0.621-1.266,1.619-2.254,2.594-3.237c0.8-0.806,1.862-1.232,2.928-1.612
	c1.142-0.407,2.375-0.553,3.435-1.202c0.139-0.085,0.349-0.093,0.522-0.081c1.464,0.098,2.859-0.239,4.241-0.664
	c1.589-0.489,3.207-0.902,4.754-1.498c1.163-0.448,2.318-0.936,3.426-1.552c1.337-0.743,2.828-1.137,4.394-1.129
	c0.673,0.003,1.347-0.041,2.021-0.049c0.268-0.004,0.547-0.01,0.8,0.06c0.198,0.055,0.394,0.196,0.533,0.35
	c0.115,0.128-0.114,0.526-0.345,0.66c-0.077,0.045-0.155,0.111-0.239,0.121c-0.843,0.114-1.715,0.399-2.526,0.284
	c-1.097-0.157-2.039,0.171-3.018,0.477c-0.299,0.093-0.603,0.213-0.862,0.384c-1.021,0.674-2.182,1.081-3.311,1.462
	c-2.421,0.817-4.788,1.79-7.365,2.171c-2.166,0.32-4.34,0.804-6.338,1.817c-1.169,0.592-2.314,1.192-3.051,2.34
	c-0.313,0.488-0.756,0.901-1.03,1.406c-0.602,1.111-1.6,1.674-2.729,2.047c-0.763,0.252-1.558,0.367-2.372,0.448
	c-1.104,0.109-2.228,0.151-3.309,0.56c-0.96,0.364-2,0.51-2.995,0.789c-0.644,0.181-1.278,0.408-1.899,0.659
	c-0.236,0.095-0.501,0.277-0.612,0.49c-0.294,0.569-0.719,1.021-1.145,1.482C9.406,35.709,9.336,36.456,9.171,37.255z M45.73,13.237
	c0.228,0.434,0.048,0.749-0.261,0.958c-1.131,0.767-2.368,1.267-3.757,1.249c-1.027-0.013-2.053-0.073-3.077-0.139
	c-1.144-0.073-2.2,0.358-3.299,0.543c-0.083,0.014-0.17,0.068-0.234,0.127c-0.889,0.83-2.029,1.097-3.151,1.41
	c-0.859,0.24-1.734,0.439-2.508,0.919c-0.376,0.233-0.801,0.396-1.152,0.658c-0.651,0.487-1.351,0.863-2.109,1.152
	c-1.628,0.621-3.177,1.407-4.731,2.19c-1.554,0.784-3.02,1.699-4.491,2.62c-0.675,0.423-1.438,0.727-2.193,1
	c-1.222,0.441-2.379,1.007-3.488,1.67c-0.457,0.273-0.868,0.627-1.274,0.974c-0.159,0.136-0.331,0.342-0.354,0.534
	c-0.101,0.831-0.689,1.431-1.015,2.153c-0.153,0.338-0.533,0.585-0.832,0.849c-0.232,0.205-0.498,0.373-0.765,0.569
	c0.007,0.643,0.145,1.235,0.421,1.8c0.075,0.155,0.129,0.327,0.158,0.497c0.045,0.26-0.22,0.515-0.494,0.499
	c-0.379-0.022-0.677-0.156-0.877-0.506c-0.471-0.82-0.738-1.697-0.865-2.704c0.443-0.41,0.855-0.892,1.361-1.237
	c0.793-0.54,1.276-1.285,1.458-2.16c0.212-1.017,0.817-1.684,1.654-2.152c1.009-0.564,2.064-1.053,3.121-1.525
	c1.387-0.618,2.774-1.21,4.107-1.96c1.279-0.719,2.466-1.594,3.805-2.209c1.703-0.783,3.407-1.564,5.105-2.358
	c0.404-0.189,0.846-0.362,1.164-0.656c0.785-0.725,1.766-1.023,2.721-1.393c1.583-0.614,3.221-1.067,4.759-1.819
	c1.038-0.507,2.196-0.731,3.387-0.72c1.472,0.012,2.945-0.05,4.418-0.067c0.589-0.006,1.129-0.102,1.668-0.393
	C44.599,13.345,45.132,13.034,45.73,13.237z M59.501,20.021c-0.503,0.135-1.016,0.237-1.505,0.411
	c-0.884,0.314-1.633,0.803-2.027,1.806c-0.355,0.901-1.126,1.389-1.807,1.952c-0.409,0.337-0.829,0.664-1.269,0.953
	c-0.483,0.317-1.01,0.511-1.611,0.399c-0.171-0.031-0.356-0.061-0.519-0.026c-1.787,0.381-3.597,0.687-5.344,1.205
	c-0.751,0.222-1.444,0.137-2.174,0.082c-0.042-0.003-0.083-0.036-0.126-0.047c-1.783-0.478-3.583-0.27-5.375-0.474
	c-1.241-0.142-2.395,0.405-3.58,0.685c-0.295,0.07-0.586,0.177-0.886,0.194c-0.137,0.008-0.353-0.129-0.42-0.262
	c-0.067-0.135-0.059-0.437,0.029-0.514c0.773-0.681,1.599-1.299,2.674-1.214c0.489,0.038,0.943,0.052,1.407-0.112
	c0.279-0.099,0.606-0.1,0.91-0.071c1.012,0.093,2-0.022,2.999-0.085c0.71-0.044,1.491,0.213,2.186,0.51
	c0.927,0.395,1.721,0.337,2.644,0.029c1.56-0.52,3.204-0.782,4.812-1.151c1.478,0.241,2.403-0.848,3.453-1.605
	c0.302-0.218,0.525-0.628,0.679-1.006c0.745-1.826,2.246-2.504,3.871-2.942c0.63-0.17,1.262-0.29,1.862-0.572
	c0.43-0.201,0.915-0.28,1.382-0.383c0.329-0.074,0.592,0.083,0.794,0.404c0.249,0.398,0.189,0.779-0.202,0.925
	c-0.937,0.35-1.883,0.674-2.826,1.008C59.521,20.086,59.511,20.053,59.501,20.021z M50.935,28.703
	c0.337-0.116,0.575-0.213,0.821-0.28c1.037-0.28,2.078-0.547,3.115-0.829c0.214-0.058,0.437-0.128,0.622-0.242
	c0.83-0.508,1.641-1.044,2.472-1.55c0.655-0.399,1.172-0.9,1.637-1.493c0.54-0.69,1.254-1.217,2.2-1.383
	c0.529-0.093,1.048-0.24,1.576-0.34c1.107-0.212,2.129,0.037,3.092,0.464c0.54,0.239,0.917,0.625,0.735,1.353
	c-0.198-0.011-0.438,0.041-0.592-0.042c-1.625-0.871-3.307-0.644-5.014-0.068c-0.45,0.152-0.75,0.473-1.014,0.819
	c-1.073,1.409-2.571,2.356-4.107,3.235c-0.562,0.321-1.249,0.472-1.898,0.622c-0.826,0.191-1.668,0.334-2.51,0.428
	c-0.273,0.031-0.58-0.134-0.841-0.26C51.11,29.079,51.062,28.898,50.935,28.703z M72.805,13.732
	c0.085,0.821-0.239,1.139-0.763,1.259c-0.958,0.218-1.954,0.217-2.886-0.175c-0.658-0.277-1.4-0.385-1.964-0.971
	c-0.236-0.246-0.501-0.188-0.753-0.092c-0.736,0.281-1.483,0.538-2.197,0.87c-0.476,0.222-0.924,0.524-1.351,0.845
	c-0.9,0.679-1.831,1.194-2.99,1.259c-0.78,0.043-1.537,0.353-2.292,0.585c-0.39,0.12-0.767,0.176-1.17,0.029
	c-0.244-0.089-0.404-0.284-0.381-0.551c0.014-0.163,0.127-0.392,0.249-0.437c1.268-0.467,2.444-1.197,3.861-1.228
	c0.949-0.021,1.753-0.521,2.401-1.267c0.309-0.356,0.673-0.583,1.108-0.704c0.931-0.259,1.857-0.541,2.787-0.806
	c0.578-0.164,1.135-0.138,1.626,0.391c0.385,0.415,0.864,0.572,1.353,0.633c0.618,0.077,1.24,0.122,1.859,0.136
	C71.79,13.517,72.268,13.538,72.805,13.732z"/>
</svg>
