<?xml version="1.0" encoding="utf-8"?>
<!-- Generator: Adobe Illustrator 23.0.4, SVG Export Plug-In . SVG Version: 6.00 Build 0)  -->
<svg version="1.1" id="icon_layer" xmlns="http://www.w3.org/2000/svg" xmlns:xlink="http://www.w3.org/1999/xlink" x="0px" y="0px"
	 viewBox="0 0 24 24" style="enable-background:new 0 0 24 24;" xml:space="preserve">
<style type="text/css">
	.st0{fill:#ECA200;}
</style>
<g id="fb_1_">
	<g id="footer" transform="translate(-111.000000, -392.000000)">
		<g id="What">
			<g transform="translate(68.000000, 200.000000)">
				<path id="fb" class="st0" d="M63.701,192h-17.46c-1.763,0-3.242,1.422-3.242,3.242v17.46c0,1.763,1.422,3.242,3.242,3.242h8.588
					v-8.531h-2.218c-0.284,0-0.512-0.227-0.512-0.512v-2.73c0-0.284,0.227-0.512,0.512-0.512h2.218v-2.673
					c0-3.071,1.877-4.777,4.664-4.777h2.275c0.284,0,0.512,0.227,0.512,0.512v2.332c0,0.284-0.227,0.512-0.512,0.512h-1.365
					c-1.479,0-1.763,0.739-1.763,1.763v2.275h3.299c0.341,0,0.569,0.284,0.512,0.569l-0.341,2.73
					c-0.057,0.284-0.227,0.455-0.512,0.455H58.64v8.531h5.118c1.763,0,3.242-1.422,3.242-3.242v-17.46
					C66.943,193.422,65.521,192,63.701,192z"/>
			</g>
		</g>
	</g>
</g>
</svg>
