<?xml version="1.0" encoding="utf-8"?>
<!-- Generator: Adobe Illustrator 23.0.4, SVG Export Plug-In . SVG Version: 6.00 Build 0)  -->
<svg version="1.1" id="icon_layer" xmlns="http://www.w3.org/2000/svg" xmlns:xlink="http://www.w3.org/1999/xlink" x="0px" y="0px"
	 viewBox="0 0 24 24" style="enable-background:new 0 0 24 24;" xml:space="preserve">
<style type="text/css">
	.st0{fill:#ECA200;}
</style>
<g id="Symbols">
	<g id="footer" transform="translate(-68.000000, -392.000000)">
		<g id="What">
			<g transform="translate(68.000000, 200.000000)">
				<path id="insta" class="st0" d="M16.84,192c3.952,0,7.16,3.208,7.16,7.16v9.68c0,3.952-3.208,7.16-7.16,7.16H7.16
					C3.208,216,0,212.792,0,208.84v-9.68c0-3.952,3.208-7.16,7.16-7.16H16.84z M21.594,208.84v-9.68
					c0-2.635-2.119-4.754-4.754-4.754H7.16c-2.635,0-4.754,2.119-4.754,4.754v9.68c0,2.635,2.119,4.754,4.754,4.754h9.68
					C19.475,213.594,21.594,211.475,21.594,208.84z M12.029,197.785c3.379,0,6.186,2.864,6.186,6.243s-2.749,6.186-6.186,6.186
					s-6.186-2.864-6.186-6.243S8.592,197.785,12.029,197.785z M12.029,207.809c2.062,0,3.78-1.718,3.78-3.78s-1.718-3.78-3.78-3.78
					s-3.78,1.718-3.78,3.78S9.909,207.809,12.029,207.809z M18.215,199.332c-0.822,0-1.489-0.667-1.489-1.489
					s0.667-1.489,1.489-1.489c0.822,0,1.489,0.667,1.489,1.489S19.037,199.332,18.215,199.332z"/>
			</g>
		</g>
	</g>
</g>
</svg>
