<?xml version="1.0" encoding="utf-8"?>
<!-- Generator: Adobe Illustrator 23.0.4, SVG Export Plug-In . SVG Version: 6.00 Build 0)  -->
<svg version="1.1" id="illu_layer" xmlns="http://www.w3.org/2000/svg" xmlns:xlink="http://www.w3.org/1999/xlink" x="0px" y="0px"
	 viewBox="0 0 78 71" style="enable-background:new 0 0 78 71;" xml:space="preserve">
<style type="text/css">
	.st0{filter:url(#Adobe_OpacityMaskFilter);}
	.st1{fill-rule:evenodd;clip-rule:evenodd;fill:#FFFFFF;}
	.st2{mask:url(#mask-2_1_);fill-rule:evenodd;clip-rule:evenodd;fill:#131413;}
	.st3{fill-rule:evenodd;clip-rule:evenodd;fill:#131413;}
</style>
<defs>
	<filter id="Adobe_OpacityMaskFilter" filterUnits="userSpaceOnUse" x="0" y="0.1" width="77.9" height="70.9">
		<feColorMatrix  type="matrix" values="1 0 0 0 0  0 1 0 0 0  0 0 1 0 0  0 0 0 1 0"/>
	</filter>
</defs>
<mask maskUnits="userSpaceOnUse" x="0" y="0.1" width="77.9" height="70.9" id="mask-2_1_">
	<g class="st0">
		<polygon id="path-1_1_" class="st1" points="0,0.1 77.9,0.1 77.9,71 0,71 		"/>
	</g>
</mask>
<path id="nut_2" class="st2" d="M14.3,18.3c0,0-0.1,0-0.1-0.1c-0.1,0.2-0.1,0.3-0.2,0.5c0,0,0.1,0,0.1,0
	C14.1,18.6,14.2,18.5,14.3,18.3 M10.8,36.3c-0.2,0.2-0.3,0.3-0.4,0.5c-0.1,0.2-0.1,0.5-0.1,0.7c-0.1,0.8-0.3,1.5-0.4,2.3
	c-0.1,0.6-0.3,1.2-0.4,1.9c0,0.3,0.1,0.6,0.2,0.9c0.3,0.7,0.7,1.3,0.7,2.1c0,0.9,0.1,1.7,0.4,2.5c0.4,1.1,0.9,2.2,1.8,3.1
	c0.5,0.5,1,1.1,1.3,1.7c0.7,1.4,1.7,2.4,2.9,3.2c0.5,0.3,1.1,0.7,1.6,1.1c0.7,0.6,1.4,1.2,2.1,1.8c0.2,0.1,0.3,0.3,0.5,0.3
	c0.5,0.2,1.1,0.3,1.7,0.5c0.7,0.2,1.3,0.4,2,0.6c0,0,0.1-0.1,0.3-0.1c-0.3-0.2-0.5-0.4-0.8-0.6c-0.6-0.5-1.2-1-1.9-1.5
	c-0.8-0.5-1.4-1.1-2.1-1.6c-0.5-0.4-0.9-0.9-1.5-1.2c-0.4-0.2-0.8-0.5-1.1-0.9c-0.3-0.4-0.7-0.8-1.1-1.2c-0.2-0.2-0.4-0.5-0.6-0.7
	c-0.4-0.6-0.8-1.2-1.1-1.9c-0.3-0.7-0.6-1.5-1.2-2.2c-0.2-0.2-0.3-0.5-0.4-0.8c-0.3-0.9-0.5-1.8-0.9-2.7c-0.2-0.4-0.2-0.9-0.3-1.3
	c-0.5-1.3-0.8-2.7-1-4.2C11,37.8,10.9,37.1,10.8,36.3 M37.8,59.9c0,0.1,0,0.1,0,0.2c0.9,0,1.7,0,2.6,0c0.6,0,1.2-0.1,1.8-0.1
	c0.4,0,0.8,0,1.2-0.1c0.9-0.2,1.9-0.5,2.8-0.7c1.2-0.3,2.3-0.8,3.4-1.3c0.7-0.3,1.4-0.6,2.1-0.9c0.1,0,0.2-0.1,0.3-0.2
	c0.4-0.3,0.8-0.7,1.3-1c1.1-0.8,2.2-1.6,3.2-2.4c0.1-0.1,0.1-0.1,0.2-0.2c0.1-0.3,0.3-0.3,0.5-0.4c0.5-0.2,1-0.4,1.4-0.7
	c0.4-0.5,0.9-0.8,1.4-1.2c0.2-0.2,0.4-0.5,0.7-0.6c0.7-0.3,1.2-0.8,1.7-1.3c1.4-1.2,2.7-2.5,4-3.7c0.7-0.7,1.5-1.3,2.3-2
	c0.3-0.3,0.6-0.6,0.8-1c0.2-0.3,0.4-0.6,0.7-0.9c0.4-0.4,0.8-0.8,1.1-1.2c0.4-0.7,0.9-1.3,1.2-2.1c0.4-1,1.1-2,1.5-3
	c0.3-0.8,0.6-1.6,0.8-2.5c0.2-0.6,0.2-1.2,0.4-1.9c0.1-0.6,0.3-1.2,0.4-2c-0.2,0.2-0.3,0.2-0.4,0.3c-0.6,1.1-1.2,2.3-1.9,3.4
	c-0.3,0.6-0.6,1.1-1,1.6c-0.6,0.8-1.2,1.6-1.8,2.4c-0.8,1-1.5,1.9-2.4,2.9c-1,1.2-2.1,2.3-3.2,3.5c-0.9,1-1.8,1.9-2.8,2.8
	c-1.2,1.1-2.5,2.2-3.7,3.3c-0.8,0.7-1.7,1.5-2.5,2.2c-0.9,0.7-1.8,1.4-2.6,2.2c-1.4,1.2-2.8,2.4-4.4,3.2c-0.8,0.4-1.6,0.8-2.4,1.1
	c-1.3,0.5-2.5,1.2-3.8,1.6c-1.2,0.3-2.4,0.6-3.7,0.7C38.7,59.7,38.3,59.8,37.8,59.9 M50.2,62.8c0,0-0.1-0.1-0.1-0.1
	c-0.3,0.1-0.5,0.2-0.8,0.3c-0.7,0.3-1.5,0.6-2.2,0.9c-0.6,0.2-1.1,0.4-1.7,0.6c-0.9,0.4-1.8,1-2.8,1.2c-0.6,0.1-1.2,0.3-1.8,0.5
	c-0.8,0.3-1.6,0.6-2.5,0.6c-0.6,0-1.2,0.1-1.8,0.3c-1.9,0.7-3.8,0.7-5.7,0.3c-0.2,0-0.4-0.1-0.6-0.1c-1.2,0-2.4-0.3-3.6-0.6
	c-0.6-0.2-1.2-0.3-1.8-0.6c-1.2-0.5-2.5-0.5-3.6-1.4c-1-0.8-2.1-1.4-3.3-2c-0.6-0.3-1.2-0.6-1.8-0.8c-1-0.3-1.9-0.8-2.7-1.5
	c-0.8-0.6-1.6-1.3-2.4-2c-0.7-0.6-1.5-1-2.1-1.8c-0.2-0.3-0.5-0.6-0.8-0.9C7.8,55.3,7.3,55,7,54.6c-1-1.1-1.8-2.4-2.6-3.7
	c-0.9-1.6-1.6-3.4-1.8-5.3c-0.1-1.3,0-2.7,0.4-3.9c0.3-0.9,0.5-1.8,1.1-2.6c0.7-0.9,1.1-2,1.7-3c0.3-0.5,0.6-0.9,0.6-1.5
	c0-0.2,0.1-0.4,0.2-0.6c0.3-0.4,0.5-0.8,0.8-1.1c0.9-0.9,1.6-2,2.3-3c0.2-0.3,0.4-0.6,0.4-1c0-0.3,0.2-0.6,0.2-0.8
	c0.3-0.8,0.6-1.6,0.8-2.4c0.2-0.8,0.3-1.7,0.5-2.6c0.3-1.1,0.6-2.3,0.9-3.4c0.2-0.7,0.6-1.4,0.8-2.2c0.2-0.6,0.3-1.2,0.6-1.7
	c0.3-0.7,0.4-1.3,0.3-2.1c-0.1,0.4-0.2,0.7-0.3,1c-0.5,1.8-1.3,3.5-2.4,5.1c-0.4,0.6-0.9,1.2-1.2,1.9c-0.4,1.1-0.9,2.2-1.4,3.2
	c-0.2,0.4-0.4,0.7-0.6,1.1c-0.4,0.9-0.9,1.7-1,2.6c0,0.2-0.1,0.4-0.2,0.5c-0.5,0.7-0.7,1.5-1,2.3C6,32,5.7,32.6,5.4,33.2
	c-0.4,0.7-0.8,1.4-0.9,2.3C4.4,36,4,36.5,4,37.1c0,0,0,0.1-0.1,0.1c-0.4,0.5-0.4,1.1-0.5,1.6c-0.1,0.6-0.2,1.2-0.4,1.8
	c-0.4,1.1-0.5,2.2-0.8,3.3C2.1,44.3,2,44.6,2,44.9c-0.1,0.9-0.1,1.8-0.1,2.6c0,0.2,0,0.5,0,0.7c0.1,1.2,0.2,2.4,0.4,3.6
	c0,0.1,0.1,0.2,0.1,0.3C2.7,53,3,53.9,3.4,54.7c0.2,0.5,0.4,1,0.7,1.5c0.6,0.9,1.3,1.9,2,2.8c0.6,0.8,1.3,1.6,2.1,2.2
	c1.2,1,2.6,1.8,3.9,2.6c2.2,1.3,4.5,2.2,6.9,3c1.3,0.4,2.6,0.8,3.9,1.4c1.3,0.6,2.8,0.8,4.2,0.9c1.1,0.1,2.3,0.1,3.4,0.2
	c0.5,0,1.1,0.2,1.6,0.1c1.4-0.1,2.8-0.3,4.3-0.5c1-0.1,2.1-0.3,3.1-0.5c0.9-0.2,1.8-0.4,2.6-0.8c1.5-0.7,2.9-1.6,4.4-2.2
	c0.1,0,0.1-0.1,0.2-0.1c0.6-0.4,1.3-0.7,1.9-1.1C49.2,63.7,49.7,63.4,50.2,62.8 M10.3,32.2c-0.1,0-0.2,0-0.2,0.1
	c-0.4,0.5-1,0.8-1.2,1.5c0,0.1-0.3,0.2-0.4,0.4c-0.3,0.4-0.7,0.7-0.8,1.1c-0.1,0.9-0.6,1.6-0.9,2.4c-0.2,0.7-0.7,1.3-1.1,1.9
	c-0.7,1.1-1.1,2.2-1.4,3.5c-0.5,1.8-0.1,3.4,0.5,5c0.4,1.1,1,2.1,1.6,3.1c0.4,0.7,0.8,1.4,1.4,2c0.8,0.9,1.6,1.6,2.4,2.4
	c1.5,1.5,3.2,2.7,5,3.9c0.1,0.1,0.3,0.2,0.4,0.2c1.3,0.6,2.6,1.2,3.9,1.8c0.6,0.3,1.2,0.7,1.8,1.1c0.8,0.7,1.7,1.1,2.7,1.5
	c0.8,0.3,1.6,0.5,2.3,0.8c0.8,0.3,1.7,0.5,2.6,0.7c1.1,0.2,2.3,0.3,3.4,0.4c0.6,0,1.1,0.1,1.7,0c1.1-0.2,2.1-0.4,3.2-0.7
	c1.1-0.2,2.2-0.2,3.3-0.6c1.8-0.6,3.6-1.1,5.3-1.9c0.8-0.4,1.6-0.6,2.4-1c1.1-0.4,2.1-0.8,3.2-1.3c0.6-0.3,1.2-0.7,1.8-1
	c1.2-0.6,2.3-1.3,3.3-2.2c0.6-0.5,1.1-1.1,1.6-1.6c1.1-1,2.2-2,3.4-3c0.2-0.2,0.5-0.4,0.7-0.6c1-0.8,1.9-1.7,2.7-2.7
	c0.2-0.3,0.6-0.6,0.6-1.1c-0.7,0.5-1.3,1-1.9,1.5c-0.3,0.2-0.7,0.2-0.9,0.5c-0.6,0.8-1.5,1.1-2.2,1.8c-0.2,0.2-0.4,0.4-0.6,0.6
	c-1,0.7-2,1.3-2.9,2c-0.7,0.6-1.3,1.2-2.1,1.6c-0.7,0.4-1.3,1.1-2.2,1.3c-0.4,0.1-0.8,0.3-1,0.5c-0.3,0.4-0.7,0.5-1.2,0.7
	c-0.4,0.1-0.7,0.3-1.1,0.5c-0.7,0.3-1.3,0.6-2,0.8c-1.1,0.4-2.3,0.7-3.4,1c-0.5,0.1-1.1,0.3-1.6,0.3c-1.4,0.1-2.7,0.1-4.1,0.1
	c-0.5,0-1-0.1-1.4,0c-1.2,0.3-2.3,0.1-3.5,0.1c-0.8,0-1.6-0.3-2.4-0.2c-0.1,0-0.1,0-0.2,0c-0.6-0.2-1.2-0.2-1.8-0.1
	c-0.5,0.1-1.1,0-1.6-0.1c-0.7,0-1.4,0-2.1-0.2c-1.5-0.4-2.9-0.8-4.4-1.3c-0.9-0.3-1.8-0.6-2.4-1.4c-0.3-0.4-0.7-0.7-1.1-1
	c-1.1-0.7-2.3-1.4-3.2-2.3c-0.7-0.7-1.5-1.5-2-2.4c-0.4-0.7-0.9-1.4-1.3-2c-0.4-0.5-0.8-0.9-1.1-1.4c-0.4-0.6-0.7-1.3-1-2
	c-0.2-0.5-0.4-1.1-0.3-1.7c0-0.9-0.1-1.7-0.6-2.5c-0.7-1-0.6-2.1-0.1-3.2c0.1-0.3,0.2-0.6,0.3-1c0.2-0.7,0.4-1.3,0.6-2
	c0.4-1.3,1.1-2.5,1.2-3.8C10.2,32.8,10.2,32.5,10.3,32.2 M17.4,3c0,0.2,0,0.3,0.1,0.5c0.1,0.5,0.3,1.1,0.4,1.6
	c0.3,1.4,0.2,2.9,0.3,4.3c0,1.3-0.4,2.5-0.7,3.8c0,0.1,0,0.1-0.1,0.2c-0.3,0.3-0.3,0.7-0.3,1.1c-0.1,0.4-0.5,0.6-0.5,1
	c0,0.2-0.1,0.4-0.1,0.6c-0.1,0.3-0.2,0.7-0.2,1c0,1.1-0.5,2.1-0.9,3.1c-0.1,0.3-0.2,0.7-0.4,0.9c-0.4,0.4-0.5,0.9-0.7,1.3
	c-0.2,0.5-0.4,0.9-0.6,1.4c-0.2,0.8-0.3,1.6-0.4,2.4c-0.2,0.9-0.7,1.7-0.6,2.7c0,0,0,0.1,0,0.1c-0.1,0.7-0.3,1.4-0.3,2.2
	c0,1.3,0.1,2.6,0.1,3.9c0.1,1,0.1,2.1,0.3,3.1c0.3,1.8,0.7,3.5,1.4,5.2c0.3,0.9,0.5,1.9,1,2.7c0.8,1.2,1.3,2.6,2.1,3.8
	c0.8,1.2,1.9,2.1,2.9,3c0.9,0.8,1.9,1.5,2.8,2.2c1,0.9,2.1,1.8,3.4,2.4c0.8,0.4,1.7,0.8,2.6,0.9c1.3,0.2,2.7,0.3,4,0.2
	c1.9-0.1,3.7-0.4,5.6-0.5c2-0.2,3.9-0.7,5.7-1.4c1.3-0.5,2.6-1.1,3.8-1.8c1.2-0.7,2.5-1.4,3.5-2.4c0.9-0.8,1.8-1.6,2.8-2.4
	c1.3-1.1,2.5-2.1,3.8-3.2c1.2-1.1,2.5-2.2,3.7-3.4c1.3-1.2,2.6-2.5,3.8-3.9c0.9-1.1,1.8-2.1,2.7-3.2c1.1-1.4,2.3-2.7,3.2-4.3
	c0.8-1.6,1.7-3.1,2.6-4.6c0.2-0.4,0.4-0.7,0.6-1.1c0.6-1.4,1-2.8,1.1-4.2c0.1-0.8,0.3-1.7,0.1-2.5c-0.1-0.3-0.1-0.6,0-1
	c0.1-1.2-0.2-2.4-0.5-3.6c-0.1-0.4-0.2-0.8-0.3-1.2c-0.3-0.8-0.5-1.6-1.1-2.3c-0.3-0.4-0.6-0.8-0.9-1.2c-0.7-0.7-1.5-1.3-2.2-2
	c-0.9-0.7-1.8-1.2-2.7-1.8c-0.2-0.1-0.4-0.2-0.6-0.4c-0.2-0.2-0.4-0.3-0.6-0.3c-1-0.1-1.8-0.6-2.7-1c-0.6-0.3-1.2-0.6-1.8-0.9
	c-0.8-0.3-1.6-0.4-2.4-0.9c-0.2-0.1-0.5-0.1-0.7-0.1c-0.9-0.1-1.8,0.2-2.7-0.1c0,0-0.1,0-0.1,0c-1,0.3-2,0.7-3,0.7
	c-0.1,0-0.2,0.1-0.3,0.1c-0.6,0.3-1.4,0.2-2,0.6c0,0-0.1,0-0.1,0c-0.2,0.1-0.4,0.1-0.7,0.2C50.2,4.8,50,5,49.8,5
	c-0.6-0.1-1.2,0.3-1.7,0.5c-1.7,0.6-3.4,1-5.3,0.9c-1,0-2,0-3,0.1c-1.4,0.1-2.8,0.1-4.2-0.1c-1.3-0.2-2.6-0.2-3.8-0.3
	C30.5,6,29.1,6,27.8,5.9c-0.4,0-0.8-0.1-1.2-0.1c-1-0.2-2-0.4-3-0.6C22.7,5,21.8,5,20.9,4.8c-0.3-0.1-0.6-0.1-0.9-0.1
	c-1,0.1-1.8-0.3-2.1-1.4C17.9,3.1,17.8,2.9,17.4,3 M15.7,13.4c0.3-0.8,0.7-1.6,0.9-2.5c0.1-0.7,0.3-1.4,0.1-2.2c0,0,0-0.1,0-0.1
	C17,7.7,16.6,7,16.5,6.1c-0.1-1.3-0.5-2.6-0.9-3.8c-0.2-0.5-0.3-1,0.2-1.4c0.1-0.1,0-0.2,0.1-0.3C15.9,0.2,16,0,16.4,0.2
	C17,0.4,17.6,0.5,18,1c0.5,0.6,1,1,1.4,1.7c0.1,0.2,0.4,0.4,0.6,0.4c1.2,0.2,2.4,0.4,3.7,0.6C25.5,4,27.2,4.3,29,4.5
	c1.4,0.1,2.9,0.1,4.3,0.2c1.1,0.1,2.1,0.2,3.2,0.4c0.7,0.1,1.4,0.1,2.2,0.1C39.9,5,41.1,5,42.3,4.9c0.6,0,1.2-0.2,1.8-0.2
	c1.6,0,3-0.6,4.5-1.1c1.1-0.4,2.2-0.8,3.3-1.1c1.1-0.3,2.2-0.8,3.3-0.9c1.5-0.1,3-0.1,4.4,0c0.8,0,1.5,0.4,2.2,0.7
	C63.6,3,65.3,3.7,67,4.4c1.7,0.7,3.3,1.5,4.8,2.6c0.7,0.5,1.3,1.1,1.8,1.7c0.8,0.8,1.6,1.7,2.2,2.7c0.4,0.6,0.7,1.3,1,1.9
	c0.3,0.7,0.4,1.6,0.7,2.3c0.3,0.7,0.2,1.3,0.3,2c0.1,1.2,0.1,2.3,0.2,3.5c0,0.3-0.2,0.5-0.2,0.8c-0.1,1.2-0.3,2.3-0.7,3.4
	c-0.1,0.4-0.1,0.8,0.1,1.2c0.2,0.3,0.2,0.7,0.2,1c-0.1,1.2,0,2.4-0.5,3.6c-0.1,0.2-0.1,0.4-0.1,0.7c-0.1,1.5-0.5,2.9-1.2,4.2
	c-0.6,1.1-1.1,2.3-1.7,3.4c-0.2,0.4-0.4,0.9-0.6,1.3c-0.2,0.4-0.6,0.7-0.8,1.1c-1.3,2.2-2.8,4.4-4.4,6.4c-0.8,1-1.6,2.1-2.5,3.2
	c-0.3,0.4-0.7,0.7-1.1,1c-0.8,0.7-1.5,1.4-2.3,2c-0.5,0.4-0.8,0.9-1.3,1.2c-0.5,0.3-1,0.7-1.4,1.1c-1.1,1.1-2.1,2.2-3.2,3.2
	c-1.1,1-2.2,2-3.3,2.9c-0.8,0.7-1.7,1.4-2.6,2.1c-0.5,0.4-1.2,0.7-1.7,1.1c-0.7,0.5-1.6,0.8-2.4,1.2c-0.8,0.3-1.5,0.7-2.2,1.1
	c-0.6,0.3-1.3,0.5-1.9,1c-0.1,0-0.1,0.1-0.2,0.1c-0.7,0.2-1.4,0.4-2.2,0.5c-1.7,0.3-3.4,0.5-5,0.7c-0.8,0.1-1.6,0.2-2.4,0.3
	c-1.2,0.2-2.4-0.1-3.6-0.2c-0.8,0-1.6-0.1-2.3-0.2c-1.2-0.1-2.5-0.3-3.7-0.7c-2-0.7-4-1.3-6-2c-0.2-0.1-0.4-0.1-0.5-0.2
	c-0.4-0.2-0.8-0.4-1.3-0.4c-0.2,0-0.4-0.1-0.5-0.2c-0.6-0.2-1.1-0.5-1.6-0.7c-0.3-0.1-0.5-0.3-0.7-0.5c-0.8-0.5-1.5-0.9-2.3-1.4
	c-1.4-0.9-2.7-1.9-3.9-3c-1-0.9-1.8-1.8-2.5-3c-0.6-1.1-1.2-2.1-1.7-3.1c-1-1.8-1.3-3.9-1.5-5.9c-0.1-1.5-0.1-3,0.1-4.5
	c0.1-1,0.5-2,0.7-3.1c0-0.2,0.1-0.4,0.1-0.6c0.1-0.7,0.3-1.4,0.4-2.1c0-0.2,0.1-0.3,0.2-0.5c0.3-0.7,0.7-1.5,0.8-2.2
	c0.2-1,0.7-1.8,1-2.7c0.4-1.4,1.2-2.7,1.8-4.1c0.3-0.6,0.5-1.3,0.8-2c0,0,0-0.1,0-0.1c0.5-1,1-1.9,1.4-2.9c0.5-1,1-2.1,1.5-3.2
	c0.3-0.6,0.6-1.2,1-1.8c0.7-1.1,1.5-2.2,1.9-3.4c0.2-0.6,0.5-1.2,0.8-1.8c0.4-1,0.8-1.9,1-2.9c0.1-0.7,0.3-1.4,0.5-2
	c0.1-0.2,0-0.4,0-0.6c0.1-0.6,0.1-1.2,0.2-1.7c0-0.1,0-0.3,0-0.4c0-0.5,0-1,0-1.5c0.1-0.8-0.2-1.5-0.2-2.3c0-0.3,0-0.5,0-0.8
	c0-0.3,0.2-0.5,0.4-0.5c0.2,0,0.4,0.2,0.6,0.4c0.1,0.1,0.1,0.3,0.1,0.4c0.2,1,0.7,2,0.7,3.1c0,0.4-0.1,0.8-0.1,1.2
	c0,0.5-0.1,0.9,0,1.4c0,0.4,0.2,0.9,0.1,1.3c-0.1,1-0.2,2-0.3,3c0,0.3,0,0.6,0,0.9C15.6,13.3,15.6,13.3,15.7,13.4"/>
<path id="nut_1" class="st3" d="M52.8,37.4c0,0,0-0.1,0-0.1c-0.1,0-0.1,0-0.2,0c-0.8,0.4-1.7,0.2-2.5,0.2c-0.4,0-0.8,0-1.2-0.1
	c-1-0.4-2-0.9-2.9-1.3c-0.2-0.1-0.4-0.1-0.5-0.2c-1.3-0.3-2.6-0.7-3.8-1.3c-0.3-0.1-0.6-0.2-0.8-0.4c-0.9-0.8-1.5-1.8-1.7-3
	c-0.2-1.1-0.6-2.2-0.9-3.2c0-0.1-0.1-0.2-0.2-0.2c-0.2-0.2-0.3-0.4-0.5-0.6c-0.1-0.2-0.3-0.4-0.4-0.6c-0.1,0-0.1,0.1-0.2,0.1
	c0,0.4,0.1,0.7,0.1,1.1c0.1,0.6,0.2,1.1,0.3,1.7c0.2,1.6,0.5,3.1,1.2,4.5c0.4,0.8,0.8,1.7,1.7,2.2c0.7,0.4,1.3,0.9,1.9,1.4
	c0.1,0.1,0.1,0.2,0.2,0.2c0.6,0.5,1.1,1.1,1.8,1.5c0.3,0.2,0.6,0.3,1,0.3c0.9-0.1,1.8-0.2,2.6-0.3c0.4-0.1,0.9-0.1,1.3-0.3
	c0.8-0.3,1.6-0.7,2.4-1C51.9,37.7,52.4,37.5,52.8,37.4 M36.2,22.8c0.1,0.2,0.2,0.4,0.3,0.5c0.4,0.5,0.8,1,1.1,1.6
	c0.5,0.8,1,1.6,1.4,2.4c0.3,0.6,0.7,1.3,1,1.9c0.3,0.7,0.4,1.5,0.6,2.2c0.3,0.8,0.7,1.6,1.7,1.9c0.6,0.2,1.2,0.5,1.8,0.7
	c0.6,0.2,1.2,0.6,1.9,0.7c0.9,0.2,1.8,0.5,2.6,0.8c0.2,0.1,0.5,0.3,0.7,0.3c1.1,0.1,2.2,0.2,3.3-0.3c0.2-0.1,0.5-0.1,0.8-0.2
	c0.2,0,0.4-0.1,0.6-0.1c0.7-0.2,1.4-0.5,2.2-0.6c0.4-0.1,0.7-0.1,1-0.5c0.1-0.7,0.1-1.4,0.2-2.2c0-0.9,0-1.8,0.1-2.8
	c0-0.3-0.1-0.6-0.3-0.9c-0.3-0.4-0.6-0.7-1-1c-0.4-0.2-0.9-0.4-1.2-0.9c-0.6,0-0.9-0.6-1.3-0.9c0,0,0,0-0.1,0
	c-0.9-0.4-1.8-0.8-2.6-1.2c-1.5-0.7-3.1-0.9-4.7-1c-0.8,0-1.6-0.1-2.4-0.2c-0.8,0-1.5,0-2.3,0c-0.5,0-1.1,0-1.6,0
	c-0.8-0.1-1.7-0.3-2.5-0.4C37.1,22.8,36.7,22.8,36.2,22.8 M33.1,21.8c0.2-0.1,0.3-0.2,0.3-0.3C33,21.2,32.3,21,32,20.4
	c0.4-0.6,0.9-0.4,1.3-0.3c0.6,0.2,1.2,0.5,1.7,0.8c0.2,0.1,0.4,0.2,0.5,0.2c1.2,0.2,2.4,0.3,3.6,0.4c0,0,0.1,0,0.1,0
	c1.4,0.4,2.9,0.2,4.4,0.3c1.2,0,2.3,0.1,3.5,0.2c0.6,0,1.2,0.2,1.8,0.3c1.4,0.3,2.7,0.6,3.9,1.4c1.4,0.9,2.8,1.7,4.2,2.6
	c1.1,0.8,1.9,1.8,1.9,3.3c0,1.3,0,2.6,0,3.9c0,1.4-0.8,2.4-2,3.1c-0.3,0.2-0.5,0.4-0.8,0.5c-0.9,0.7-1.9,1.1-3,1.6
	c-1,0.4-2,0.9-3.1,1.4c-0.3,0.1-0.7,0.3-1,0.3c-0.7,0.1-1.4,0.3-2.1,0.2c-0.4,0-0.8,0.2-1.3,0.2c-0.6,0-1.3,0-1.9,0
	c-0.3,0-0.5-0.2-0.7-0.3c-0.4-0.3-0.9-0.7-1.3-1.1c-0.1-0.1-0.2-0.2-0.3-0.2c-0.8-0.3-1.4-1-2-1.5c-0.3-0.2-0.5-0.4-0.8-0.6
	c-0.7-0.5-1.3-1.1-1.6-1.9c-0.1-0.3-0.3-0.5-0.5-0.8c-0.6-1.2-0.8-2.5-1-3.8c-0.2-1.3-0.5-2.5-0.6-3.8c-0.1-1.1-0.5-2.2-0.8-3.3
	c-0.2-0.5-0.3-1-0.9-1.3C33.3,22.2,33.3,22,33.1,21.8"/>
</svg>
