<?xml version="1.0" encoding="utf-8"?>
<!-- Generator: Adobe Illustrator 23.0.4, SVG Export Plug-In . SVG Version: 6.00 Build 0)  -->
<svg version="1.1" id="illu_layer" xmlns="http://www.w3.org/2000/svg" xmlns:xlink="http://www.w3.org/1999/xlink" x="0px" y="0px"
	 viewBox="0 0 77 86" style="enable-background:new 0 0 77 86;" xml:space="preserve">
<style type="text/css">
	.st0{filter:url(#Adobe_OpacityMaskFilter);}
	.st1{fill-rule:evenodd;clip-rule:evenodd;fill:#FFFFFF;}
	.st2{mask:url(#mask-2_1_);fill-rule:evenodd;clip-rule:evenodd;fill:#131413;}
	.st3{fill-rule:evenodd;clip-rule:evenodd;fill:#131413;}
</style>
<defs>
	<filter id="Adobe_OpacityMaskFilter" filterUnits="userSpaceOnUse" x="0.2" y="0.2" width="76.8" height="85.8">
		<feColorMatrix  type="matrix" values="1 0 0 0 0  0 1 0 0 0  0 0 1 0 0  0 0 0 1 0"/>
	</filter>
</defs>
<mask maskUnits="userSpaceOnUse" x="0.2" y="0.2" width="76.8" height="85.8" id="mask-2_1_">
	<g class="st0">
		<polygon id="path-1_1_" class="st1" points="77,0.2 0.2,0.2 0.2,86 77,86 		"/>
	</g>
</mask>
<path id="nut_2" class="st2" d="M73.2,22.6c0.1,0,0.2,0,0.2,0c-0.1,0.6-0.2,1.1-0.3,1.7c-0.1,0-0.1,0-0.2,0L73.2,22.6z M72.3,28
	c0,0.1,0.1,0.2,0,0.2c-0.2,0.9-0.4,1.8-0.6,2.7c-0.2,1.1-0.5,2.2-0.7,3.4c-0.1,0.6-0.1,1.3-0.1,2c0,0.5-0.2,1-0.6,1.4
	c0-0.7,0-1.4,0-2c0.1-1.1,0.3-2.1,0.4-3.2C71,30.9,71.5,29.4,72.3,28L72.3,28z M25.8,76.2c0,0,0.1-0.1,0.1-0.1
	c0.9,0.3,1.9,0.5,2.8,0.8c0.4,0.1,0.8,0.4,1.2,0.6c1,0.6,2,1.3,3.2,1.6c1.2,0.3,2.3,0.7,3.4,1.3c0.9,0.5,1.8,0.8,2.7,1.1
	c1,0.3,2,0.5,3,0.7c0.6,0.1,1.3,0.2,1.8,0.1c1.4-0.3,2.8-0.8,4.2-0.9c0.5,0,1.1-0.3,1.5-0.5c0.7-0.4,1.3-0.9,2-1.3
	c1.3-0.7,2.6-1.3,3.9-1.9c0.2-0.1,0.3-0.2,0.5-0.3c0.7-0.5,1.5-1,2.2-1.5c1.1-0.7,2.1-1.3,3.1-2.1c0.5-0.4,1.1-0.9,1.5-1.4
	c0.6-1,1.4-1.8,2.3-2.5c1.4-1.2,2.3-2.7,3.3-4.3c0.5-0.8,0.7-1.6,1-2.4c0.3-0.9,0.6-1.8,0.6-2.8c0-1.5,0.4-2.9,0.9-4.3
	c0.6-1.5,0.6-3,0.5-4.5c0-0.3-0.3-0.5-0.3-0.8c0-0.7,0.1-1.5,0.3-2.2c0.3-1.1,0.6-2.2,0.8-3.3c0.3-1.8,0.3-3.7,0-5.5
	c-0.1-0.7-0.1-1.4,0-2.2c0.1-0.9,0.2-1.9,0.4-2.8c0.2-1,0.4-2,0.6-2.9c0.1-0.3,0.2-0.6,0.2-0.8c0.2,0.3,0.2,0.6,0.3,0.8
	c0.5,1,0.4,2.1,0.6,3.1c0.4,2.3,0.2,4.7,0.4,7.1c0.1,1.8-0.4,3.5-0.4,5.2c-0.1,1.7-0.7,3.3-0.6,4.9c0,0.1-0.1,0.3-0.1,0.4
	c-0.1,0.6-0.3,1.1-0.3,1.7c0,1.9-0.4,3.7-0.8,5.5c-0.3,1.3-0.6,2.6-0.9,3.9c-0.1,0.6-0.2,1.1-0.5,1.6c-0.4,0.8-0.9,1.5-1.4,2.2
	c-0.6,0.9-1.4,1.7-2,2.5c-0.2,0.3-0.5,0.5-0.7,0.8c-0.7,1-1.2,2.1-2.1,3c-0.2,0.2-0.3,0.4-0.4,0.6C63.9,76,62.8,77,61.7,78
	c-0.7,0.6-1.4,1.1-2.2,1.7c-1.3,1-2.5,2.1-4.1,2.7c-0.7,0.3-1.3,0.6-2,0.6c-0.6,0-1.3,0.1-1.9,0.3c-1.9,0.6-3.9,0.4-5.8,0.5
	c-0.8,0.1-1.5-0.1-2.3-0.2c-0.4,0-0.7-0.1-1.1-0.2c-1.4-0.3-2.7-0.7-4.1-1c-0.7-0.2-1.3-0.4-1.9-0.6c-1-0.4-1.9-1-2.8-1.4
	c-1.9-0.9-3.8-1.6-5.5-2.8C27.2,77.1,26.5,76.6,25.8,76.2L25.8,76.2z M2.5,37c0.2,0.3,0.3,0.4,0.3,0.6c0.3,0.8,0.5,1.7,0.8,2.5
	C4,41.4,4.4,42.8,4.9,44c0.5,1.2,1.1,2.3,1.7,3.4c0.4,0.8,0.8,1.6,1.2,2.4c0.7,1.2,1.4,2.5,2.1,3.6c0.8,1.2,1.8,2.3,2.6,3.5
	c1.4,2.1,3,4,4.6,5.9c1.9,2.2,4,4.2,6.2,6.2c1.1,1,2.3,1.9,3.6,2.5c1.2,0.6,2.3,1.1,3.5,1.7c0.8,0.4,1.7,0.7,2.6,1
	c1.6,0.7,3.3,1.1,5.1,1c1.5,0,2.9,0,4.4,0c2.1,0.1,4.1-0.2,6.1-0.3c1.6-0.1,3.1-0.8,4.6-1.4c1.3-0.5,2.5-1.1,3.7-1.8
	c1.4-0.7,2.9-1.4,3.6-2.9c0,0,0.1-0.1,0.1-0.1c0.7-0.3,1-1,1.3-1.6c0.8-1.4,1.7-2.7,2.5-4.1c0.8-1.5,1.2-3.1,1.6-4.7
	c0.3-1.5,0.7-3,1.1-4.4c0.3-1.3,1.1-2.5,1.3-3.8c0.1-0.9,0.4-1.7,0.6-2.6c0.2-1,0.6-2,0.5-3.1c-0.1-0.6,0-1.3,0.1-1.9
	c0.1-0.9,0.2-1.7,0.4-2.6c0.1-0.4,0.1-0.8,0.2-1.1c0.2,0.2,0.3,0.3,0.3,0.5c0.4,2,0.2,4.1,0.3,6.1c0,0.1,0,0.3-0.1,0.4
	c-0.3,0.7-0.3,1.4-0.5,2.1C70,49.2,69.8,50.6,70,52c0.2,1.4-0.1,2.8-0.7,4.1c-0.3,0.6-0.5,1.3-0.6,2c-0.1,0.8-0.1,1.6-0.2,2.3
	c-0.3,1.4-0.8,2.7-1.4,3.9c-0.4,0.8-0.9,1.5-1.4,2.3c-0.5,0.8-0.9,1.6-1.7,2.1c-0.1,0.1-0.3,0.2-0.4,0.4c-0.8,1-1.8,1.8-2.5,2.9
	c0,0-0.1,0.1-0.1,0.1c-0.8,0.7-1.6,1.4-2.5,2c-1.7,1-3.4,2.2-5.3,3c-0.8,0.4-1.7,0.8-2.5,1.2c-0.2,0.1-0.4,0.2-0.6,0.4
	c-0.7,0.6-1.6,1-2.4,1.4c-0.2,0.1-0.3,0.2-0.5,0.1c-0.7-0.1-1.2,0.1-1.8,0.4c-1,0.4-2,0.5-3,0.2c-0.6-0.2-1.1-0.3-1.7-0.4
	c-0.7-0.2-1.4-0.3-2.1-0.5c-1-0.4-1.9-0.9-2.9-1.4c-0.9-0.4-1.8-0.9-2.9-1.1c-0.3-0.1-0.6-0.2-0.9-0.4c-1.2-0.5-2.2-1.4-3.5-1.7
	c-0.4-0.1-0.9-0.1-1.3-0.3c-1.2-0.6-2.4-1.2-3.6-1.8c-0.4-0.2-0.8-0.5-1-1c0-0.2-0.2-0.4-0.4-0.5c-1-0.8-1.9-1.7-2.9-2.4
	c-1.1-0.7-2.2-1.4-3-2.3c-0.7-0.8-1.6-1.5-2.3-2.3c-0.9-1-1.6-2.2-2.5-3.2c-0.6-0.7-1-1.4-1.3-2.2c-0.4-1.3-0.9-2.5-1.7-3.6
	c-0.9-1.2-1.6-2.5-2.1-3.8c-0.5-1.3-1.1-2.6-1.9-3.8c-0.3-0.4-0.5-0.9-0.7-1.4c-0.5-1.2-1-2.5-1.1-3.8c-0.1-1.1-0.3-2.1-0.4-3.2
	C2.2,38.6,2.2,37.9,2.5,37L2.5,37z M73.8,18.2c0,0,0,0.1,0.1,0.1c-0.1,0.1-0.2,0.3-0.3,0.4c-0.8,0.7-1.4,1.5-1.8,2.5
	c-0.3,0.8-0.8,1.7-0.8,2.6c-0.1,1.7-0.7,3.3-1.1,4.8c-0.3,1.2-0.9,2.3-1,3.6c0,0.5,0,1-0.1,1.5c-0.2,1.1-0.4,2.3-0.4,3.4
	c0,0.7-0.1,1.5-0.2,2.2c-0.2,1.6-0.3,3.2-0.5,4.7c0,0.4,0,0.9-0.1,1.3c-0.3,1.5-0.6,3-0.9,4.5c-0.2,0.7-0.4,1.4-0.6,2
	c-0.4,1.1-0.9,2.2-1.2,3.3c-0.3,1-0.5,2.1-0.7,3.1c-0.1,0.5-0.2,1.1-0.4,1.6c-0.5,1.4-1,2.8-1.9,4.1c-0.5,0.6-0.8,1.4-1.2,2.1
	c-0.4,0.6-0.8,1.3-1.3,1.9c-1,1.1-2.2,1.7-3.5,2.4c-0.7,0.4-1.4,0.7-2.2,1c-0.6,0.3-1.2,0.5-1.8,0.8c-0.5,0.2-1,0.3-1.5,0.5
	c-0.3,0.1-0.6,0.3-1,0.3c-1.2,0.1-2.3,0.3-3.5,0.3c-2.8,0-5.6,0-8.4-0.1c-0.1,0-0.3,0-0.4,0c-1.8-0.1-3.4-1.2-5.2-1.5
	c-0.1,0-0.2-0.1-0.3-0.2c-1.1-0.5-2.1-1.1-3.2-1.5c-1.5-0.7-2.9-1.5-4.1-2.7c-1.1-1.1-2.1-2.2-3.3-3.2c-2-1.8-3.4-4.1-5.1-6
	c-0.1-0.1-0.2-0.2-0.3-0.3c-0.8-1.1-1.6-2.2-2.4-3.3c-0.7-1-1.6-1.9-2.2-2.9c-1-1.7-1.8-3.6-2.7-5.4c-0.5-1.1-1-2.1-1.5-3.2
	c-0.5-1.3-0.9-2.6-1.3-3.9c-0.3-0.9-0.6-1.8-0.7-2.7c-0.3-2-0.4-4-0.6-6c-0.1-1.8,0.2-3.6,0.9-5.2c0.5-1.1,1.1-2.2,1.7-3.3
	c0.7-1.3,1.5-2.7,2.1-4c1-2,2-4,3.5-5.7c1-1.1,2.1-2.1,3.2-3.2c1.3-1.2,2.6-2.4,4.1-3.4c1.5-0.9,3-1.5,4.7-1.8c2-0.4,4-0.7,6-1.1
	c1-0.2,2-0.3,3.1-0.4c1.3-0.1,2.5-0.1,3.8-0.1c0.9,0,1.8,0.1,2.6,0.3c0.9,0.1,1.7,0.4,2.6,0.5c1.1,0.2,2.2,0.5,3.3,0.7
	c1.3,0.3,2.5,0.9,3.8,1c0.1,0,0.1,0.1,0.2,0.1c0.3,0.2,0.7,0.4,1,0.6c0.5,0.3,1.1,0.4,1.5,0.8c0.9,0.6,2,1.1,2.7,2
	c0,0.1,0.1,0.1,0.2,0.1c0.9,0.6,1.9,1.1,2.8,1.8c0.2,0.2,0.4,0.3,0.7,0.4c1.5,0.9,3.1,1.8,4.3,3.1c0.6,0.6,1.3,1.1,2,1.6
	c0.6,0.5,1.4,0.8,1.9,1.3c0.5,0.7,1.2,1,1.9,1.2c1.2,0.4,2.4,0.7,3.7,0.6C72.9,18.3,73.3,18.2,73.8,18.2L73.8,18.2z M46.9,86
	c2,0.1,4.1-0.1,6.1-0.6c0.9-0.2,1.8-0.3,2.6-0.5c0.8-0.3,1.6-0.7,2.3-1.1c1.5-0.8,2.7-1.9,4.1-2.8c1-0.7,1.8-1.4,2.6-2.2
	c0.2-0.2,0.4-0.4,0.6-0.6c0.9-1.2,1.7-2.5,2.6-3.8c0.7-1,1.4-2,2.2-3c0.6-0.7,1.2-1.4,1.8-2.1c0.7-0.8,1.3-1.7,1.6-2.8
	c0.1-0.3,0.2-0.6,0.3-0.9c0.1-0.3,0.2-0.6,0.2-0.8c0-1.5,0.4-3,0.9-4.5c0.7-2.2,0.9-4.4,0.9-6.7c0-0.3,0.1-0.6,0.1-0.9
	c0.4-1.7,0.7-3.5,0.7-5.3c0-0.5,0.1-1,0.2-1.4c0-0.3,0.1-0.6,0.1-0.9c0-1.9,0.1-3.8,0.1-5.8c0-2-0.3-3.9-0.6-5.8
	c-0.2-1-0.3-2.1-0.4-3.2c-0.2-1.3-0.4-2.7-0.5-4c-0.1-1.4,0.1-2.8,0.6-4.2c0.3-0.8,0.4-1.7,1-2.4c0.3-0.4,0.1-1.1-0.3-1.5
	c-0.3-0.2-0.5-0.5-0.8-0.7c-0.1-0.1-0.3-0.2-0.5-0.2c-0.4,0.1-0.6,0-0.8-0.3c-0.3-0.4-0.7-0.5-1.1-0.4c-1.5,0.4-2.9,0-4.2-0.4
	c-1-0.3-1.7-0.9-2.5-1.6c-0.3-0.2-0.6-0.5-0.9-0.7c-0.6-0.5-1.3-0.9-1.9-1.5c-1.1-1-2.2-1.8-3.5-2.6C59.2,9,58,8.3,57,7.3
	c-0.3-0.3-0.6-0.4-0.9-0.6c-0.6-0.4-1.2-0.9-1.8-1.3c-0.8-0.5-1.5-1-2.4-1.4c-0.8-0.4-1.7-0.8-2.5-1.1c-1.1-0.4-2.3-0.6-3.5-0.9
	c-0.7-0.2-1.4-0.3-2.1-0.5c-1.3-0.3-2.7-0.7-4-1c-0.7-0.1-1.3-0.2-2-0.2c-0.9,0-1.8-0.1-2.7,0c-1.4,0.1-2.7,0.1-4.1,0.3
	c-1.9,0.2-3.7,0.5-5.5,1.1c-0.1,0-0.3,0.1-0.4,0.1c-1.3-0.1-2.4,0.4-3.6,0.6c-0.8,0.1-1.5,0.6-2.3,1c-1.7,0.9-3.2,2.1-4.6,3.5
	c-1,1.1-2.2,2.1-3.3,3.1c-1.4,1.2-2.4,2.7-3.2,4.3c-0.6,1.2-1.1,2.5-1.7,3.7c-0.7,1.4-1.6,2.7-2.3,4.1C3.6,22.9,3,24,2.7,25.2
	C2.3,26.8,1.9,28.4,2,30c0,0.7,0,1.4-0.5,2c-0.1,0.2-0.2,0.4-0.2,0.6c-0.3,1.6-0.6,3.2-0.9,4.8c-0.2,1.1-0.3,2.2,0.1,3.3
	c0.1,0.4,0.1,0.9,0.1,1.3c0,1.7,0.6,3.2,1.2,4.7c0.4,0.9,0.8,1.7,1.4,2.5c0.6,0.7,0.8,1.6,1.2,2.5c0.5,1.4,1.2,2.7,2,3.9
	c0.7,1.1,1.5,2.3,1.8,3.6c0.3,1,0.9,1.8,1.6,2.6c0.7,0.7,1.2,1.6,1.8,2.4c0.8,1,1.4,2.2,2.1,3.3c0.9,1.4,2,2.6,3.3,3.6
	c0.8,0.6,1.5,1.2,2.2,2c1.4,1.5,3.1,2.6,4.7,3.7c1.3,0.9,2.7,1.9,4,2.8c0.3,0.2,0.6,0.3,0.9,0.5c1.7,1.1,3.6,1.8,5.3,2.8
	c1.1,0.6,2.3,1.2,3.5,1.6c2.2,0.6,4.4,1.2,6.7,1.4C45.2,86,46.1,86,46.9,86L46.9,86z"/>
<path id="nut_1" class="st3" d="M44.7,32.2c0.1-0.2,0.3-0.3,0.4-0.5c0.1-0.1,0-0.4-0.1-0.5c-0.5-0.2-1-0.5-1.4-0.9c0,0-0.1,0-0.2,0
	c-1.1-0.1-2.3-0.3-3.4-0.4c-0.2,0-0.4-0.1-0.6-0.1c-1.1-0.2-2.2-0.4-3.3-0.2c-0.7,0.1-1.4,0.2-2.2,0.1c-0.6,0-1.2,0-1.8,0.1
	c-0.7,0.1-1.3,0.5-2,0.3c-0.8-0.3-1.3-0.1-1.8,0.4c-0.2,0.2-0.4,0.5-0.7,0.7c-0.6,0.5-1.2,1.1-1.9,1.6c-0.9,0.5-1.6,1.1-1.7,2.1
	c-0.1,0.7-0.5,1.2-0.9,1.7c-0.1,0.2-0.3,0.4-0.3,0.6c-0.1,0.9-0.2,1.7-0.3,2.6c-0.2-0.2-0.4-0.4-0.4-0.7c0-1.4,0-2.8-0.2-4.3
	c-0.1-1,0.1-2,0.1-3.1c0.1-1.1,0.6-2,1.6-2.5c0.6-0.3,1.2-0.6,1.8-0.8c0.6-0.2,1.2-0.4,1.9-0.2c0.2,0.1,0.5,0,0.7-0.1
	c1-0.2,1.9-0.5,2.9-0.5c1.7-0.1,3.3,0.2,5,0c1.2-0.1,2.4,0.2,3.5,0.6c0.2,0.1,0.5,0.1,0.8,0.1c0.4,0.1,0.7,0.2,1.1,0.2
	c1.1,0.2,2.2,0.8,3.4,0.9c0.7,0.1,1.3,0.1,2,0.1c0.2,0,0.5,0.1,0.8,0.1c-0.3,0.3-0.5,0.6-0.8,0.8C46.1,31.1,45.4,31.6,44.7,32.2
	c-0.8,0.9-1.4,2.1-1.9,3.2c0,0.1-0.1,0.2-0.1,0.3c-0.3,0.4-0.5,0.8-0.8,1.2c-0.4,0.7-0.8,1.4-1.2,2.1c-0.7,0.9-1.3,1.9-2.1,2.7
	c-0.5,0.6-1.1,1-1.7,1.6c-0.2,0.2-0.4,0.6-0.7,0.7c-0.7,0.5-1.5,0.9-2.3,1.3c-0.8,0.4-1.6,0.9-2.6,0.9c-2,0-3.8-0.6-5.6-1.5
	c-0.1,0-0.2-0.1-0.2-0.1c-0.8-0.9-1.6-1.7-2.4-2.6c-0.1-0.1-0.1-0.2-0.1-0.4c0.4,0,0.7,0,1,0c0-0.2,0-0.3-0.1-0.4
	c-0.4-0.5-0.4-1.1-0.3-1.7c0-0.5,0.1-1,0.1-1.5c0.1-0.7,0.3-1.4,0.9-1.8c0.4-0.3,0.5-0.6,0.5-1c-0.1-0.4,0.1-0.8,0.5-1
	c0.8-0.5,1.5-1,2.2-1.7c0.8-0.8,1.8-1.5,3.1-1.4c0.4,0.1,0.9,0,1.3,0c1.5-0.1,3.1-0.3,4.6-0.4c0.2,0,0.5,0,0.7,0.1
	c1,0.3,2.1,0.2,3.1,0.5c0.2,0,0.4,0,0.6-0.1c0.1,0,0.3,0,0.4,0C42.5,31.9,43.7,31.7,44.7,32.2 M50,29c0.1-0.4,0.1-0.6,0.2-0.9
	c-0.2-0.3-0.4-0.5-0.8-0.5c-1,0.1-2.1,0.1-3.1,0.2c-0.9,0.1-1.7,0-2.4-0.4c-0.5-0.2-1-0.3-1.5-0.4c-0.5-0.1-1.1,0-1.6-0.4
	c-0.1-0.1-0.2,0-0.2-0.1c-1.1-0.2-2.2-0.4-3.3-0.5c-0.1,0-0.3,0-0.4,0c-1.2,0-2.5,0.1-3.7,0.1c-0.7,0-1.4-0.1-2.1-0.1
	c-1.3,0.1-2.6,0.3-3.9,0.4c-1.6,0.1-3.1,0.7-4.5,1.5c-1.6,0.9-2.1,2.3-2.4,3.9c-0.3,2,0.1,4,0.1,5.9c0,0.9,0.1,1.8,0.2,2.6
	c0.1,0.5,0.3,1.1,0.5,1.5c1,1.7,2.5,3,4,4.2c0.4,0.4,1,0.6,1.5,0.8c1.2,0.4,2.4,1,3.7,1c1.7,0.1,3.3,0,4.7-1
	c0.2-0.1,0.3-0.2,0.5-0.3c1.4-0.5,2.4-1.4,3.3-2.4c0.9-1,1.9-1.9,2.7-2.9c0.6-0.7,1.1-1.6,1.6-2.4c0.5-0.9,1-1.9,1.6-2.8
	c0-0.1,0.1-0.1,0.1-0.2c0.4-1.6,1.6-2.5,2.8-3.5c0.5-0.4,0.9-0.9,1.5-1.2c0.4-0.2,0.9-0.3,1.3-0.5c0.4-0.1,0.9-0.2,1.3-0.4
	c0.4-0.1,0.6-0.4,0.5-0.8c-0.1-0.3-0.3-0.6-0.8-0.6C50.8,29,50.5,29,50,29"/>
</svg>
