<?xml version="1.0" encoding="utf-8"?>
<!-- Generator: Adobe Illustrator 23.0.4, SVG Export Plug-In . SVG Version: 6.00 Build 0)  -->
<svg version="1.1" id="illu_layer" xmlns="http://www.w3.org/2000/svg" xmlns:xlink="http://www.w3.org/1999/xlink" x="0px" y="0px"
	 viewBox="0 0 78 79" style="enable-background:new 0 0 78 79;" xml:space="preserve">
<style type="text/css">
	.st0{filter:url(#Adobe_OpacityMaskFilter);}
	.st1{fill-rule:evenodd;clip-rule:evenodd;fill:#FFFFFF;}
	.st2{mask:url(#mask-2_1_);fill-rule:evenodd;clip-rule:evenodd;fill:#131413;}
	.st3{fill-rule:evenodd;clip-rule:evenodd;fill:#131413;}
</style>
<defs>
	<filter id="Adobe_OpacityMaskFilter" filterUnits="userSpaceOnUse" x="0" y="0.2" width="77.9" height="78.8">
		<feColorMatrix  type="matrix" values="1 0 0 0 0  0 1 0 0 0  0 0 1 0 0  0 0 0 1 0"/>
	</filter>
</defs>
<mask maskUnits="userSpaceOnUse" x="0" y="0.2" width="77.9" height="78.8" id="mask-2_1_">
	<g class="st0">
		<polygon id="path-1_1_" class="st1" points="0,0.2 77.9,0.2 77.9,79 0,79 		"/>
	</g>
</mask>
<path id="nut_2" class="st2" d="M36.2,20.8c0,0.2,0,0.3,0,0.5c-0.1,0.3,0.1,0.6,0.2,0.9c0.1,0.2,0.3,0.2,0.4,0.1
	c0.2-0.2,0.4-0.4,0.4-0.6c0-0.6,0.4-1.1,0.6-1.7c0.2-0.5,0.6-1,0.9-1.5c0.1-0.2,0.4-0.3,0.7-0.3c0.4-0.1,0.6,0.4,1,0.4
	c0.1,0,0.3,0.1,0.4,0.1c0.8-0.2,1.5,0.1,2.1,0.7c0.3,0.2,0.5,0.6,0.6,0.9c0.1,0.2,0.2,0.2,0.3,0.2c0.3,0,0.6-0.1,0.9-0.1
	c0.1,0,0.2,0.1,0.3,0.1c0.2,0.2,0.3,0.4,0.4,0.6c0.3,0.3,0.7,0.6,1,0.8c0,0,0.1,0.1,0.1,0.1c0,0.2,0.2,0.3,0.3,0.5
	c0.4,0.3,0.7,0.7,1,1c0.4,0.4,0.9,0.7,1.3,1.1c0.2,0.1,0.3,0.2,0.5,0.3c0.3,0.1,0.5,0.2,0.8,0.4c0.1,0.1,0.3,0.1,0.4,0.1
	c0-0.1,0.1-0.3,0-0.4c-0.1-0.3-0.2-0.5-0.3-0.8c-0.3-0.5-0.4-1-0.4-1.5c0-0.8-0.2-1.5-0.8-2c-0.4-0.4-0.4-0.8-0.4-1.3
	c0-0.1,0.1-0.3,0.2-0.3c0.3-0.2,0.7-0.3,1.1-0.4c0.2-0.1,0.3-0.2,0.1-0.4c-0.2-0.2-0.4-0.3-0.6-0.5c-0.4-0.4-0.8-0.8-1.2-1.2
	c-0.6-0.6-1.2-1.1-1.7-1.7c-0.2-0.3-0.5-0.5-0.7-0.8c-0.3-0.4-0.5-0.8-0.8-1.1c-0.4-0.5-0.9-0.9-1.3-1.4c-0.4-0.4-0.7-0.7-1.1-1.1
	c-0.2-0.2-0.3-0.4-0.4-0.6c-0.4-0.6-0.7-1.2-1.2-1.7c0,0,0-0.1-0.1-0.1c-0.3-0.4-0.6-0.7-1-1.1c-0.3-0.3-0.3-0.3-0.6,0.1
	c-0.2,0.3-0.5,0.7-0.7,1c-0.2,0.3-0.5,0.5-0.8,0.8c-0.3,0.2-0.6,0.4-0.9,0.5c-0.5,0.2-1,0.3-1.5,0.5c-0.3,0.2-0.8,0.2-1,0.5
	c0,0-0.1,0-0.1,0c-0.1,0-0.2,0-0.3,0.1c-0.4,0.2-0.7,0.4-1,0.7c-0.2,0.2-0.4,0.4-0.7,0.6c0,0-0.1,0.1-0.1,0.1
	c-0.3,0.1-0.6,0.1-0.8,0.2c-0.3,0-0.6,0.2-0.7,0.5c-0.1,0.3-0.3,0.4-0.7,0.4c-0.1,0-0.2,0-0.2,0c-0.1,0.2-0.3,0.2-0.5,0.2
	c-0.1,0.1-0.3,0.3-0.3,0.4c0,0.1,0.2,0.3,0.4,0.2c0.2-0.1,0.3,0,0.3,0.2c0,0.1,0.1,0.2,0.1,0.2c0.3,0.4,0.5,1.1,0,1.6
	c-0.2,0.2-0.3,0.4-0.5,0.6c-0.2,0.3-0.3,0.5-0.7,0.5C29,16.5,29,16.8,29,17c0,0.2,0.1,0.2,0.3,0.2c0.1,0,0.2-0.1,0.4-0.1
	c0.4,0,0.8-0.2,1.2-0.2c0.5-0.1,0.9,0,1.4,0c0.3,0,0.5,0.1,0.8,0.2c0.2,0,0.5,0,0.7,0c0.1,0,0.2,0,0.3,0.1c0.2,0.1,0.4,0.2,0.5,0.4
	c0.1,0.1,0.2,0.2,0.3,0.4c0.2,0.3,0.3,0.7,0.6,1.1C36,19.4,36.3,20,36.2,20.8L36.2,20.8z M11.8,63.6c-0.1-0.3-0.4-0.3-0.7-0.4
	c-0.2,0-0.3,0-0.5,0c-0.5-0.2-1,0-1.5,0c-0.1,0-0.2,0.1-0.3,0.1c-0.2-0.1-0.3,0-0.3,0.1c0,0.1,0.1,0.3,0.2,0.5
	C8.8,63.9,9,64,9.1,64.1c0.1,0.1,0.2,0.3,0.4,0.3c0.3,0,0.4,0.2,0.6,0.3c0,0,0.1,0.1,0.2,0.1c0.2,0.2,0.5,0.3,0.7,0.5
	c0.2,0.1,0.3,0.2,0.5,0.3c0.2,0.1,0.4,0.2,0.4,0.3c0.1,0.5,0.5,0.5,0.9,0.6c0.4,0.1,0.7,0.2,1,0.5c0.3,0.3,0.5,0.4,0.9,0.4
	c0.2,0,0.3,0.1,0.4,0.3c0,0.1,0.1,0.1,0.2,0.2c0.4,0.2,0.8,0.3,1.2,0.6c0.3,0.1,0.5,0.4,0.7,0.5c0.5,0.3,1.1,0.6,1.7,0.7
	c0.2,0,0.4,0.2,0.6,0.4c0.1,0.1,0.2,0.1,0.3,0.2c0.1,0,0.1,0.1,0.2,0.1c0.2,0.1,0.4,0.3,0.7,0.4c0.3,0.1,0.6,0.3,1,0.2
	c0,0,0.1,0,0.1,0c0.1,0.3,0.4,0.3,0.6,0.4c0.4,0.2,0.9,0.4,1.3,0.5c0.7,0.2,1.4,0.3,1.8,0.9c0,0.1,0.1,0.1,0.2,0.1
	c0.4,0.1,0.7,0.1,1.1,0.3c0.3,0.1,0.6,0.3,0.9,0.5c0.1,0,0.1,0.1,0.2,0.1c0.1,0.1,0.2,0.1,0.3,0.2c0.1,0,0.1,0.1,0.2,0.2
	c0.3,0.1,0.5,0.1,0.8,0.2c0.1,0,0.2,0.1,0.2,0.2c0.1,0.3,0.4,0.4,0.6,0.4c0.5,0.1,0.9,0.2,1.4,0.3c0.6,0.1,1.2,0.3,1.8,0.4
	c0.5,0.1,1,0.1,1.5,0.2c0.7,0.2,1.4,0,2.1,0.3c0,0,0,0,0,0c0.6,0,1.1,0.2,1.7,0.1c0.3-0.1,0.6,0.1,0.9,0.2c0.4,0,0.8,0,1.3,0.1
	c0.4,0,0.9,0.1,1.3,0.2c0.7,0,1.4,0,2.2,0.1c0.5,0,1,0.2,1.6,0.2c0.9,0,1.9,0,2.8-0.1c0.3,0,0.5-0.1,0.8-0.2
	c0.2-0.1,0.5-0.2,0.7-0.2c0.6-0.1,1.2-0.2,1.8-0.3c0,0,0,0,0.1,0c0.5-0.2,1-0.5,1.5-0.7c0.4-0.2,0.8-0.3,1.2-0.5
	c0.4-0.2,0.8-0.4,1.1-0.5c0.3-0.1,0.5-0.2,0.8-0.2c0.1,0,0.2,0,0.2-0.1c0.1-0.2,0.3-0.2,0.5-0.3c0.3-0.1,0.6-0.4,1-0.5
	c0.2-0.1,0.2-0.2,0.2-0.4c0-0.1-0.2-0.1-0.3-0.1c-0.5,0-1.1,0.1-1.6,0.1c-0.2,0-0.5-0.1-0.7-0.1c-0.9,0-1.7,0.1-2.6,0.2
	c-0.5,0-1,0.1-1.4,0.2c-0.1,0-0.2,0-0.3,0c-0.7-0.2-1.5-0.1-2.2-0.2c0,0-0.1,0-0.1,0c-0.3,0-0.7,0-1,0.1c-0.3,0-0.7,0.1-1,0.1
	c-0.7,0-1.3,0-2-0.1c-0.7-0.1-1.5,0.1-2.2-0.2c0,0-0.1,0-0.1,0c-0.4,0-0.8,0.1-1.2,0c-0.6,0-1.3-0.1-1.9-0.1c-0.2,0-0.5-0.1-0.7,0
	c-0.7,0-1.3-0.2-2-0.1c-0.1,0-0.1,0-0.2-0.1c-0.1,0-0.3-0.1-0.4-0.1c-0.7-0.2-1.4-0.3-2.1-0.5c-0.2,0-0.4-0.1-0.5-0.2
	c-0.3-0.1-0.5-0.2-0.7-0.3c-0.2-0.1-0.5-0.2-0.7-0.3c-0.3-0.1-0.5-0.3-0.7-0.5c-0.1-0.1-0.2-0.1-0.3-0.2c-0.3-0.2-0.5-0.4-0.8-0.6
	c-0.4-0.3-0.8-0.6-1.3-0.9c-0.4-0.3-0.9-0.5-1.3-0.7c-0.3-0.2-0.5-0.5-0.8-0.6c-0.5-0.2-1-0.7-1.4-1.1c-0.5-0.4-1-0.7-1.6-0.8
	c-0.1,0-0.2-0.1-0.3-0.1c-0.4-0.1-0.8-0.3-1.2-0.4c-0.4-0.1-0.8-0.2-1.2-0.3c-0.3-0.1-0.7-0.2-1.1-0.2c-0.1,0-0.2,0.1-0.3,0.1
	c-0.3,0.2-0.6,0.2-0.8,0c-0.2-0.3-0.5-0.7-0.9-0.7c-0.1,0-0.3,0.1-0.4,0.1c-0.5,0-1.1,0-1.6-0.1c-0.4,0-0.7-0.1-1.1-0.1
	c-0.4,0-0.7-0.1-1-0.3c0,0-0.1-0.1-0.2-0.1C13.2,63.6,12.5,63.6,11.8,63.6L11.8,63.6z M61.8,50.4c0.7,0.2,0.9,0.5,0.8,1.1
	c0,0.3,0,0.5,0,0.8c0,0.5-0.1,0.9-0.2,1.4c0,0.2-0.3,0.4-0.2,0.6c0.1,0.3,0,0.5-0.1,0.8c-0.1,0.4-0.2,0.7-0.3,1.1
	c0,0.1-0.1,0.1-0.1,0.2c-0.1,0.2-0.3,0.3-0.3,0.5c-0.1,0.5-0.1,1-0.2,1.6c0,0.1,0,0.3-0.1,0.4c-0.2,0.3-0.2,0.7-0.3,1
	c-0.2,0.7-0.6,1.4-0.7,2.2c-0.1,0.5-0.3,1-0.5,1.5c-0.2,0.6-0.4,1.1-0.7,1.7c-0.2,0.5-0.6,1-0.6,1.5c0,0,0,0.1-0.1,0.1
	c-0.3,0.3-0.5,0.5-0.8,0.8c-0.1,0.1-0.1,0.1-0.1,0.2c-0.2,0.5-0.5,0.9-1,1.1c-0.1,0-0.1,0.2-0.2,0.2c-0.2,0.3-0.3,0.5-0.5,0.8
	c-0.1,0.2-0.4,0.2-0.6,0.4c-0.1,0.1-0.3,0.3-0.2,0.5c0.1,0.1,0.3,0.2,0.4,0.2c0.4,0,0.7-0.1,1.1,0c0.8,0.1,1.6,0.1,2.3-0.1
	c0.1,0,0.2,0,0.3,0c0.5,0.2,1,0.4,1.5,0.7c0.2,0.1,0.3,0.2,0.5,0.1c0.1,0,0.3-0.1,0.4-0.2c0.6-0.1,1-0.6,1.6-0.8
	c0.1,0,0.2-0.2,0.3-0.2c0.4-0.2,0.8-0.4,1.2-0.7c0.5-0.4,0.9-0.8,1.4-1.1c0.4-0.2,0.7-0.6,1.1-0.8c0.2-0.2,0.4-0.3,0.6-0.5
	c0.5-0.3,1-0.6,1.5-1c0.4-0.3,0.8-0.6,1.2-0.9c0.4-0.4,0.9-0.8,1.2-1.3c0.3-0.5,0.7-0.9,1.1-1.4c0,0,0-0.1,0-0.1
	c0.1-0.3,0.2-0.6,0.4-0.8c0.4-0.4,0.5-0.8,0.7-1.2c0.2-0.4,0.4-0.8,0.6-1.1c0.2-0.3,0.5-0.6,0.4-1.1c0-0.1,0.1-0.2,0.1-0.2
	c0.1-0.1,0.2-0.2,0.3-0.4c0.1-0.4,0.2-0.8,0.3-1.2c0.1-0.3,0.2-0.6,0.2-0.9c0.1-0.5,0.1-1,0.1-1.6c0-0.9-0.2-1.7-0.1-2.6
	c0-0.3,0-0.6,0-0.9c0-0.9,0.1-1.8-0.2-2.7c-0.2-0.6-0.3-1.2-0.5-1.7c-0.1-0.4-0.2-0.7-0.4-1.1c-0.1-0.3-0.2-0.6-0.3-0.9
	c-0.1-0.4-0.2-0.8-0.3-1.1c-0.2-0.7-0.4-1.3-0.6-2c-0.1-0.3-0.1-0.7-0.3-1c-0.4-0.7-0.7-1.5-1.3-2.1c-0.2-0.2-0.3-0.4-0.4-0.6
	c-0.1-0.1-0.2-0.3-0.3-0.4c-0.2-0.3-0.5-0.5-0.7-0.8c-0.3-0.5-0.6-0.9-0.9-1.4c-0.2-0.3-0.4-0.5-0.6-0.8c-0.3-0.6-0.6-1.2-1.2-1.5
	c-0.1,0-0.1-0.2-0.1-0.2c0-0.1-0.1-0.1-0.1-0.1c-0.2-0.2-0.5-0.3-0.7-0.5c-0.1-0.1-0.2-0.2-0.3-0.3c-0.3-0.2-0.7-0.4-1-0.7
	c-0.4-0.4-0.8-0.9-1.3-1.2c-0.2-0.2-0.4-0.4-0.7-0.6c-0.2-0.1-0.4-0.2-0.6-0.3c-0.6-0.5-1.1-1-1.7-1.6c-0.2-0.1-0.4-0.3-0.5-0.4
	c-0.1-0.1-0.3-0.3-0.4-0.4c-0.4-0.3-0.8-0.5-1.1-0.8c-0.4-0.3-0.7-0.7-1-1.1c-0.3-0.3-0.7-0.6-1-1c-0.3-0.4-0.6-0.6-1.1-0.6
	c-0.1,0-0.2-0.1-0.3-0.1c-0.1-0.1-0.3-0.1-0.4-0.2c-0.2-0.1-0.4-0.1-0.5-0.3c-0.2-0.4-0.6-0.6-1-0.9c-0.1-0.1-0.3-0.2-0.5-0.3
	c-0.3-0.1-0.6-0.1-0.8-0.2c-0.3-0.3-0.7-0.2-1.1-0.2c-0.2,0-0.3,0.2-0.2,0.4c0.4,0.4,0.4,1,0.4,1.5c0.1,0.5,0,0.9,0.4,1.3
	c0.3,0.3,0.5,0.7,0.7,1.1c0.2,0.4,0.4,0.9,0.2,1.3c-0.1,0.2,0,0.3,0.2,0.3c0.4,0.1,0.8,0.1,1.1,0.4c0.1,0.1,0.4,0.2,0.6,0.2
	c0.7,0.1,1.2,0.4,1.8,0.7c0.2,0.1,0.4,0.3,0.7,0.5c0.4,0.3,0.8,0.5,1.2,0.8c0.1,0,0.2,0,0.2,0.1c0.4,0.4,0.8,0.8,1.1,1.2
	c0.1,0.1,0.2,0.4,0.3,0.5c0.4,0.5,0.7,0.9,1.1,1.4c0.1,0.2,0.3,0.3,0.3,0.5c0.2,0.5,0.5,0.9,0.7,1.4c0.1,0.2,0.3,0.4,0.4,0.5
	c0.1,0.1,0.2,0.3,0.3,0.4c0.1,0.3,0.2,0.5,0.4,0.7c0.2,0.2,0.4,0.4,0.5,0.6c0.2,0.3,0.3,0.6,0.4,1c0.1,0.2,0.2,0.5,0.3,0.7
	c0.2,0.4,0.4,0.8,0.6,1.2c0.1,0.3,0.2,0.5,0.3,0.8c0.1,0.2,0.1,0.3,0.2,0.5c0.2,0.5,0.1,1.1,0.4,1.5c0,0.1,0,0.2,0,0.3
	c0,0.1,0,0.2,0.1,0.3c0,0.1,0.1,0.3,0.1,0.4c0,0.1,0.1,0.2,0.1,0.4c0.2,0.4,0.3,0.7,0.5,1.1c0.1,0.2,0.1,0.5,0.2,0.7
	c0.3,0.3,0.3,0.7,0.3,1c0,0.1,0,0.2,0,0.2c0.4,0.3,0.4,0.7,0.4,1.1c0.1,0.5,0.1,1,0.2,1.5c0.1,0.4,0.2,0.9,0.2,1.3
	c0,0.9,0,1.7,0,2.6c0,1.1,0,2.2,0,3.4c0,0.6-0.1,1.2-0.1,1.7c0,0.2-0.1,0.3-0.1,0.4c0,0.4,0,0.8-0.1,1.2c-0.1,0.8-0.3,1.5-0.5,2.3
	c-0.2,0.7-0.3,1.4-0.7,1.9c-0.3,0.6-0.5,1.2-1.1,1.6c-0.2,0.6-0.9,0.9-1.1,1.5c-0.1,0.3-0.4,0.6-0.7,0.8c-0.3,0.3-0.5,0.5-0.9,0.8
	c-0.3,0.2-0.5,0.2-0.9,0c-0.3-0.2-0.4-0.2-0.3-0.6c0-0.1,0.1-0.1,0.1-0.2c0.1-0.1,0.2-0.2,0.2-0.3c0.1-0.2,0.2-0.4,0.3-0.5
	c0.1-0.2,0.2-0.3,0.3-0.5c0.2-0.4,0.4-0.7,0.7-1.1c0.2-0.3,0.5-0.6,0.8-0.9c0.1-0.1,0.2-0.2,0.3-0.4c0.2-0.3,0.4-0.6,0.6-1
	c0.1-0.1,0.1-0.3,0.2-0.5c0.1-0.2,0.3-0.4,0.3-0.6c0.1-0.3,0-0.7,0.1-1c0,0,0-0.1,0-0.1c0.2-0.5,0.4-1.1,0.4-1.6
	c0-0.4,0.2-0.8,0.1-1.1c0-0.3,0-0.6,0.2-0.8c0.2-0.3,0.1-0.5,0-0.8c-0.1-0.2-0.1-0.4,0-0.5c0.2-0.2,0.1-0.4,0-0.6c0-0.1,0-0.2,0-0.3
	c0.2-0.3,0.2-0.6,0.1-0.9c-0.1-0.3-0.1-0.6-0.2-1c0-0.1,0-0.3,0-0.4c0-0.1,0-0.2,0-0.4c0-0.4,0-0.8,0.1-1.1c0.3-0.4-0.2-0.8,0-1.1
	c0,0,0,0,0,0c-0.1-0.4-0.2-0.9-0.3-1.3c-0.1-0.4-0.1-0.8-0.2-1.1c-0.1-0.4-0.2-0.7-0.3-1.1c-0.1-0.5-0.1-1.1-0.5-1.5
	c-0.1-0.1,0-0.2-0.1-0.3c-0.1-0.2-0.1-0.4-0.2-0.6c-0.1-0.3-0.3-0.5-0.3-0.8c0-0.4,0-0.7-0.3-1.1c-0.1-0.2-0.2-0.4-0.3-0.6
	c-0.1-0.4-0.3-0.8-0.4-1.2c-0.1-0.3-0.2-0.6-0.3-0.8c-0.1-0.3-0.3-0.6-0.4-0.9c-0.3-0.5-0.6-1-0.8-1.4c-0.2-0.3-0.3-0.8-0.6-1
	c-0.5-0.4-0.6-1.1-1.1-1.5c0,0,0-0.1,0-0.1c0-0.3-0.2-0.5-0.4-0.7c0,0-0.1-0.1-0.1-0.1c-0.2-0.4-0.4-0.9-0.6-1.3
	c-0.2-0.3-0.5-0.5-0.6-0.8c0-0.1-0.1-0.2-0.1-0.2c-0.4-0.4-0.8-0.8-1.2-1.2c-0.1-0.1-0.2-0.2-0.4-0.3c-0.5-0.3-1-0.5-1.5-0.8
	c-0.1,0-0.1-0.1-0.1-0.2c-0.1-0.1-0.2-0.1-0.2-0.2c-0.4-0.3-0.9-0.3-1.3-0.5c-0.4-0.2-0.9-0.1-1.2-0.6c-0.2-0.3-0.6-0.5-0.6-0.9
	c0-0.1-0.1-0.1-0.2-0.2c-0.5,0.5-1.1,0.5-1.4,0.1c-0.3,0-0.6-0.1-0.8-0.1c-0.3-0.1-0.6-0.1-0.9-0.3c-0.3-0.2-0.6-0.4-0.9-0.6
	c-0.2-0.2-0.5-0.3-0.7-0.5c-0.4-0.3-0.7-0.6-1-1c-0.1-0.1-0.2-0.2-0.3-0.3c-0.2-0.2-0.3-0.3-0.5-0.5c-0.2-0.3-0.4-0.6-0.6-1
	c-0.4-0.6-1.2-0.5-1.6-1.2c0,0,0,0-0.1,0c-0.2-0.1-0.4-0.1-0.6-0.2c-0.2-0.1-0.4-0.2-0.5-0.3c-0.2-0.2-0.4-0.4-0.5-0.5
	c-0.2-0.2-0.2-0.6-0.5-0.6c-0.5-0.1-1.1-0.1-1.6-0.1c-0.1,0-0.2,0-0.2,0.1c-0.3,0.3-0.6,0.6-0.8,0.9c-0.2,0.3-0.2,0.7-0.4,1
	c-0.2,0.6-0.5,1.1-0.4,1.8c0,0.3-0.2,0.6-0.5,0.7c-0.2,0.1-0.5,0-0.7-0.1c-0.3-0.1-0.5-0.3-0.8-0.4c-0.5-0.2-0.9-0.4-1.2-0.8
	c-0.1-0.2-0.3-0.5-0.4-0.7c-0.1-0.5,0-1-0.1-1.6c0-0.1-0.1-0.2-0.1-0.4c-0.1-0.2-0.3-0.3-0.4-0.5c-0.1-0.5-0.4-0.8-0.7-1.1
	c-0.3-0.2-0.6-0.3-0.9-0.4c-0.4-0.1-0.9,0-1.3,0c-0.2,0-0.4,0-0.7,0.1c-0.2,0-0.3,0.1-0.5,0.2c-0.1,0-0.2,0-0.3,0.1
	c-0.4,0.1-0.8,0.3-1.2,0.4c-0.4,0.1-0.9,0.2-1.4,0.3c-0.2,0-0.5,0.1-0.7,0.1c-0.1,0-0.2,0-0.3-0.1c-0.2-0.1-0.4-0.2-0.6,0.1
	c-0.1,0.1-0.2,0.2-0.2,0.2c-0.4,0.1-0.8,0.1-1.1,0.2c-0.6,0.1-1.2,0.1-1.5,0.9c-0.1,0.2-0.3,0.3-0.4,0.4c-0.1,0-0.2-0.1-0.3-0.2
	c0,0-0.1,0-0.1-0.1c-0.3-0.2-0.4-0.9-0.2-1.2c0.2-0.3,0.4-0.5,0.7-0.5c0.4-0.1,0.8-0.3,1.1-0.4c0.4-0.1,0.8-0.2,1.1-0.5
	c0,0,0.1,0,0.2,0c0.3-0.1,0.6-0.2,0.9-0.3c0.4-0.2,0.8-0.6,1.2-0.8c0.6-0.3,1.2-0.7,1.7-1c0.5-0.3,0.7-0.8,0.4-1.3
	c-0.1-0.1-0.3-0.2-0.4-0.3c-0.3,0-0.6,0-0.9,0c-0.1,0-0.3,0-0.4,0.1c-0.3,0.1-0.6,0.3-0.9,0.3c-0.5,0.1-1.1,0.2-1.5,0.6
	c-0.1,0.1-0.2,0.1-0.3,0.1c-0.6,0.2-1.1,0.4-1.7,0.7c-0.4,0.2-0.7,0.4-1.1,0.6c-0.3,0.1-0.6,0.3-0.8,0.4c-0.4,0.2-0.8,0.4-1.2,0.6
	c-0.2,0.1-0.3,0.3-0.5,0.3c-0.6,0-0.9,0.5-1.3,0.7c-0.6,0.3-0.9,0.9-1.6,1.1c-0.4,0.2-0.7,0.4-1.1,0.7c-0.3,0.2-0.7,0.5-1,0.8
	c-0.2,0.2-0.3,0.4-0.6,0.5c-0.2,0.1-0.5,0.2-0.7,0.4c-0.4,0.3-0.9,0.6-1.2,1.2c0,0-0.1,0.1-0.1,0.1c-0.3,0.2-0.5,0.5-0.8,0.7
	c-0.2,0.2-0.4,0.4-0.6,0.4c-0.3,0.1-0.5,0.3-0.7,0.5c-0.3,0.5-0.7,0.9-1,1.4c-0.2,0.3-0.4,0.6-0.7,0.9C8,27.5,8,27.7,7.8,27.8
	c-0.2,0.1-0.3,0.3-0.3,0.5c0,0.1,0,0.1-0.1,0.2c-0.4,0.7-0.7,1.5-1.1,2.2c-0.1,0.2-0.2,0.3-0.3,0.5C6,31.6,5.9,32,5.8,32.4
	c-0.1,0.3-0.1,0.7-0.2,0.9c-0.2,0.3-0.2,0.6-0.3,0.9c-0.1,0.4-0.2,0.8-0.5,1.2c-0.2,0.3-0.3,0.7-0.4,1c-0.1,0.6-0.2,1.1-0.3,1.7
	c-0.1,0.5-0.2,1.1-0.4,1.6c-0.1,0.3-0.3,0.6-0.3,0.9c-0.1,0.6-0.2,1.2-0.4,1.8c-0.1,0.7-0.3,1.4-0.4,2c0,0.2,0,0.5,0,0.7
	c-0.1,0.7-0.2,1.3-0.3,2c0,0.3-0.2,0.7-0.2,1c0,0.3,0,0.6,0,1c0,0.6,0,1.1,0,1.7c0,0,0,0.1,0,0.1c0.1,0.5,0.3,1,0.4,1.5
	c0.1,0.5,0.2,1.1,0.3,1.6c0,0.3,0,0.6,0.1,0.8c0.2,0.7,0.5,1.4,0.7,2c0.1,0.3,0.2,0.7,0.4,1c0.2,0.4,0.5,0.8,0.7,1.2
	c0.1,0.1,0.2,0.3,0.3,0.4c0.3,0.3,0.4,0.8,0.8,0.9c0,0,0.1,0.1,0.1,0.1c0.4,0.4,0.7,0.8,1.1,1.2c0.2,0.2,0.3,0.1,0.4,0
	c0.3-0.1,0.6-0.3,0.8-0.4c0.3-0.1,0.6-0.1,0.9-0.1c0.2,0,0.4-0.2,0.3-0.4c-0.3-0.6-0.4-1.2-0.8-1.8c-0.3-0.3-0.4-0.7-0.6-1.1
	C8,57.8,8,57.6,7.9,57.4c-0.1-0.4-0.2-0.7-0.3-1.1c-0.1-0.3-0.1-0.6-0.2-0.8c-0.1-0.3-0.2-0.5-0.3-0.8c-0.1-0.1-0.2-0.3-0.2-0.4
	c-0.1-0.3-0.2-0.6-0.3-0.8c0-0.1-0.1-0.2-0.1-0.3c0-0.6-0.1-1.3-0.1-1.9c0-0.8,0-1.7,0-2.5c0-0.2-0.1-0.5-0.1-0.7
	c0-0.8,0.1-1.5,0.1-2.3c0-0.5-0.1-1-0.2-1.5c0-0.5,0-1,0.1-1.4c0.1-0.7,0.2-1.3,0.3-1.9c0.1-0.4,0.1-0.8,0.1-1.2
	c0-0.3,0.1-0.6,0.1-0.8c0-0.8,0.2-1.6,0.5-2.4c0.3-0.7,0.5-1.5,0.8-2.2c0.1-0.3,0.4-0.6,0.5-0.9c0.1-0.1,0.1-0.2,0.2-0.3
	c0.1-0.2,0.2-0.4,0.4-0.5c0.2-0.2,0.5-0.3,0.5-0.6c0.1-0.5,0.4-0.6,0.9-0.6c0.1-0.5,0.4-0.9,0.8-1.1c0.5-0.2,0.8-0.6,1.2-1
	c0.5-0.6,1-1.2,1.5-1.8c0.3-0.4,0.7-0.7,1.1-1c0.6-0.3,1.2-0.8,1.9-1c0.1,0,0.1-0.1,0.2-0.1c0.1-0.1,0.3-0.3,0.4-0.3
	c0.3,0,0.5-0.2,0.7-0.4c0.1,0,0.1-0.1,0.2-0.1c0.3-0.1,0.6-0.2,0.8-0.3c0.4-0.3,0.8-0.7,1.4-0.7c0,0,0.1,0,0.1,0
	c0.1-0.3,0.3-0.4,0.6-0.5c0.2-0.1,0.3-0.2,0.5-0.2c0.2-0.1,0.5-0.3,0.7-0.4c0.2-0.1,0.5-0.3,0.8-0.4c0.3-0.1,0.6-0.4,1-0.4
	c0.4,0,0.5,0.2,0.3,0.6c-0.1,0.3-0.3,0.4-0.6,0.5c-0.3,0.1-0.7,0.2-0.9,0.6c-0.1,0.2-0.4,0.2-0.6,0.4c-0.3,0.2-0.6,0.4-0.9,0.6
	c-0.5,0.3-1,0.6-1.5,0.9c-0.4,0.3-0.8,0.6-1.4,0.7c0,0-0.1,0-0.1,0.1c-0.3,0.2-0.5,0.5-0.8,0.7c-0.2,0.1-0.4,0.2-0.6,0.3
	c-0.2,0.1-0.3,0.2-0.5,0.3c-0.2,0.1-0.4,0.3-0.5,0.4c-0.2,0.2-0.5,0.3-0.7,0.5c-0.1,0.1-0.2,0.2-0.2,0.2c-0.3,0.2-0.6,0.5-0.8,0.9
	c-0.1,0.2-0.3,0.5-0.5,0.6c-0.5,0.2-0.7,0.6-1.1,0.9c-0.3,0.2-0.5,0.6-0.7,0.9c-0.1,0.1-0.3,0.2-0.4,0.3c-0.1,0.1-0.3,0.2-0.4,0.3
	c-0.1,0.2-0.2,0.4-0.4,0.6c-0.2,0.3-0.5,0.6-0.6,1c0,0.2-0.2,0.4-0.4,0.5c-0.1,0.1-0.2,0.3-0.3,0.4c-0.3,0.6-0.5,1.2-0.8,1.9
	c-0.1,0.1-0.2,0.3-0.2,0.4c-0.2,0.6-0.3,1.3-0.4,1.9c-0.1,0.8-0.2,1.7-0.3,2.5c0,0.3,0.1,0.7-0.2,1c0,0,0,0.1,0,0.2
	c0,0.5,0,1.1,0,1.6c0,1.2,0,2.4,0,3.6c0,1,0.1,2.1,0.1,3.1c0.1,0.9-0.1,1.7,0.3,2.6c0.3,0.6,0.3,1.2,0.7,1.8c0.2,0.3,0.1,0.7,0.3,1
	c0.1,0.1,0.1,0.3,0.2,0.4c0.2,0.5,0.4,1.1,0.6,1.6c0,0.1,0,0.1,0.1,0.2c0.1,0.2,0.3,0.4,0.4,0.7c0.1,0.2,0.2,0.5,0.3,0.8
	c0.1,0.4,0.3,0.7,0.4,1.1c0.1,0.2,0.4,0.7,0.7,0.8c0.4,0.1,0.9,0.1,1.3,0.2c0.3,0,0.6,0.1,1,0.2c0.9,0.2,1.9,0.4,2.9,0.4
	c0.2,0,0.3-0.1,0.3-0.3c-0.1-0.2-0.2-0.5-0.2-0.7c-0.1-0.5-0.1-1-0.1-1.4c0-0.1-0.1-0.2-0.1-0.2c-0.1-0.3-0.3-0.5-0.3-0.9
	c0-0.5-0.1-0.9-0.1-1.4c0-0.5-0.1-1-0.2-1.5c0-0.3,0.2-0.6,0-1c-0.1-0.1,0.1-0.4,0.1-0.6c0-0.3-0.1-0.6-0.1-0.8
	c0-0.6,0.1-1.1,0.2-1.7c0-0.3-0.1-0.7,0-1c0.1-0.5,0.2-1,0.3-1.5c0-0.2,0.1-0.4,0.1-0.6c0.1-0.3,0.3-0.5,0.3-0.8
	c0.1-0.5,0.1-0.9,0.2-1.4c0-0.1,0-0.2,0.1-0.2c0.3-0.6,0.6-1.2,0.9-1.8c0.1-0.2,0.4-0.4,0.6-0.6c0.1-0.1,0.2-0.1,0.2-0.2
	c0.1-0.2,0.2-0.5,0.3-0.7c0.2-0.5,0.6-0.8,1-1c0.1,0,0.2,0,0.3,0c0.1,0,0.1,0.1,0.2,0.2c0,0.1,0,0.2,0,0.2c-0.3,0.1-0.4,0.5-0.4,0.7
	c-0.1,0.3-0.3,0.4-0.4,0.6c-0.2,0.3-0.5,0.5-0.4,1c0,0.1,0,0.2-0.1,0.2c-0.1,0.2-0.3,0.4-0.4,0.6c-0.2,0.5-0.4,1-0.6,1.5
	c-0.3,0.5-0.3,1-0.4,1.6c-0.1,0.4,0,0.8-0.3,1.2c-0.2,0.3-0.3,0.5-0.2,0.9c0,0.2,0,0.5,0,0.7c0,0.7-0.3,1.4-0.1,2.2
	c0.1,0.5,0.1,1,0.1,1.5c0,0.9,0.1,1.7,0.2,2.6c0.1,0.6,0.2,1.3,0.3,2c0,0.2,0,0.5,0.1,0.7c0.2,0.6,0.4,1.1,0.5,1.7
	c0,0.3,0.3,0.6,0.5,0.6c0.5,0.1,1,0.2,1.5,0.3c0.2,0,0.4,0.1,0.7,0.2c0.2,0.1,0.4,0.1,0.6,0.2c0.2,0.1,0.3,0.2,0.5,0.2
	c0.4,0.1,0.8,0.1,1.2,0.3c0.2,0.1,0.6,0.1,0.8,0.2c0.9,0.4,1.7,0.8,2.4,1.4c0.5,0.5,1.2,0.8,1.7,1.3c0.2,0.2,0.4,0.1,0.5-0.1
	c0.4-0.5,0.8-1.1,1.2-1.6c0.1-0.1,0.2-0.3,0.3-0.4c0.2-0.3,0.4-0.6,0.6-1c0.1-0.1,0.2-0.3,0.2-0.4c0.1-0.1,0.2-0.2,0.2-0.3
	c0.1-0.6,0.6-1.1,0.6-1.7c0,0,0.1-0.1,0.1-0.1c0.1-0.3,0.4-0.4,0.2-0.8c0,0,0-0.1,0.1-0.1c0.1-0.1,0.1-0.3,0.2-0.4
	c0.1-0.4,0.3-0.8,0.4-1.2c0.1-0.2,0.2-0.4,0.2-0.7c0.1-0.4,0-0.7,0.3-1c0.1-0.1,0.1-0.2,0.1-0.3c0.2-0.5,0.3-1.1,0.6-1.6
	c0.3-0.8,0.5-1.6,0.8-2.3c0.1-0.2,0-0.4,0.1-0.6c0.1-0.5,0.3-1,0.4-1.5c0.1-0.7,0.2-1.4,0.2-2.1c0-0.3,0.2-0.5,0.5-0.6
	c0.1-0.1,0.3,0,0.5,0.1c0,0,0,0.3,0,0.4c0,0.2-0.1,0.4-0.1,0.7c0,0.3,0.1,0.5,0,0.8c-0.2,0.5-0.4,1.1-0.4,1.6
	c-0.1,0.5-0.2,1.1-0.2,1.6c0,0.2-0.1,0.5-0.2,0.7c-0.1,0.1-0.2,0.3-0.2,0.4c0,0.3,0.1,0.5,0.1,0.7c-0.1,0.2-0.2,0.4-0.3,0.5
	c-0.1,0.2-0.2,0.3-0.2,0.5c-0.1,0.4-0.5,0.8-0.3,1.3c0,0.1-0.1,0.2-0.2,0.3c-0.2,0.2-0.3,0.3-0.2,0.6c0.1,0.1,0.1,0.3,0,0.5
	c-0.1,0.5-0.4,0.9-0.4,1.4c0,0.1,0,0.1-0.1,0.2c-0.3,0.7-0.7,1.3-0.8,2.1c0,0.1,0,0.1-0.1,0.2c-0.1,0.2-0.1,0.3-0.2,0.5
	c0,0.1-0.1,0.2-0.2,0.3c-0.1,0.3-0.4,0.5-0.4,0.8c0,0.3-0.2,0.6-0.3,0.8c-0.3,0.5-0.8,0.9-1.1,1.4c-0.2,0.3-0.3,0.6-0.5,0.8
	c-0.1,0.2-0.2,0.3-0.3,0.4c0.2,0.1,0.3,0.2,0.3,0.3c0.1,0.1,0.2,0.2,0.4,0.3c0.3,0.2,0.7,0.4,1,0.7c0.2,0.3,0.4,0.4,0.7,0.5
	c0.1,0,0.3,0.1,0.4,0.1c0.3,0.2,0.5,0.4,0.8,0.5c0.2,0.1,0.5,0.2,0.8,0.2c0.4,0.1,0.8,0.2,1.1,0.2c0.1,0,0.2,0,0.3,0
	c0.2,0.1,0.4,0.1,0.7,0.2c0.4,0.1,0.8,0.3,1.3,0.2c0,0,0.1,0,0.1,0c0.3,0,0.6,0.1,0.9,0.1c0.4,0,0.8,0,1.2,0.1
	c0.3,0,0.6,0.1,0.9,0.1c0.4,0,0.7,0,1.1,0c0.1,0,0.3,0,0.4,0c0.2,0,0.5,0,0.7,0c0.2,0,0.4,0,0.6,0c0.3,0,0.7,0,1,0.1
	c0.7,0.1,1.5,0.2,2.2,0.1c0.4-0.1,0.7-0.1,1.1-0.1c0.3,0,0.7,0.1,1,0c0.4-0.1,0.8,0,1.3,0.1c0.1,0,0.2,0,0.2,0
	c0.5-0.1,0.9-0.2,1.4,0c0.1,0,0.3,0,0.3-0.1c0.1-0.1,0-0.3,0.1-0.4c0.2-0.5,0.5-0.8,0.9-1.1c0.1-0.1,0.3,0,0.4-0.1
	c0.1,0,0.2-0.1,0.3-0.2c0.1-0.1,0.2-0.2,0.2-0.3c0.3-0.3,0.6-0.5,0.8-0.8c0.3-0.4,0.6-0.7,0.8-1.1c0.4-0.6,0.8-1.2,1.2-1.7
	c0.2-0.3,0.3-0.7,0.6-1c0.1-0.1,0.1-0.4,0.2-0.6c0.2-0.5,0.4-1.1,0.6-1.6c0.1-0.4,0.2-0.8,0.4-1.1c0.1-0.2,0.2-0.5,0.3-0.7
	c0.2-0.5,0.4-0.9,0.5-1.4c0.1-0.5,0.3-1,0.6-1.4c0.1-0.1,0-0.2,0.1-0.3c0-0.2,0-0.4,0.1-0.5c0.2-0.3,0.3-0.5,0.3-0.8
	c0-0.4,0-0.7,0.1-1.1c0.2-0.6,0.4-1.2,0.7-1.7c0.1-0.2,0.1-0.4,0.1-0.7c0.1-0.5,0.1-0.9,0.1-1.4C61.9,50.8,61.8,50.6,61.8,50.4
	L61.8,50.4z M60,74.4c-0.3,0.1-0.5,0.2-0.8,0.4c-0.1,0.1-0.3,0.1-0.4,0.2c-0.3,0.2-0.5,0.4-0.8,0.5c-0.6,0.2-1.1,0.5-1.7,0.7
	c-0.4,0.2-0.9,0.4-1.4,0.4c-0.1,0-0.1,0-0.2,0.1c-0.3,0.1-0.5,0.4-0.8,0.3c0,0-0.1,0.1-0.1,0.1c-0.3,0.3-0.6,0.5-1,0.6
	c-0.3,0.1-0.6,0.3-0.9,0.4c-0.1,0.1-0.2,0.2-0.3,0.2c-0.4,0.1-0.9,0.2-1.4,0.3c-0.3,0.1-0.7,0.2-1,0.2c-0.4,0.1-0.8,0.2-1.2,0.2
	c-0.7,0-1.4,0.1-2.2,0.1c-0.8,0-1.7-0.1-2.5-0.1c-0.4,0-0.7-0.1-1.1-0.1c-0.1,0-0.2-0.1-0.3-0.2c-0.3,0.1-0.6,0.2-0.9,0
	c-0.2-0.1-0.5,0-0.7,0c-0.7,0-1.5,0-2.2-0.1c-0.6-0.1-1.2-0.1-1.8-0.2c-1-0.2-2.1-0.4-3.1-0.6c-0.4-0.1-0.7-0.2-1.1-0.2
	c-0.6,0-1.1-0.2-1.6-0.3c-0.2,0-0.5-0.2-0.7-0.2c-0.6-0.1-1.2-0.4-1.7-0.7c-0.4-0.2-0.9-0.3-1.3-0.6c-0.4-0.2-0.7-0.5-1.1-0.6
	c-0.4-0.1-0.8-0.2-1.1-0.4c-0.2-0.1-0.4-0.2-0.7-0.3c-0.1-0.1-0.2-0.2-0.4-0.2c-0.3-0.1-0.5-0.3-0.7-0.5c0,0-0.1-0.1-0.2-0.1
	c-0.3,0-0.6-0.1-0.9-0.3c-0.3-0.2-0.7-0.3-1.1-0.5c-0.2-0.1-0.4-0.2-0.6-0.3c-0.1,0-0.1-0.1-0.2-0.1c-0.4,0.1-0.6-0.1-1-0.3
	c-0.4-0.2-0.9-0.3-1.3-0.5c-0.3-0.1-0.6-0.3-1-0.5c-0.3-0.2-0.7-0.3-1-0.5c-0.1-0.1-0.3-0.1-0.4-0.2c-0.3-0.2-0.7-0.3-1-0.5
	c-0.4-0.2-0.9-0.5-1.3-0.7c-0.1,0-0.2,0-0.3-0.1c-0.2-0.1-0.3-0.1-0.5-0.2c-0.2-0.1-0.3-0.2-0.5-0.3c-0.4-0.2-0.8-0.4-1.1-0.6
	c-0.2-0.1-0.4-0.2-0.5-0.3c0,0-0.1,0-0.1-0.1c-0.2-0.3-0.5-0.4-0.9-0.5c-0.3-0.1-0.5-0.3-0.7-0.5c-0.3-0.3-0.6-0.5-1-0.8
	c-0.2-0.2-0.5-0.5-0.7-0.7c-0.4-0.4-0.7-0.8-1-1.2c-0.2-0.2-0.3-0.4-0.4-0.6c-0.4-0.5-0.7-0.9-1.1-1.4c-0.1-0.1-0.3-0.2-0.4-0.4
	c-0.1-0.1-0.1-0.2-0.2-0.3c-0.1-0.1-0.1-0.2-0.2-0.2c-0.5-0.1-0.7-0.6-0.9-1c0-0.1,0-0.2,0-0.2c-0.3-0.2-0.3-0.5-0.4-0.7
	c-0.3-0.4-0.4-0.8-0.5-1.3c0-0.1-0.1-0.2-0.1-0.3c-0.1-0.4-0.3-0.8-0.4-1.2c-0.2-0.6-0.3-1.1-0.4-1.7c0-0.2-0.1-0.4-0.1-0.6
	c0-0.1-0.1-0.3-0.1-0.4c0-0.2-0.1-0.4-0.1-0.6c0-0.9,0-1.9-0.1-2.8C0.1,49.8,0,49.4,0,49c0-0.3,0-0.7,0.1-1c0-0.4,0.1-0.8,0.1-1.2
	c0.1-0.5,0.2-0.9,0.2-1.4c0-0.3,0.1-0.5,0.1-0.8c0-0.5,0.1-1,0.3-1.5C1,42.6,1.1,42.2,1,41.7c0-0.3,0.1-0.6,0.2-0.9
	c0.1-0.5,0.2-1.1,0.4-1.6c0.2-0.6,0.2-1.2,0.2-1.7c0.1-0.5,0.1-0.9,0.3-1.4c0.1-0.4,0.4-0.8,0.6-1.2c0-0.1,0-0.1,0.1-0.2
	c0.1-0.3,0.3-0.7,0.4-1c0.1-0.3,0.1-0.5,0.1-0.8c0.1-0.5,0.2-1,0.4-1.4c0.1-0.4,0.3-0.7,0.4-1.1c0.1-0.2,0.2-0.4,0.3-0.7
	c0.3-0.7,0.9-1.3,1-2.1c0-0.1,0.1-0.1,0.1-0.2c0.2-0.3,0.4-0.7,0.6-1c0.2-0.3,0.4-0.6,0.6-0.9c0.4-0.5,0.8-1,1.2-1.5
	c0.3-0.4,0.7-0.8,1.1-1.1c0.2-0.2,0.5-0.4,0.8-0.6c0.4-0.3,0.7-0.6,1.1-0.9c0.4-0.3,0.8-0.5,1.2-0.8c0.2-0.1,0.3-0.3,0.5-0.4
	c0.4-0.3,0.8-0.6,1.1-0.9c0.2-0.1,0.3-0.3,0.4-0.4c0.4-0.3,0.7-0.6,1.1-0.9c0.5-0.3,1-0.7,1.5-0.9c0.6-0.2,1-0.6,1.5-0.8
	c0.4-0.2,0.8-0.4,1.2-0.6c0.6-0.3,1.2-0.7,1.8-1.1c0.7-0.4,1.3-0.9,2.1-1c0.5-0.1,0.9-0.3,1.3-0.5c0.6-0.3,1.2-0.5,1.8-0.8
	c0.1-0.1,0.3-0.1,0.4-0.2c0.5-0.2,1-0.4,1.4-0.6c0.5-0.2,1-0.5,1.5-0.8c0.4-0.2,0.8-0.4,1.2-0.6c0.5-0.3,1-0.5,1.4-0.8
	c0.2-0.1,0.5-0.3,0.7-0.4C33.1,9,33.3,9,33.4,8.9c0.4-0.3,0.9-0.5,1.4-0.6c0.3-0.1,0.5-0.3,0.7-0.4c0.5-0.3,1-0.5,1.5-0.8
	c0.4-0.2,0.8-0.4,1.1-0.7c0.2-0.2,0.4-0.5,0.6-0.8c0.2-0.3,0.4-0.5,0.6-0.8c0.2-0.3,0.3-0.5,0.4-0.8c0.3-0.9,0.4-1.8,0.7-2.7
	c0.1-0.4,0.5-0.7,0.7-1c0,0,0.2-0.1,0.2-0.1c0.3,0.2,0.6,0.5,0.8,0.7c0.1,0.1,0,0.4,0,0.5c0,0.2,0,0.3,0.2,0.4
	c0.3,0.1,0.4,0.8,0.2,1.1c-0.3,0.3-0.5,0.7-0.6,1.1c-0.1,0.4,0,0.9,0.1,1.3c0.2,0.7,0.8,1.2,1.3,1.7c0.3,0.4,0.6,0.8,0.9,1.3
	c0.2,0.3,0.5,0.6,0.7,0.9c0.7,0.8,1.4,1.6,2.1,2.4c0.5,0.6,1,1.2,1.5,1.8c0.4,0.5,1,0.9,1.4,1.4c0,0,0.1,0.1,0.1,0.1
	c0.2,0.3,0.5,0.5,0.7,0.8c0.3,0.3,0.5,0.6,0.8,0.9c0.1,0.1,0.1,0.2,0.2,0.2c0.6,0.3,1,0.8,1.5,1.3c0.2,0.2,0.5,0.5,0.9,0.6
	c0.4,0.2,0.8,0.5,1.1,0.8c0.2,0.2,0.5,0.3,0.7,0.4c0.2,0.1,0.4,0.3,0.6,0.5c0.1,0.1,0.1,0.2,0.2,0.2c0.7,0.3,1.2,0.8,1.7,1.2
	c0.5,0.4,0.9,0.9,1.4,1.3c0.3,0.3,0.6,0.6,1,0.9c0.6,0.5,1.2,0.9,1.8,1.4c0.2,0.1,0.3,0.3,0.4,0.4c0.4,0.3,0.7,0.7,1.1,1
	c0.1,0.1,0.3,0.3,0.4,0.4c0.4,0.1,0.5,0.4,0.8,0.6c0.5,0.4,0.9,0.8,1.3,1.2c0.3,0.3,0.6,0.6,0.9,0.8c0.4,0.3,0.9,0.7,1.3,1
	c0.2,0.1,0.2,0.3,0.4,0.5c0.2,0.2,0.5,0.5,0.7,0.7c0.2,0.3,0.5,0.6,0.7,0.9c0.4,0.6,0.7,1.2,1.2,1.7c0.3,0.3,0.4,0.7,0.7,1
	c0.2,0.4,0.5,0.7,0.7,1.1c0.2,0.2,0.4,0.4,0.6,0.6c0.1,0.2,0.2,0.4,0.3,0.5c0.3,0.5,0.7,1,0.9,1.5c0.2,0.3,0.1,0.7,0.2,1.1
	c0.1,0.4,0.2,0.7,0.4,1.1c0.1,0.3,0.2,0.7,0.3,1c0.1,0.5,0.3,1,0.4,1.4c0,0.1,0,0.1,0,0.2c0.1,0.2,0.1,0.4,0.2,0.6
	c0,0.1,0.1,0.2,0.1,0.3c0.1,0.6,0.3,1.1,0.5,1.7c0.3,0.7,0.5,1.4,0.5,2.2c0,1,0.1,2.1,0.1,3.1c0,1-0.1,1.9-0.2,2.9c0,0,0,0.1,0,0.1
	c0.2,0.3,0.1,0.7,0,1c-0.1,0.4-0.2,0.8-0.3,1.2c-0.2,0.6-0.4,1.1-0.7,1.7c-0.2,0.4-0.4,0.7-0.6,1.1c-0.1,0.2-0.2,0.4-0.3,0.7
	c-0.2,0.4-0.3,0.8-0.5,1.2c-0.3,0.5-0.5,0.9-0.8,1.3c-0.2,0.3-0.4,0.7-0.7,1c-0.4,0.6-0.8,1.2-1.4,1.6c-0.2,0.1-0.3,0.3-0.5,0.5
	c-0.3,0.3-0.6,0.7-1,1c-0.1,0.1-0.2,0.2-0.3,0.2c-0.3,0-0.4,0.3-0.6,0.4c-0.3,0.2-0.5,0.5-0.8,0.6c-0.3,0.1-0.5,0.4-0.7,0.5
	c-0.2,0.2-0.5,0.3-0.8,0.5c-0.4,0.4-0.9,0.7-1.3,1.1c-0.2,0.1-0.4,0.2-0.5,0.3c-0.4,0.4-0.8,0.8-1.3,1.1c-0.3,0.2-0.8,0.4-1.2,0.6
	c-0.2,0.1-0.5,0.2-0.7,0.3c-0.1,0-0.1,0-0.2,0c-0.1,0-0.2,0-0.2,0c-0.4,0.3-0.8,0.6-1.3,0.8c-0.4,0.2-0.6,0.4-0.9,0.6
	C60.2,74.4,60.1,74.4,60,74.4L60,74.4z"/>
<path id="nut_1" class="st3" d="M45.3,71c-0.5-0.8-0.3-0.8,0.2-1.2c0.3-0.2,0.5-0.5,0.7-0.8c0.2-0.2,0.3-0.3,0.5-0.5
	c0.4-0.5,0.7-1,1-1.5c0.3-0.4,0.6-0.8,0.8-1.2c0.2-0.3,0.4-0.6,0.5-1c0.2-0.5,0.4-0.9,0.6-1.4c0.1-0.3,0.2-0.6,0.3-0.9
	c0.1-0.4,0.2-0.9,0.3-1.3c0-0.1,0-0.3,0-0.4c0-0.2,0.1-0.3,0.1-0.5c0,0,0-0.1,0-0.1c0.1-0.7,0.2-1.4,0.3-2.1c0-0.2,0.1-0.4,0.2-0.6
	c0-0.1,0-0.2,0-0.2c0-0.3-0.1-0.5,0.2-0.7c0,0,0-0.1,0-0.2c0-0.4,0-0.7,0-1.1c0-0.1,0-0.1,0-0.2c0.2-0.3,0.2-0.5,0.1-0.8
	c0,0,0-0.1,0-0.1c0.3-0.7,0.1-1.4,0.2-2.1c0-0.2,0.1-0.3,0.2-0.5c0-0.2,0.1-0.3,0.1-0.5c0-0.3,0-0.7,0-1c0-0.6,0.1-1.2,0.1-1.8
	c0-1-0.1-2-0.1-3.1c0-0.2,0-0.3,0-0.5c0-0.2-0.1-0.3-0.1-0.5c-0.1-0.3-0.2-0.6-0.3-0.9c0-0.1,0-0.2,0.1-0.2c0.1,0,0.3,0,0.4,0
	c0.2,0.2,0.4,0.4,0.6,0.7c0,0,0.1,0.1,0.1,0.1c0,0.4,0.2,0.7,0.3,1.1c0.2,0.7,0.2,1.4,0.3,2c0,0.4-0.1,0.9,0.1,1.3
	c0.1,0.2-0.1,0.4-0.2,0.6c-0.1,0.3-0.1,0.6,0,0.9c0.1,0.3,0,0.7,0,1c0,0.1-0.1,0.2-0.1,0.3c-0.1,0.5-0.2,0.9-0.2,1.4
	c-0.1,0.6-0.1,1.1-0.1,1.7c0,0.5-0.1,1-0.1,1.4c0,0.2,0,0.3,0,0.5c0,0.2,0,0.5-0.1,0.7c0,0.2,0,0.4,0,0.6c0,0.4,0,0.7-0.1,1.1
	c0,0.2,0,0.3-0.1,0.5c0,0.1,0,0.2,0,0.3c-0.3,0.4-0.2,0.9-0.2,1.3c-0.1,0.6-0.3,1.2-0.4,1.8c-0.1,0.2-0.1,0.5-0.1,0.7
	c0,0.2-0.1,0.3-0.2,0.4c-0.2,0.3-0.4,0.5-0.4,0.9c0,0.2-0.2,0.4-0.2,0.6c-0.1,0.2-0.2,0.5-0.3,0.7c0,0.1-0.1,0.2-0.1,0.2
	c-0.3,0.3-0.6,0.6-0.8,0.9c-0.1,0.1-0.1,0.2-0.1,0.2c0.1,0.3-0.1,0.4-0.2,0.6c-0.3,0.4-0.6,0.7-1,1.1c-0.2,0.2-0.5,0.4-0.7,0.6
	c-0.1,0-0.1,0.1-0.1,0.2c0,0.5-0.3,0.7-0.6,0.9c-0.1,0-0.2,0.1-0.3,0.2C45.8,70.9,45.6,71.1,45.3,71"/>
</svg>
