<?xml version="1.0" encoding="utf-8"?>
<!-- Generator: Adobe Illustrator 23.0.4, SVG Export Plug-In . SVG Version: 6.00 Build 0)  -->
<svg version="1.1" id="icon_layer" xmlns="http://www.w3.org/2000/svg" xmlns:xlink="http://www.w3.org/1999/xlink" x="0px" y="0px"
	 viewBox="0 0 42 32" style="enable-background:new 0 0 42 32;" xml:space="preserve">
<style type="text/css">
	.st0{fill-rule:evenodd;clip-rule:evenodd;fill:#ECA200;}
</style>
<g id="leaf_1_">
	<g id="der-riegel-C" transform="translate(-1027.000000, -2079.000000)">
		<g id="ZUTATEN" transform="translate(68.000000, 1862.000000)">
			<g id="Section-1" transform="translate(0.000000, 130.000000)">
				<g id="Text-1" transform="translate(652.000000, 0.000000)">
					<g id="Group" transform="translate(80.000000, 87.000000)">
						<g id="leaf" transform="translate(227.000000, 0.000000)">
							<path id="Shape" class="st0" d="M19.898,12.986c0.731,0.037,1.195,0.034,1.653,0.09c0.748,0.092,1.099,0.898,0.671,1.506
								c-0.185,0.263-0.448,0.398-0.77,0.392c-0.597-0.012-1.198,0.049-1.783-0.156c-0.345-0.121-0.724-0.148-1.061-0.285
								c-0.446-0.182-0.794-0.02-1.101,0.248c-0.35,0.306-0.663,0.656-0.979,0.999c-0.835,0.906-1.665,1.817-2.492,2.731
								c-0.197,0.217-0.441,0.424-0.318,0.838c0.27,0.197,0.643,0.243,0.989,0.32c1.21,0.271,2.368,0.693,3.513,1.153
								c0.207,0.083,0.44,0.202,0.562,0.375c0.217,0.307,0.105,0.638-0.105,0.926c-0.177,0.242-0.405,0.315-0.701,0.23
								c-1.153-0.331-2.307-0.658-3.464-0.976c-0.611-0.167-1.228-0.311-1.841-0.469c-0.253-0.065-0.459,0.005-0.623,0.205
								c-0.169,0.206-0.345,0.408-0.505,0.621c-0.679,0.908-1.407,1.77-2.24,2.544c-0.157,0.146-0.244,0.368-0.376,0.574
								c0.356,0.421,0.808,0.55,1.244,0.693c0.894,0.295,1.834,0.331,2.758,0.391c0.618,0.04,1.287-0.021,1.867-0.224
								c0.759-0.265,1.518-0.153,2.273-0.201c0.417-0.026,0.774-0.07,1.114-0.325c0.374-0.28,0.765-0.547,1.286-0.394
								c0.08,0.023,0.196-0.033,0.282-0.078c1.058-0.554,2.184-0.95,3.156-1.701c0.868-0.671,1.72-1.363,2.57-2.053
								c0.722-0.586,1.335-1.303,2.03-1.925c1.1-0.988,2-2.138,2.847-3.339c0.208-0.295,0.489-0.539,0.735-0.808
								c0.313-0.342,0.646-0.668,0.931-1.032c0.614-0.784,1.209-1.583,1.797-2.387c0.176-0.241,0.299-0.519,0.455-0.776
								c0.639-1.053,1.357-2.052,2.143-2.998c0.689-0.829,1.13-1.802,1.665-2.72c0.06-0.104,0.047-0.25,0.075-0.413
								c-0.819-0.565-1.704-0.926-2.647-1.145c-0.876-0.203-1.76-0.375-2.639-0.565c-1.376-0.296-2.779-0.324-4.174-0.442
								c-2.091-0.176-4.114,0.201-6.123,0.713c-1.034,0.264-2.078,0.504-3.035,0.995c-1.213,0.624-2.409,1.279-3.618,1.911
								c-0.708,0.37-1.432,0.711-2.139,1.082c-1.18,0.62-2.355,1.249-3.525,1.887c-0.231,0.126-0.48,0.271-0.638,0.472
								c-0.719,0.914-1.515,1.77-2.096,2.79c-0.461,0.81-0.956,1.601-1.43,2.403c-0.221,0.373-0.421,0.758-0.645,1.129
								c-0.674,1.12-1.004,2.36-0.913,3.635c0.112,1.561,0.479,3.085,1.531,4.339c0.019,0.022,0.061,0.024,0.181,0.068
								c0.165-0.104,0.416-0.206,0.592-0.383c0.895-0.895,1.754-1.826,2.657-2.712c0.55-0.538,0.762-1.109,0.597-1.888
								c-0.194-0.915-0.215-1.859,0.045-2.772c0.126-0.442,0.348-0.856,0.529-1.282c0.013-0.03,0.038-0.055,0.06-0.08
								c0.238-0.277,0.649-0.436,0.884-0.343c0.289,0.115,0.547,0.541,0.456,0.914c-0.121,0.494-0.136,0.988-0.131,1.486
								c0.001,0.151,0.073,0.301,0.106,0.424c0.315,0.073,0.412-0.139,0.539-0.272c0.78-0.817,1.518-1.678,2.338-2.451
								c0.432-0.407,0.879-0.792,1.26-1.252c0.296-0.357,0.424-0.724,0.318-1.198c-0.116-0.518-0.173-1.052-0.233-1.581
								c-0.07-0.617,0.029-1.204,0.471-1.672c0.154-0.163,0.366-0.284,0.573-0.379c0.29-0.134,0.525-0.004,0.583,0.331
								c0.086,0.491,0.132,0.989,0.2,1.484c0.04,0.294,0.054,0.602,0.375,0.847c0.409-0.089,0.731-0.391,1.009-0.699
								c0.939-1.043,2.155-1.662,3.388-2.244c0.398-0.188,0.771-0.383,1.096-0.674c0.448-0.402,0.906-0.783,1.492-0.982
								c0.319-0.108,0.578-0.312,0.787-0.591c0.219-0.292,0.527-0.525,0.708-0.836c0.323-0.554,0.779-0.665,1.378-0.563
								c0.362,0.922-0.05,1.754-0.319,2.652c0.213,0.12,0.4,0.242,0.601,0.335c0.391,0.182,0.802,0.326,1.182,0.528
								c0.343,0.182,0.528,0.502,0.553,0.897c0.038,0.592-0.442,0.98-0.975,0.729c-0.852-0.4-1.769-0.583-2.649-0.886
								C26.153,8.533,25.67,8.6,25.204,8.943c-0.268,0.197-0.539,0.391-0.815,0.575c-0.526,0.352-1.032,0.742-1.591,1.031
								c-0.634,0.328-1.177,0.749-1.672,1.252C20.783,12.15,20.422,12.482,19.898,12.986z M5.118,25.695
								c-0.048-0.329-0.22-0.611-0.455-0.851c-1.405-1.435-1.89-3.27-2.114-5.166c-0.199-1.682,0.157-3.308,0.922-4.837
								c0.792-1.58,1.739-3.061,2.8-4.47C6.51,10.053,6.848,9.8,7.043,9.461C7.4,8.837,7.95,8.394,8.437,7.904
								c0.411-0.414,0.914-0.801,1.517-0.907c0.361-0.063,0.608-0.227,0.847-0.467c0.114-0.115,0.247-0.216,0.386-0.299
								c1.276-0.764,2.714-1.223,3.933-2.098c0.292-0.21,0.656-0.324,0.994-0.464c0.546-0.227,1.096-0.429,1.521-0.879
								c0.152-0.162,0.39-0.251,0.599-0.351c1.47-0.695,2.3-0.982,3.941-1.343c0.421-0.093,0.851-0.157,1.279-0.204
								c0.335-0.037,0.644-0.111,0.95-0.269c0.478-0.246,1.003-0.327,1.544-0.309c0.365,0.012,0.731-0.016,1.096-0.01
								c0.761,0.012,1.532-0.169,2.283,0.064c0.42,0.13,0.828,0.226,1.272,0.134c0.155-0.032,0.329,0.025,0.494,0.049
								c0.852,0.125,1.731,0.119,2.528,0.519c0.085,0.042,0.195,0.036,0.295,0.043c0.868,0.057,1.73,0.213,2.521,0.545
								c0.861,0.362,1.734,0.668,2.622,0.948c0.063,0.02,0.122,0.053,0.182,0.083c0.306,0.151,0.598,0.185,0.957,0.112
								c0.875-0.179,1.32,0.335,1.15,1.211c-0.096,0.493-0.415,0.835-0.736,1.165c-0.538,0.552-0.992,1.162-1.41,1.807
								c-0.398,0.614-0.816,1.216-1.25,1.805c-0.553,0.748-1.144,1.469-1.593,2.29c-0.127,0.233-0.278,0.456-0.443,0.663
								c-1.496,1.875-2.936,3.791-4.327,5.745c-0.635,0.892-1.262,1.794-2.083,2.548c-1.35,1.238-2.651,2.53-3.987,3.784
								c-0.411,0.386-0.837,0.775-1.312,1.073c-1.242,0.779-2.578,1.385-3.936,1.932c-0.615,0.248-1.268,0.403-1.907,0.588
								c-1.537,0.446-3.078,0.872-4.707,0.706c-0.066-0.007-0.133,0.001-0.2,0.002c-1.76,0.03-3.441-0.256-4.955-1.229
								c-0.434-0.279-1.126-0.244-1.5,0.089c-0.296,0.262-0.548,0.577-0.8,0.884c-0.146,0.178-0.231,0.409-0.384,0.58
								c-0.599,0.669-1.252,1.293-1.813,1.991c-0.49,0.61-1.167,0.866-1.829,1.172c-0.264,0.122-0.525,0.074-0.764-0.073
								c-0.32-0.197-0.565-0.462-0.698-0.822c-0.138-0.374-0.046-0.648,0.309-0.831c0.206-0.106,0.436-0.165,0.642-0.27
								c0.205-0.103,0.464-0.193,0.576-0.368c0.275-0.429,0.68-0.717,1.013-1.079C3.948,27.409,4.614,26.621,5.118,25.695z"/>
						</g>
					</g>
				</g>
			</g>
		</g>
	</g>
</g>
</svg>
